<svg width="112" height="20" viewBox="0 0 112 20" fill="none" xmlns="http://www.w3.org/2000/svg">
<path d="M9.99996 14.3917L15.15 17.5001L13.7833 11.6417L18.3333 7.70008L12.3416 7.19175L9.99996 1.66675L7.65829 7.19175L1.66663 7.70008L6.21663 11.6417L4.84996 17.5001L9.99996 14.3917Z" fill="#FFC76C"/>
<path d="M33 14.3917L38.15 17.5001L36.7833 11.6417L41.3333 7.70008L35.3416 7.19175L33 1.66675L30.6583 7.19175L24.6666 7.70008L29.2166 11.6417L27.85 17.5001L33 14.3917Z" fill="#FFC76C"/>
<path d="M56 14.3917L61.15 17.5001L59.7833 11.6417L64.3333 7.70008L58.3416 7.19175L56 1.66675L53.6583 7.19175L47.6666 7.70008L52.2166 11.6417L50.85 17.5001L56 14.3917Z" fill="#FFC76C"/>
<path d="M79 14.3917L84.15 17.5001L82.7833 11.6417L87.3333 7.70008L81.3416 7.19175L79 1.66675L76.6583 7.19175L70.6666 7.70008L75.2166 11.6417L73.85 17.5001L79 14.3917Z" fill="#FFC76C"/>
<path d="M102.333 14.725L107.483 17.8333L106.117 11.975L110.667 8.03333L104.675 7.525L102.333 2L99.9917 7.525L94 8.03333L98.55 11.975L97.1833 17.8333L102.333 14.725Z" fill="#FFC76C"/>
</svg>
