<svg width="72" height="80" viewBox="0 0 72 80" fill="none" xmlns="http://www.w3.org/2000/svg">
<path d="M70.2166 15.9851C69.4125 11.6971 34.0315 9.28403 27.3306 9.28403C20.6297 9.28403 -1.18432 16.2922 1.22864 18.1689L43.4129 33.1397C43.4129 33.1397 43.8464 32.9372 44.6036 32.5752L43.9488 60.7476C43.9488 60.7476 48.2374 78.7667 52.5254 78.4994C56.8148 78.2309 70.7524 76.6221 71.0207 73.1384C71.2882 69.6537 71.824 17.8615 70.2166 15.9851Z" fill="#FFC76C"/>
<path d="M1.59868 17.0576C-2.01499 18.2619 1.33042 72.8094 3.47511 75.7574C5.61981 78.7062 48.7733 79.8392 52.5255 78.4994C56.279 77.158 52.7382 24.8359 51.8584 19.9298C51.0702 15.5387 4.01092 16.2533 1.59868 17.0576Z" fill="#FFD592"/>
<path d="M2.75684 30.3315L6.34455 28.4452L9.93371 30.3315L9.24862 26.3359L12.1512 23.5059L8.13948 22.9225L6.34455 19.2872L4.55105 22.9225L0.539307 23.5059L3.44193 26.3359L2.75684 30.3315Z" fill="#6F4027"/>
<path d="M38.2857 29.0897L40.3734 27.0553L37.4888 26.6365L36.1987 24.0223L34.9085 26.6365L32.0239 27.0553L34.1109 29.0897L33.6191 31.9622L36.1987 30.6064L38.7789 31.9622L38.2857 29.0897Z" fill="#6F4027"/>
<path d="M23.1162 42.6533L26.2546 44.3023L25.6554 40.8084L28.1931 38.3342L24.6854 37.8244L23.1162 34.6454L21.5477 37.8244L18.04 38.3342L20.5785 40.8084L19.9792 44.3023L23.1162 42.6533Z" fill="#6F4027"/>
<path d="M40.972 49.5185L43.8104 48.0264L46.6481 49.5185L46.1065 46.3576L48.4027 44.12L45.2289 43.6584L43.8104 40.7833L42.3912 43.6584L39.2174 44.12L41.5143 46.3576L40.972 49.5185Z" fill="#6F4027"/>
<path d="M7.4248 48.5543L9.44763 47.4914L11.4704 48.5543L11.0846 46.3021L12.7202 44.7071L10.4587 44.3781L9.44763 42.3287L8.43658 44.3781L6.17505 44.7071L7.81133 46.3021L7.4248 48.5543Z" fill="#6F4027"/>
<path d="M30.5253 54.5124L28.6511 50.7155L26.7775 54.5124L22.5884 55.1209L25.6201 58.0762L24.904 62.2496L28.6511 60.2788L32.3989 62.2496L31.6828 58.0762L34.7145 55.1209L30.5253 54.5124Z" fill="#6F4027"/>
<path d="M9.2912 60.5853L7.68664 57.3329L6.08209 60.5853L2.49365 61.1068L5.08979 63.6373L4.47753 67.2112L7.68664 65.5244L10.8965 67.2112L10.2828 63.6373L12.8804 61.1068L9.2912 60.5853Z" fill="#6F4027"/>
<path d="M49.0502 70.0135L45.5007 69.498L43.9135 66.2816L42.3262 69.498L38.7775 70.0135L41.3455 72.5172L40.7397 76.0517L43.9135 74.3829L47.088 76.0517L46.4822 72.5172L49.0502 70.0135Z" fill="#6F4027"/>
<path d="M67.9876 47.2114L70.4965 45.8925L71.3258 46.3274C71.3244 44.5973 71.3201 42.86 71.3114 41.138L70.4965 39.4881L69.2424 42.0301L66.4371 42.4384L68.4672 44.417L67.9876 47.2114Z" fill="#6F4027"/>
<path d="M69.494 65.4277L66.688 65.835L68.7188 67.814L68.2392 70.6076L70.7488 69.2887L71.1339 69.4915C71.1656 67.9647 71.1959 66.048 71.2233 63.8477L70.7488 62.8848L69.494 65.4277Z" fill="#6F4027"/>
<path d="M67.49 23.4222L69.2215 21.734L66.8287 21.3864L65.7592 19.2187L64.689 21.3864L62.2963 21.734L64.0277 23.4222L63.6189 25.8043L65.7592 24.6801L67.8989 25.8043L67.49 23.4222Z" fill="#6F4027"/>
<path d="M31.5646 11.9194L30.4742 9.71113L29.3852 11.9194L26.9485 12.2735L28.7117 13.9919L28.2956 16.4193L30.4742 15.2733L32.6542 16.4193L32.2381 13.9919L34.0013 12.2735L31.5646 11.9194Z" fill="#6F4027"/>
<path d="M56.3858 39.3748L58.9091 38.0486L61.4324 39.3748L60.9506 36.5652L62.9915 34.5755L60.1704 34.1651L58.9091 31.6087L57.6478 34.1651L54.8267 34.5755L56.8675 36.5652L56.3858 39.3748Z" fill="#6F4027"/>
<path d="M57.5836 54.9451L59.6793 53.8426L61.7756 54.9451L61.3747 52.6107L63.0708 50.958L60.7278 50.6174L59.6793 48.4937L58.6315 50.6174L56.2877 50.958L57.9838 52.6107L57.5836 54.9451Z" fill="#6F4027"/>
<path d="M61.697 67.6712L60.4992 65.2447L59.3014 67.6712L56.6238 68.0607L58.5615 69.9493L58.1043 72.6161L60.4992 71.3569L62.8949 72.6161L62.4377 69.9493L64.3754 68.0607L61.697 67.6712Z" fill="#6F4027"/>
<path d="M55.193 14.853L57.6023 16.1193L57.1422 13.4366L58.5542 12.06C56.8156 11.7794 54.9665 11.5191 53.0663 11.2796L51.2944 11.5363L53.2437 13.4366L52.7836 16.1193L55.193 14.853Z" fill="#6F4027"/>
<path d="M10.3686 13.1899L10.4119 13.2332L9.95178 15.9158L12.3611 14.6496L14.7705 15.9158L14.3097 13.2332L16.1818 11.4087C14.2181 11.9518 12.2321 12.5611 10.3686 13.1899Z" fill="#6F4027"/>
<path d="M23.6802 80C23.0997 80 22.6209 79.5355 22.6057 78.9515C22.6021 78.7986 22.2271 63.4843 22.0403 48.2139C21.6567 16.8209 22.3663 16.2296 22.993 15.7068C24.5723 14.3907 31.5811 11.8963 32.9701 11.4086L33.1821 11.3351L33.4064 11.3517C37.5753 11.6647 58.5254 13.378 61.5073 16.3609C62.1831 17.0359 63.5886 18.4407 64.6523 48.1728C65.1708 62.6716 65.3424 77.0072 65.3446 77.1506C65.3518 77.7442 64.8751 78.2318 64.2816 78.2383H64.2693C63.6809 78.2383 63.2006 77.7653 63.1934 77.176C62.7174 36.5956 60.9564 19.2497 59.9576 17.8477C58.2283 16.1228 43.5039 14.278 33.4698 13.5138C30.5311 14.5507 25.8523 16.3544 24.5514 17.2255C23.6817 20.8585 24.2095 56.7272 24.7569 78.8974C24.7706 79.4915 24.3019 79.9848 23.7084 80H23.6802Z" fill="#3A3A3A"/>
<path d="M33.3256 13.5H33.3083C33.128 13.4964 15.2356 13.2074 12.4079 13.3313C11.7906 13.3507 11.3118 12.8963 11.2858 12.3037C11.2613 11.7095 11.7207 11.2075 12.3142 11.1817C15.2046 11.0583 32.6044 11.3366 33.3429 11.349C33.9364 11.3588 34.4102 11.8487 34.4008 12.4422C34.3907 13.0307 33.9111 13.5 33.3256 13.5Z" fill="#3A3A3A"/>
<path d="M57.1241 3.15299C51.7949 3.15299 43.7894 7.34069 37.8767 11.1931C51.099 10.2303 60.9628 8.05615 61.8361 5.82412C61.8801 5.71018 62.0157 5.36475 61.2996 4.6263C60.2979 3.59289 58.8513 3.15299 57.1241 3.15299ZM35.0772 13.0983L35.0743 13.1005L35.0772 13.0983ZM34.5868 13.5555C34.0351 13.5555 33.5556 13.2287 33.3789 12.7225C33.2029 12.2171 33.3832 11.6638 33.8282 11.3481C35.3426 10.2686 40.7447 6.53806 46.5694 3.87558C54.386 0.303731 59.8602 0.0520525 62.8443 3.12991C64.2311 4.55923 64.1503 5.81042 63.8388 6.60729C61.9119 11.5312 42.7942 13.1056 34.664 13.5535L34.5868 13.5555Z" fill="#3A3A3A"/>
<path d="M17.1719 2.14985C16 2.14985 14.87 2.40803 13.8178 3.0037C13.0534 3.43711 12.7376 3.82581 12.7678 4.00321C13.021 5.52988 19.8337 8.37755 32.06 10.8835C28.879 7.68323 22.5949 2.14985 17.1719 2.14985ZM34.8011 11.4225L34.804 11.423L34.8011 11.4225ZM34.0122 12.9614L34.0165 12.9664L34.0122 12.9614ZM34.6576 13.5599C34.5747 13.5599 34.491 13.5518 34.4066 13.5369C25.8343 11.9227 11.3494 8.5846 10.6455 4.35585C10.5056 3.51067 10.758 2.26596 12.7578 1.13304C21.4952 -3.82486 33.3444 8.9373 35.6311 11.5456C35.9679 11.9264 36.0278 12.4816 35.7761 12.9245C35.5489 13.3225 35.1198 13.5599 34.6576 13.5599Z" fill="#3A3A3A"/>
<path d="M15.5204 26.0776C15.3459 26.0776 15.1692 26.0364 15.0055 25.9457C14.4848 25.6606 14.293 25.0074 14.5778 24.4868C15.3942 22.9947 16.3454 21.5653 17.4047 20.2399C17.7192 19.8469 18.0668 19.4351 18.5672 19.1292C19.2761 18.6945 20.0304 18.6224 20.6961 18.5604C21.0206 18.5295 21.3271 18.4998 21.5845 18.432C22.3915 18.2193 23.0787 17.532 23.8056 16.8043C24.1453 16.464 24.4965 16.1127 24.8809 15.7882C26.003 14.8383 27.291 14.2239 28.5378 13.629C29.4191 13.2087 30.2513 12.8113 31.007 12.3109L31.2436 12.1521C31.5183 11.9647 31.8299 11.752 32.1825 11.5788L32.4017 11.4686C33.1777 11.0762 34.6222 10.3477 35.7039 11.4086C37.7231 13.3904 39.562 15.3907 39.8685 18.077L39.8844 18.2286C39.8981 18.3497 39.9168 18.5342 39.9406 18.59C40.0098 18.6455 40.3762 18.7297 40.5954 18.7801C40.7577 18.8184 40.9199 18.8568 41.075 18.9007C42.663 19.3585 43.7555 20.6597 44.5538 21.6093C45.117 22.2799 45.9701 23.2947 45.9781 24.6079C45.9817 25.202 45.5036 25.686 44.9101 25.6897H44.9028C44.3122 25.6897 43.8312 25.213 43.8276 24.6214C43.8247 24.1248 43.3913 23.5679 42.9074 22.9924C42.1034 22.0355 41.3656 21.2227 40.4786 20.9667C40.3596 20.9337 40.2356 20.9047 40.1101 20.8751C39.469 20.7267 38.5914 20.5242 38.0887 19.681C37.8277 19.2404 37.7801 18.7838 37.7454 18.4509L37.7318 18.3223C37.5075 16.3609 35.9714 14.6876 34.2659 13.0109C34.0503 13.0456 33.6169 13.2656 33.3717 13.389L33.1294 13.5101C32.9145 13.6155 32.6916 13.7668 32.4544 13.929L32.1926 14.1056C31.3121 14.6876 30.3724 15.1355 29.4638 15.5697C28.289 16.1299 27.1799 16.6609 26.2691 17.4297C25.9554 17.6956 25.6504 18.0015 25.3273 18.3238C24.472 19.1804 23.5028 20.1497 22.1348 20.5109C21.7064 20.6241 21.2773 20.6647 20.8987 20.7013C20.4033 20.7484 19.9749 20.7887 19.6908 20.9625C19.4889 21.0859 19.2898 21.3253 19.0857 21.5805C18.1035 22.8115 17.2208 24.1361 16.4644 25.5187C16.2689 25.8756 15.9004 26.0776 15.5204 26.0776Z" fill="#3A3A3A"/>
</svg>
