<svg width="108" height="80" viewBox="0 0 108 80" fill="none" xmlns="http://www.w3.org/2000/svg">
<path d="M59.2024 41.3663C51.5744 40.0515 44.2437 45.0615 38.0277 48.9057C32.7984 52.14 28.2237 53.4846 21.8931 52.7242C10.1597 51.3172 -1.83493 42.4047 0.234408 29.1368C0.886407 24.9524 4.82908 14.0513 15.4384 10.5744C29.5517 5.94938 37.2118 8.24291 42.8451 10.5364C46.4291 11.995 49.1917 13.4535 52.2757 13.1322C60.8064 12.243 67.3304 3.1055 75.6744 1.079C97.2784 -4.17228 110.91 10.5419 106.994 28.0226C104.988 36.9745 97.4104 43.508 88.5997 44.892C77.6024 46.6203 69.8184 43.1976 59.2024 41.3663Z" fill="#DBAD5C"/>
<path d="M0.0357666 30.9437C0.0730999 30.35 0.138432 29.7481 0.234432 29.1368C0.886432 24.9523 4.8291 14.0513 15.4384 10.5744C21.4251 8.61293 26.2531 7.89586 30.2544 7.89586C35.6878 7.89586 39.6011 9.21613 42.8451 10.5364C46.0891 11.8567 48.6611 13.177 51.4064 13.177C51.6931 13.177 51.9838 13.1634 52.2758 13.1322C60.8064 12.243 67.3304 3.10546 75.6744 1.07896C78.6971 0.344271 81.5651 -2.47955e-05 84.2491 -2.47955e-05C98.5438 -2.47955e-05 107.668 9.74343 107.664 22.1234C107.664 23.6849 107.517 25.2885 107.22 26.9192C106.868 26.1221 106.548 25.3685 106.249 24.6541C106.217 24.5158 106.164 24.3844 106.088 24.2678C104.158 19.6455 102.993 16.5725 99.1344 12.6917C98.3651 11.9177 97.5158 11.1626 96.6064 10.4564C96.6558 10.4008 96.7038 10.3412 96.7504 10.2816C96.7251 10.3141 96.7171 10.3277 96.7198 10.3277C96.7264 10.3277 96.8024 10.2436 96.8771 10.1609C96.9518 10.0782 97.0238 9.9942 97.0224 9.9942C97.0224 9.9942 97.0211 9.99556 97.0198 9.99827C97.2664 9.72717 97.4638 9.39098 97.6278 9.06159C97.8691 8.5736 97.9718 8.05581 98.1371 7.58816C98.3531 6.97546 97.7798 6.21636 97.1518 6.21636C97.0504 6.21636 96.9491 6.23533 96.8491 6.27871C96.4478 6.4495 95.9891 6.48339 95.5651 6.65147C94.8451 6.93749 94.2958 7.36854 93.8051 7.97175C93.6958 8.10594 93.6011 8.24965 93.5238 8.3974C93.1318 8.17645 92.7331 7.96768 92.3304 7.77113C92.3598 7.74538 92.3891 7.71965 92.4198 7.69389C93.2078 7.00665 93.6344 6.20145 93.4718 5.13466C93.3944 4.63041 92.8398 4.08143 92.3504 3.99468C92.1811 3.96486 92.0238 3.95129 91.8744 3.95129C91.0251 3.95129 90.4731 4.41218 89.8771 5.11027C89.5264 5.52234 89.2664 6.02794 89.1624 6.55524C88.8451 6.46577 88.5251 6.38716 88.2051 6.31938C88.5651 5.73651 88.7731 5.07638 88.7931 4.36066C88.8238 3.30336 87.8224 2.37213 86.8171 2.37213C86.4998 2.37213 86.1838 2.46295 85.8984 2.67305C84.8011 3.47687 84.2451 4.68869 84.5464 6.04285C84.2211 6.06589 83.8958 6.10386 83.5731 6.15537C83.6051 6.09166 83.6371 6.02388 83.6678 5.9534C83.9744 5.27699 84.3238 4.54094 84.2464 3.77778C84.1891 3.20711 83.9864 2.71912 83.4771 2.41548C83.2438 2.27722 82.9571 2.20405 82.6678 2.20405C82.2624 2.20405 81.8558 2.34907 81.5971 2.6622C80.9424 3.4606 80.7638 4.35659 80.9064 5.37187C80.9624 5.77582 81.0918 6.32075 81.3597 6.70572C77.4664 7.97448 74.1584 10.6232 69.3651 13.3532C69.0038 13.078 68.5851 12.8828 68.1198 12.7852C67.9984 12.7608 67.8758 12.7486 67.7558 12.7486C66.7051 12.7486 65.7864 13.6758 66.1078 14.8307C66.1291 14.9039 66.1478 14.9784 66.1678 15.0543C65.6318 15.3173 65.0771 15.5803 64.5038 15.8392C64.4998 15.8365 64.4958 15.8351 64.4918 15.8324C64.0331 15.5179 63.5851 15.1452 63.0358 15.0191C62.9558 15.0015 62.8704 14.992 62.7838 14.992C62.3024 14.992 61.7718 15.2712 61.6918 15.7972C61.6371 16.155 61.6571 16.5712 61.7438 16.9954C61.5544 17.0686 61.3611 17.1418 61.1678 17.215C60.7291 16.7338 60.0771 16.4817 59.4198 16.3177C59.3371 16.2973 59.2531 16.2879 59.1678 16.2879C58.5878 16.2879 57.9731 16.7406 58.0344 17.3899C58.0611 17.6664 58.1211 17.9538 58.2144 18.2276C57.3704 18.4933 56.4891 18.7495 55.5691 18.9935C55.1531 18.5611 54.6211 18.233 54.0878 18.233C53.7958 18.233 53.5051 18.3306 53.2318 18.5624C52.8758 18.8647 52.6944 19.2564 52.6518 19.6699C51.9491 19.7892 51.2464 19.8651 50.5424 19.9071C50.3784 19.3906 50.1051 18.9406 49.6304 18.6492C49.4798 18.5556 49.2931 18.5082 49.1038 18.5082C48.8358 18.5082 48.5664 18.6045 48.3998 18.8105C48.1251 19.148 47.9704 19.5086 47.9131 19.903C47.0784 19.8542 46.2438 19.7634 45.4091 19.64C45.1958 18.9636 44.7331 18.3645 44.1478 17.9633C43.9331 17.8155 43.7078 17.7532 43.4851 17.7532C42.9891 17.7532 42.5104 18.069 42.2064 18.4811C42.1464 18.5638 42.0904 18.6505 42.0398 18.7441C40.9024 17.8765 39.7504 17.0334 38.4398 16.4139C36.0118 15.2644 33.6891 14.7819 31.0598 14.4606C28.8544 14.1909 26.4451 13.9089 24.0718 13.9089C22.3398 13.9089 20.6278 14.0594 19.0291 14.4728C19.0398 14.4647 19.0504 14.4552 19.0611 14.4457C19.6198 13.9645 19.7638 13.1092 19.7864 12.4057C19.8158 11.4514 18.9798 10.6543 18.0638 10.6543C17.0718 10.6543 16.4144 11.4541 16.3424 12.4057C16.2651 13.4182 17.0118 14.6599 17.9518 14.809C16.4438 15.3905 15.2731 16.3787 14.4291 17.5892C11.6184 18.4825 9.20376 19.6902 7.13443 21.2694C6.71576 21.3453 6.32644 21.5974 6.0731 22.0529C6.04644 22.1017 6.01976 22.1518 5.99443 22.206C5.05842 23.037 4.20111 23.9547 3.41578 24.9686C2.99445 24.9808 2.57711 25.1855 2.31711 25.6287C2.05178 26.0815 1.99177 26.4868 2.07444 26.907C1.31577 28.1337 0.638433 29.4771 0.0357666 30.9437ZM106.292 21.1582C105.202 21.1582 105.202 22.8743 106.292 22.8743C107.378 22.8743 107.378 21.1582 106.292 21.1582ZM6.69709 17.989C6.08509 17.989 5.47709 18.4106 5.53043 19.1507C5.56776 19.6482 5.69843 19.9328 6.0011 20.3205C6.2171 20.5957 6.49177 20.7109 6.7691 20.7109C7.59443 20.7109 8.44912 19.697 7.89179 18.8362L7.71444 18.5489C7.49311 18.1652 7.09443 17.989 6.69709 17.989ZM105.997 18.6153C105.798 18.6153 105.608 18.7142 105.493 18.9609L105.425 19.1046C105.2 19.5926 105.568 20.0942 105.997 20.0942C106.144 20.0942 106.297 20.0359 106.437 19.8976L106.548 19.7878C107.076 19.2686 106.509 18.6153 105.997 18.6153ZM9.78778 15.0096C9.36512 15.0096 8.96243 15.3417 8.89843 15.8839C8.81843 16.5468 8.80509 17.1879 9.19309 17.7627C9.42376 18.107 9.83576 18.2791 10.2331 18.2791C10.8118 18.2791 11.3611 17.9145 11.2878 17.1866C11.2158 16.4668 10.9251 16.01 10.5278 15.4339C10.3264 15.1411 10.0531 15.0096 9.78778 15.0096ZM48.3891 14.973C47.7145 14.973 47.2758 15.419 47.0411 16.0154L46.9905 16.1428C46.7971 16.6389 47.1104 17.314 47.5544 17.5512L47.6838 17.6203C47.9038 17.7396 48.1358 17.7939 48.3611 17.7939C49.2264 17.7939 50.0038 17.0022 49.7371 16.0154C49.5731 15.4068 49.0104 14.973 48.3891 14.973ZM105.234 16.1022C104.186 16.1022 104.186 17.7545 105.234 17.7545C106.281 17.7545 106.281 16.1022 105.234 16.1022ZM51.7251 14.2261C51.4225 14.2261 51.1304 14.4037 51.0278 14.771C50.8891 15.259 50.9451 15.6101 51.1411 16.0683C51.2718 16.376 51.5051 16.502 51.7504 16.502C52.1811 16.502 52.6531 16.1143 52.6918 15.6413C52.7238 15.2414 52.6224 14.9174 52.3984 14.588C52.2344 14.3481 51.9758 14.2261 51.7251 14.2261ZM13.3091 12.6307C12.8611 12.6307 12.4011 12.8557 12.2024 13.2678C11.9598 13.7761 11.8705 14.2207 11.9251 14.7846C12.0158 15.7104 12.6784 16.4817 13.5744 16.4817C13.7224 16.4817 13.8758 16.4614 14.0331 16.4166C15.3518 16.0493 15.5171 14.5528 14.7691 13.5863C14.5158 13.2583 14.2944 13.0292 13.9411 12.8055C13.7558 12.6876 13.5344 12.6307 13.3091 12.6307ZM44.5905 13.589C44.0331 13.589 43.5064 13.9686 43.3278 14.5528C43.2184 14.9134 43.0384 15.4149 43.2704 15.77C43.5344 16.1767 43.8958 16.3421 44.2731 16.3421C44.6944 16.3421 45.1358 16.1374 45.4891 15.8311C46.1318 15.2739 45.9051 14.1705 45.2278 13.7679C45.0224 13.6446 44.8038 13.589 44.5905 13.589ZM54.4731 13.2284C54.2131 13.2284 53.9584 13.3722 53.9184 13.6622C53.7998 14.5311 53.9971 15.2563 54.7838 15.7131C54.9438 15.8053 55.0958 15.846 55.2358 15.846C55.9558 15.846 56.3411 14.7751 55.6398 14.2248C55.3944 14.0323 55.1491 13.7978 55.0038 13.5185C54.9024 13.3247 54.6864 13.2284 54.4731 13.2284ZM40.1291 11.736C39.2171 11.736 38.6864 12.3406 38.3758 13.1634C38.1318 13.81 38.4731 14.6585 39.1291 14.8646C39.2998 14.9174 39.4704 14.9418 39.6384 14.9418C40.4864 14.9418 41.2611 14.3088 41.5118 13.4847C41.7824 12.6009 41.0584 11.7672 40.2024 11.7374C40.1784 11.736 40.1531 11.736 40.1291 11.736ZM102.897 12.6727C101.646 12.6727 101.646 14.6436 102.897 14.6436C104.146 14.6436 104.146 12.6727 102.897 12.6727ZM58.0158 12.0329C57.5011 12.0329 56.9504 12.4504 57.0091 13.0075C57.0704 13.6094 57.2411 14.1787 57.8238 14.4511C57.9971 14.5325 58.1678 14.5677 58.3304 14.5677C59.1864 14.5691 59.7958 13.5578 59.1051 12.7622C58.9598 12.5954 58.7704 12.4938 58.6358 12.3216C58.4771 12.1196 58.2504 12.0329 58.0158 12.0329ZM36.5585 10.1487C36.1918 10.1487 35.8224 10.2856 35.5264 10.5933C34.7011 11.4473 34.7398 12.4775 35.0131 13.5524C35.1264 13.9984 35.5251 14.2546 35.9371 14.2546C36.0984 14.2546 36.2624 14.2153 36.4131 14.1312C37.3651 13.6026 38.1184 12.8706 38.1118 11.6818C38.1078 10.775 37.3411 10.1487 36.5585 10.1487ZM31.2731 8.97349C30.9838 8.97349 30.6838 9.05482 30.3984 9.23781C29.0024 10.1297 28.6811 11.7265 29.0878 13.2041C29.2264 13.7097 29.7518 14.1095 30.2704 14.1095C30.4651 14.1095 30.6598 14.054 30.8318 13.9266C31.6984 13.2868 32.6904 12.5358 33.0144 11.2819C33.3198 10.104 32.3584 8.97349 31.2731 8.97349ZM22.3464 9.99963C21.9451 9.99963 21.5358 10.1474 21.2624 10.413C20.7131 10.9525 20.5438 11.7021 20.5078 12.4517C20.4691 13.2284 21.1611 13.8032 21.8718 13.8032C21.9811 13.8032 22.0918 13.7897 22.1998 13.7612C23.5771 13.3938 24.0558 11.9543 23.5264 10.7099C23.3158 10.2192 22.8371 9.99963 22.3464 9.99963ZM61.3158 10.104C60.7278 10.104 60.1718 10.7045 60.1451 11.2995C60.1011 12.3636 60.7478 13.4264 61.7931 13.4264C61.9504 13.4264 62.1171 13.4033 62.2931 13.3505C62.9638 13.1512 63.4798 12.3786 63.2358 11.6628C63.0864 11.2291 62.9091 10.9322 62.5304 10.672C62.2024 10.4483 62.1171 10.4957 61.8624 10.2992C61.6878 10.1636 61.4998 10.104 61.3158 10.104ZM26.8678 9.88982C26.5344 9.88982 26.1878 10.0376 25.9424 10.3602C25.4171 11.0542 25.1624 12.2538 25.7131 13.0075C25.8851 13.2407 26.1291 13.3789 26.3798 13.3789C26.5558 13.3789 26.7331 13.3111 26.8905 13.1607C27.4038 12.674 27.6771 11.8513 27.8384 11.1735C28.0291 10.3751 27.4718 9.88982 26.8678 9.88982ZM100.92 9.32726C100.684 9.32726 100.441 9.38422 100.212 9.48995C99.8344 9.66481 99.4784 9.81526 99.1918 10.1487C98.8011 10.5987 98.7318 11.3023 99.1918 11.7428C99.5571 12.0939 99.9611 12.2443 100.368 12.2443C100.877 12.2457 101.389 12.0071 101.832 11.6262C102.285 11.2345 102.326 10.4727 102.041 9.97792C101.782 9.52924 101.364 9.32726 100.92 9.32726ZM65.6331 8.15068C65.3064 8.15068 64.9878 8.35538 64.8518 8.74306C64.6758 9.24596 64.5224 9.68242 64.7051 10.2178C64.8984 10.7831 65.3998 11.1667 65.9438 11.1667C66.1518 11.1667 66.3638 11.1111 66.5691 10.9891C67.3358 10.5323 67.3251 9.60515 66.8251 8.96399C66.6984 8.79862 66.4211 8.67122 66.3371 8.54516C66.1558 8.27812 65.8918 8.15068 65.6331 8.15068ZM69.7678 5.15637C68.8438 5.15637 67.9891 6.14315 68.3184 7.09202C68.5851 7.85653 68.9144 8.70781 69.4624 9.30694C69.6198 9.4791 69.8638 9.56719 70.1078 9.56719C70.4198 9.56855 70.7318 9.42215 70.8624 9.12394C71.1864 8.37569 71.2638 7.50138 71.2718 6.68536C71.2811 5.85308 70.5824 5.15637 69.7678 5.15637ZM73.5958 3.41044C73.0064 3.41044 72.4318 3.69106 72.1064 4.34441C71.5224 5.51694 71.5891 7.48784 72.9264 8.15747C73.1678 8.27811 73.4104 8.33912 73.6451 8.33912C73.9944 8.33912 74.3304 8.20492 74.6318 7.93382C75.2731 7.35637 75.5824 6.17298 75.5798 5.30138C75.5744 4.17359 74.5651 3.41044 73.5958 3.41044ZM77.1624 2.40195C76.6678 2.40195 76.2238 2.76521 76.0318 3.26946C75.5491 4.52196 76.0291 6.01439 76.8611 6.99442C77.1731 7.36177 77.5824 7.51902 77.9984 7.51902C79.0758 7.51902 80.1958 6.46307 79.7704 5.27157C79.3878 4.19664 78.7104 3.15697 77.7291 2.56596C77.5398 2.4521 77.3478 2.40195 77.1624 2.40195Z" fill="#E5BE6E"/>
<path d="M14.7104 50.9187C7.99973 48.3039 2.25304 43.2411 0.52771 36.4025C0.68771 36.4594 0.843711 36.5258 0.995711 36.6045C1.70638 36.9718 2.43841 37.3554 3.19041 37.7485C3.00507 38.2866 2.96506 38.8709 3.11173 39.4117C3.33573 40.2318 4.10106 40.6683 4.8464 40.6683C5.56106 40.6683 6.25705 40.2671 6.43705 39.4172C6.72772 39.5622 7.0224 39.7072 7.31707 39.8523C7.27973 40.2806 7.26507 40.6968 7.31974 41.1414C7.44773 42.1594 8.06772 43.0242 9.17306 43.0242C10.1171 43.0242 10.7824 42.3559 10.9571 41.5222C11.1304 41.5968 11.3037 41.6687 11.4784 41.7405C11.4504 42.8046 11.6784 43.8185 12.7051 44.442C13.0131 44.6291 13.3424 44.7159 13.6704 44.7159C14.1904 44.7159 14.7037 44.499 15.1104 44.1276C15.3931 43.8687 15.5824 43.5745 15.6997 43.2573C16.365 43.4566 17.0331 43.6355 17.7051 43.7927C17.8144 43.8971 17.937 43.9839 18.0664 44.0557C17.2917 45.0249 16.6104 46.0714 16.0544 47.1612C15.8211 46.8711 15.4664 46.7085 15.1277 46.7085C14.7277 46.7085 14.3504 46.9348 14.2237 47.4405C14.0091 48.2999 14.2757 49.2284 15.0437 49.6255C14.9104 50.0552 14.7984 50.4863 14.7104 50.9187ZM10.0691 45.0398C9.33972 45.0398 8.77973 45.7325 8.9184 46.5662C8.99973 47.0609 9.20771 47.4865 9.56238 47.8335C9.85438 48.1223 10.2384 48.2687 10.6211 48.2687C10.9971 48.2687 11.373 48.1263 11.6597 47.8335C12.277 47.2073 12.253 45.864 11.361 45.4668C11.1397 45.3679 10.8731 45.2987 10.6731 45.1957C10.4664 45.0886 10.2624 45.0398 10.0691 45.0398ZM88.8651 44.8487C88.661 44.5247 88.4451 44.2075 88.2184 43.8985C88.7877 43.4728 88.9291 42.5294 88.3677 42.0197C88.2024 41.8693 88.0144 41.7514 87.8704 41.5806C87.7344 41.4179 87.5037 41.3325 87.2731 41.3325C87.0517 41.3325 86.8304 41.4125 86.6997 41.5806C86.6211 41.6822 86.5464 41.7879 86.4824 41.8964C85.6344 41.0654 84.7064 40.343 83.7411 39.7764C83.8864 39.733 84.0291 39.676 84.1624 39.6056C87.0517 39.5947 90.0077 38.8736 94.9957 36.9799C96.913 36.252 98.593 35.3302 100.128 34.3434C100.282 34.4071 100.46 34.4424 100.66 34.4424C101.532 34.4424 101.976 33.766 101.989 33.0788C103.581 31.9455 105.045 30.7947 106.513 29.8011C103.986 37.7471 96.9677 43.4756 88.8651 44.8487ZM91.3984 40.5409C91.2251 40.5409 91.0584 40.6046 90.9171 40.7428C90.4837 41.1698 90.3264 41.8571 90.5504 42.4237C90.7491 42.9239 91.1811 43.1692 91.5997 43.1692C92.0957 43.1692 92.5704 42.8222 92.6064 42.1404C92.6397 41.5358 92.3237 40.9014 91.7691 40.6317C91.6477 40.5734 91.5224 40.5409 91.3984 40.5409ZM95.9344 39.2531C95.4864 39.2531 95.0451 39.6096 95.1771 40.2399C95.2704 40.6927 95.3264 41.0288 95.6304 41.3853C95.7517 41.5277 95.8984 41.5873 96.0464 41.5873C96.3277 41.5873 96.6091 41.3691 96.7184 41.0926C96.8637 40.7279 96.7877 40.4053 96.7424 40.0258C96.6784 39.4958 96.3037 39.2531 95.9344 39.2531ZM99.1117 38.9929C99.2797 39.123 99.4557 39.1799 99.6251 39.1799C100.502 39.1799 101.242 37.6862 100.188 37.2158C99.9584 37.1141 99.7677 37.0531 99.5571 37.0531C99.4451 37.0531 99.3277 37.0708 99.1957 37.1087C98.3704 37.3486 98.2037 38.7814 99.1117 38.9929ZM54.4357 41.3067C54.0611 40.9435 53.6611 40.5924 53.2411 40.2562C53.5824 39.8753 53.6251 39.2857 53.4064 38.7692C53.1997 38.2839 52.9011 37.983 52.4691 37.697C52.3211 37.5994 52.1637 37.556 52.0117 37.556C51.5251 37.556 51.0744 37.9966 51.0584 38.5198C51.0557 38.5971 51.0557 38.6716 51.0571 38.7462C49.3264 37.7065 47.4197 36.8932 45.5624 36.3767C45.9477 35.9416 46.0984 35.3357 46.0131 34.7311C46.2944 34.5942 46.5797 34.4627 46.8704 34.3366C46.9304 34.5562 47.0037 34.7718 47.0891 34.9819C47.4411 35.8562 48.1397 36.5109 49.0437 36.5109C49.2211 36.5109 49.4064 36.4852 49.5984 36.4309C50.7597 36.107 51.1997 34.9941 51.0251 33.8785C50.9851 33.6304 50.9211 33.3837 50.8317 33.1438C51.321 33.053 51.8344 32.9757 52.3744 32.9147C52.2864 33.4068 52.3064 33.9368 52.3704 34.4478C52.5011 35.4861 53.1317 36.3672 54.2584 36.3672C55.5464 36.3672 56.3237 35.1486 56.0797 33.9381C55.9944 33.5125 55.8851 33.1194 55.7237 32.7399C56.5317 32.7467 57.3011 32.7927 58.0397 32.87C57.6597 33.8595 57.8957 35.0239 58.6117 35.947C58.9344 36.3645 59.405 36.5448 59.8944 36.5448C60.9624 36.5448 62.1144 35.6813 61.9797 34.5292C61.9411 34.1984 61.8904 33.8799 61.8091 33.5722C62.2517 33.6901 62.6877 33.8189 63.1197 33.9544C63.1144 33.9788 63.1091 34.0032 63.1051 34.0276C63.0357 34.4153 62.9824 34.7759 63.0264 35.1662C63.101 35.8467 63.3864 36.3618 63.8224 36.6709C60.9477 37.4706 57.9464 39.0878 55.893 41.1712C55.405 41.1942 54.9197 41.2403 54.4357 41.3067ZM56.1957 38.3978C54.9077 38.3978 54.9077 40.4297 56.1957 40.4297C57.4864 40.4297 57.4864 38.3978 56.1957 38.3978ZM66.8264 36.1395C67.0197 35.9429 67.1624 35.7166 67.2584 35.4739C67.7837 35.6827 68.3144 35.8955 68.8557 36.1083C68.6731 36.1056 68.4917 36.1042 68.3091 36.1042C67.9237 36.1042 67.5371 36.1097 67.1517 36.1232C67.0451 36.1273 66.9357 36.1327 66.8264 36.1395Z" fill="#D19C4A"/>
<path d="M6.60245 33.7904C6.03312 33.7904 5.47313 33.3404 5.24646 32.8537C4.85979 32.0228 5.04512 31.2217 5.63712 30.5521C5.90379 30.2498 6.28913 30.1102 6.67979 30.1102C7.3478 30.1102 8.03178 30.5209 8.16111 31.2298C8.35844 32.302 8.03178 33.3173 6.96778 33.724C6.84778 33.7687 6.72512 33.7904 6.60245 33.7904Z" fill="#D5A251"/>
<path d="M11.2864 33.0219C11.1331 33.0219 10.9811 32.9812 10.8518 32.8958C9.64777 32.1082 9.25043 30.6606 9.88777 29.3471C10.1544 28.7967 10.7451 28.5134 11.3304 28.5134C11.6277 28.5134 11.9251 28.588 12.1771 28.7371C12.8438 29.1342 13.1144 29.9096 12.9451 30.6578C12.7918 31.3383 12.3904 31.9646 12.0704 32.5718C11.9211 32.8538 11.6011 33.0219 11.2864 33.0219Z" fill="#D5A251"/>
<path d="M15.3598 32.3034C15.1024 32.3034 14.8491 32.2058 14.6558 31.974C14.1478 31.3668 13.6891 30.7242 13.6371 29.8987C13.5931 29.1939 13.7158 28.569 14.0451 28.0091C14.7784 29.2264 15.8211 30.2024 17.1624 30.7459C17.1238 30.7974 17.0518 30.891 16.9824 30.9845C16.8784 31.1241 16.7771 31.2637 16.7918 31.2637C16.7945 31.2637 16.8038 31.257 16.8211 31.2393C16.6171 31.4427 16.4651 31.6162 16.3731 31.749C16.1504 32.0784 15.7491 32.3034 15.3598 32.3034ZM17.1558 30.7527C17.1371 30.7771 17.1184 30.8015 17.0984 30.8273C17.1224 30.7961 17.1411 30.7717 17.1558 30.7527Z" fill="#D5A251"/>
<path d="M21.1064 32.6923C20.8331 32.6923 20.5624 32.592 20.3651 32.3738C20.0758 32.0511 19.8464 31.6553 19.6758 31.2189C19.6811 31.2189 19.6865 31.2189 19.6918 31.2189C20.0345 31.2189 20.3905 31.1958 20.7571 31.1484C21.3665 31.0711 21.9745 30.9884 22.5798 30.9044C22.4385 31.3409 22.2704 31.7706 22.0598 32.1528C21.8678 32.4985 21.4851 32.6923 21.1064 32.6923Z" fill="#D5A251"/>
<path d="M26.3744 31.7963C25.8904 31.7963 25.4118 31.5971 25.0518 31.2324C24.8718 31.0494 24.7438 30.8393 24.6398 30.6157C25.8504 30.4476 27.0598 30.2849 28.2704 30.1535C28.0731 30.7594 27.7464 31.2826 27.2371 31.5686C26.9638 31.7231 26.6678 31.7963 26.3744 31.7963Z" fill="#D5A251"/>
<path d="M31.5584 31.4507C31.4438 31.4507 31.3224 31.4304 31.1957 31.3843C30.6477 31.1836 30.3478 30.5547 30.1544 29.9772C31.1504 29.9 32.1491 29.8512 33.1517 29.8444C33.1344 29.8878 33.1157 29.9311 33.0957 29.9745C32.8184 30.5872 32.2998 31.4507 31.5584 31.4507Z" fill="#D5A251"/>
<path d="M37.7064 30.8055C37.2211 30.8055 36.7238 30.571 36.4158 30.1087C36.3865 30.0654 36.3571 30.0206 36.3291 29.9759C37.1371 30.0518 37.9504 30.1629 38.7691 30.3148C38.4998 30.6442 38.1078 30.8055 37.7064 30.8055Z" fill="#D5A251"/>
<path d="M47.3145 29.9149C47.1491 29.9149 46.9838 29.8688 46.8385 29.7916C46.7438 29.7414 46.6558 29.6831 46.5745 29.6167C47.4798 28.6177 48.0371 27.2717 48.1118 25.9107C48.5425 26.1886 48.7771 26.6725 48.8185 27.2134C48.8891 28.1202 48.5038 29.2792 47.7371 29.7916C47.6078 29.8783 47.4625 29.9149 47.3145 29.9149Z" fill="#D5A251"/>
<path d="M52.0851 28.8386C51.7798 28.8386 51.4744 28.722 51.2451 28.4848C50.2678 27.475 50.1291 25.6952 51.0731 24.6189C51.3384 24.3152 51.6704 24.1865 52.0051 24.1865C52.5131 24.1865 53.0291 24.482 53.3384 24.9157C54.0504 25.9188 53.7864 27.6552 52.9464 28.4848C52.7104 28.718 52.3971 28.8386 52.0851 28.8386Z" fill="#D5A251"/>
<path d="M2.97576 34.1957C2.7651 34.1957 2.54642 34.1496 2.33442 34.0574C1.59976 33.7402 1.2011 32.9662 1.21444 32.1827C1.22377 31.6663 1.48911 31.1146 1.95578 30.8692C2.20378 30.7391 2.47175 30.6727 2.73309 30.6727C3.23442 30.6727 3.71442 30.9167 4.00242 31.4155C4.34242 32.0052 4.3371 32.6721 4.14376 33.3092C3.9611 33.911 3.49576 34.1957 2.97576 34.1957Z" fill="#D5A251"/>
<path d="M57.1304 28.173C56.9998 28.173 56.8678 28.1378 56.7424 28.0565C55.6264 27.3381 55.1838 25.3183 55.5585 24.0848C55.7558 23.4369 56.3104 23.1088 56.8611 23.1088C57.4091 23.1088 57.9544 23.4328 58.1464 24.0848C58.3224 24.6853 58.3145 25.401 58.2585 26.0232C58.2051 26.6373 58.2185 27.2364 57.8545 27.7596C57.6838 28.005 57.4118 28.173 57.1304 28.173Z" fill="#D5A251"/>
<path d="M62.5051 28.653C61.5891 28.653 60.6838 28.0619 60.7398 26.8867C60.7958 25.6844 60.9998 24.4332 61.6291 23.4058C61.7624 23.1875 61.9651 23.0858 62.1758 23.0858C62.3424 23.0858 62.5145 23.1496 62.6585 23.2716C63.7051 24.1499 64.3238 25.4905 64.3331 26.8867C64.3411 28.066 63.4184 28.653 62.5051 28.653Z" fill="#D5A251"/>
<path d="M67.2131 29.084C66.4984 29.084 65.7864 28.6624 65.4784 27.7393C65.1931 26.8813 65.2864 25.7698 65.3384 24.8683C65.3851 24.093 65.3798 23.3529 65.8664 22.7226C65.9811 22.5734 66.1931 22.4962 66.3984 22.4962C66.5371 22.4962 66.6731 22.5314 66.7744 22.6033C67.1371 22.8608 67.4144 23.2376 67.6651 23.6348C67.7384 23.7636 67.8158 23.8883 67.8958 24.0116C68.0131 24.2068 68.1278 24.3993 68.2491 24.5782C68.7384 25.3034 69.2131 26.3486 69.1318 27.2364C69.0211 28.413 68.1144 29.084 67.2131 29.084Z" fill="#D5A251"/>
<path d="M71.8998 28.6408C70.8211 28.6408 69.9171 27.7245 69.9198 26.6265C69.9198 26.4435 69.9198 26.2619 69.9211 26.0816C71.0385 26.8434 72.3705 27.2961 73.7905 27.311C73.4838 28.0633 72.6838 28.6408 71.8998 28.6408Z" fill="#D5A251"/>
<path d="M76.6385 28.2897C76.2118 28.2897 75.7931 28.1122 75.4598 27.6825C75.3305 27.5157 75.2131 27.3571 75.1105 27.1972C76.4998 26.9396 77.7612 26.2632 78.7585 25.3035C78.8265 25.8349 78.8278 26.3635 78.6451 26.8271C78.3371 27.6093 77.4731 28.2897 76.6385 28.2897Z" fill="#D5A251"/>
<path d="M81.8838 27.7203C80.9691 27.7203 80.0558 27.067 79.8411 26.1398C79.6998 25.5298 79.6611 24.8751 79.6838 24.2245C80.5171 23.0397 81.0118 21.6015 81.0184 20.0617C81.1838 19.9736 81.3758 19.9315 81.5691 19.9315C81.7944 19.9315 82.0198 19.9885 82.2024 20.0956C82.9331 20.5212 83.2918 21.1542 83.5318 21.8916C83.5384 21.9147 83.5438 21.9377 83.5491 21.9594C83.6358 22.3091 83.7238 22.6616 83.8184 23.014C83.9744 23.8246 84.0491 24.7924 84.0011 25.5664C83.9278 26.7376 83.0931 27.7203 81.8838 27.7203Z" fill="#D5A251"/>
<path d="M98.4891 29.0475C99.4051 28.1922 100.15 27.143 100.629 25.9881C100.585 26.5072 100.384 26.9939 100.057 27.4439C99.9118 27.6445 99.7625 27.8438 99.6105 28.039C99.5545 28.1067 99.5158 28.1515 99.4971 28.1732C99.3331 28.3968 99.1931 28.5852 98.9771 28.7587C98.8358 28.8726 98.6691 28.9716 98.4891 29.0475Z" fill="#D5A251"/>
<path d="M102.441 30.3528C102.156 30.3528 101.869 30.2809 101.586 30.1129C101.086 29.8146 100.618 29.1464 100.69 28.5242C100.849 27.1727 101.622 25.7861 103.125 25.7861C103.149 25.7861 103.173 25.7861 103.198 25.7874C104.032 25.8118 104.548 26.3161 104.846 27.0629C105.312 28.23 104.466 29.6303 103.414 30.1129C103.092 30.2606 102.766 30.3528 102.441 30.3528Z" fill="#D5A251"/>
<path d="M6.43708 39.4171C5.32241 38.86 4.2371 38.2947 3.19043 37.7485C3.43176 37.0422 3.9211 36.4146 4.5571 36.0636C4.72776 35.97 4.92376 35.9239 5.12109 35.9239C5.61309 35.9239 6.10775 36.2113 6.20908 36.7481C6.37842 37.6359 6.62908 38.4994 6.43841 39.4117C6.43841 39.413 6.43841 39.4144 6.43708 39.4171Z" fill="#D5A251"/>
<path d="M4.84648 40.6683C4.10115 40.6683 3.33581 40.2319 3.11181 39.4118C2.96515 38.8709 3.00516 38.2867 3.19049 37.7485C4.23716 38.2948 5.32247 38.8601 6.43714 39.4172C6.25714 40.2671 5.56115 40.6683 4.84648 40.6683Z" fill="#CB9341"/>
<path d="M10.9571 41.5223C9.71848 40.9963 8.50247 40.4311 7.31714 39.8523C7.33047 39.6842 7.34779 39.5148 7.36646 39.3413C7.39446 39.0593 7.39446 38.7286 7.46779 38.4548C7.54912 38.1511 7.64781 38.0793 7.68914 37.7811C7.75581 37.2877 8.20247 37.0369 8.65047 37.0369C9.01447 37.0369 9.37847 37.2023 9.54513 37.5344C9.58913 37.6306 9.63714 37.7241 9.68914 37.815C10.3745 38.5252 10.7745 39.7371 10.9585 40.6412C11.0185 40.9408 11.0158 41.2417 10.9571 41.5223Z" fill="#D5A251"/>
<path d="M9.17311 43.0242C8.06778 43.0242 7.44779 42.1594 7.31979 41.1414C7.26513 40.6968 7.27979 40.2806 7.31712 39.8523C8.50246 40.4311 9.71846 40.9963 10.9571 41.5222C10.7825 42.3559 10.1171 43.0242 9.17311 43.0242Z" fill="#CB9341"/>
<path d="M15.6997 43.2573C14.273 42.8303 12.8624 42.3125 11.4784 41.7405C11.4877 41.361 11.5304 40.9747 11.5811 40.5978C11.6704 39.9282 11.705 38.7787 12.4264 38.166C12.7504 37.8908 13.0664 37.7756 13.3664 37.7756C14.3184 37.7756 15.1011 38.9454 15.3851 39.8753C15.7011 40.9096 16.0904 42.2054 15.6997 43.2573Z" fill="#D5A251"/>
<path d="M13.6704 44.7158C13.3424 44.7158 13.0131 44.629 12.7051 44.4419C11.6784 43.8184 11.4504 42.8045 11.4784 41.7404C12.8624 42.3124 14.2731 42.8302 15.6997 43.2572C15.5824 43.5744 15.3931 43.8686 15.1104 44.1275C14.7037 44.4989 14.1904 44.7158 13.6704 44.7158Z" fill="#CB9341"/>
<path d="M18.1918 43.9012C18.0291 43.8659 17.8664 43.8293 17.7051 43.7927C17.6571 43.748 17.6131 43.7006 17.5704 43.6504C16.6744 42.5864 15.9744 41.304 16.3771 39.8591C16.5971 39.0742 17.3518 38.5279 18.1224 38.5279C18.4158 38.5279 18.7118 38.6065 18.9798 38.7827C19.3704 39.0376 19.6971 39.3453 19.9998 39.6964C19.9838 39.6787 19.9771 39.6706 19.9758 39.6706C19.9731 39.6706 20.1064 39.8346 20.2384 39.9973C20.3691 40.1613 20.4998 40.3253 20.4904 40.3253C20.4904 40.3253 20.4891 40.3253 20.4878 40.324L20.6611 40.507C20.8304 40.6764 20.9651 40.8703 21.0664 41.0777C20.0264 41.8869 19.0544 42.8452 18.1918 43.9012Z" fill="#D5A251"/>
<path d="M18.0664 44.0557C17.9371 43.9838 17.8144 43.897 17.7051 43.7927C17.8664 43.8293 18.0291 43.8659 18.1918 43.9011C18.1491 43.9526 18.1077 44.0042 18.0664 44.0557Z" fill="#CB9341"/>
<path d="M20.0291 39.7302C20.0184 39.7196 20.0091 39.7076 19.9998 39.6969C20.0078 39.7062 20.0171 39.7169 20.0291 39.7302Z" fill="#D5A251"/>
<path d="M22.0784 40.3497C21.9011 39.6516 22.0958 38.6689 22.6704 38.2067L22.8051 38.0996C23.2584 37.7349 23.7611 37.5072 24.2824 37.5072C24.5984 37.5072 24.9224 37.5913 25.2478 37.7783L25.3744 37.8529C25.6424 38.0061 25.8597 38.2066 26.0277 38.4384C25.3371 38.7055 24.6531 38.9915 23.9771 39.2965C23.3331 39.5866 22.6971 39.9417 22.0784 40.3497Z" fill="#D5A251"/>
<path d="M27.6118 37.8636C27.7678 37.64 27.9424 37.4462 28.1291 37.2943C28.5251 36.9704 28.9677 36.8037 29.3971 36.8037C29.7037 36.8037 30.0024 36.889 30.2731 37.0612C29.3771 37.2971 28.4891 37.5654 27.6118 37.8636Z" fill="#D5A251"/>
<path d="M32.7905 36.481C33.1678 36.1069 33.6904 35.8643 34.2051 35.8643C34.4904 35.8643 34.7731 35.9388 35.0278 36.1055C34.2784 36.2099 33.5331 36.3346 32.7905 36.481Z" fill="#D5A251"/>
<path d="M37.2224 35.8643C37.2251 35.7057 37.2411 35.5525 37.2651 35.3885C37.2664 35.3654 37.2677 35.3315 37.2691 35.2882C37.2904 34.4166 37.9704 33.6494 38.8517 33.6494C38.8611 33.6494 38.8704 33.6494 38.8797 33.6494C39.6771 33.6643 40.4051 33.9232 40.9477 34.5359C41.2624 34.891 41.4517 35.3139 41.5211 35.7477C41.1571 35.7369 40.7931 35.7314 40.4304 35.7314C39.3597 35.7314 38.2904 35.7761 37.2224 35.8643Z" fill="#D5A251"/>
<path d="M43.7638 35.97C43.2998 35.8886 42.8424 35.829 42.3984 35.7924C42.3611 35.7179 42.3264 35.6392 42.2958 35.5606C41.9984 34.7988 42.1411 34.0655 42.4731 33.3511C42.7091 32.8442 43.3211 32.5338 43.8998 32.5338C44.1798 32.5338 44.4518 32.6056 44.6704 32.7655C45.1571 33.1193 45.5571 33.4921 45.8131 34.0519C45.9145 34.2715 45.9811 34.5006 46.0131 34.731C45.2438 35.1052 44.5064 35.5213 43.7638 35.97Z" fill="#D5A251"/>
<path d="M45.5625 36.3766C44.9545 36.2086 44.3531 36.0717 43.7638 35.97C44.5065 35.5213 45.2438 35.1052 46.0131 34.7311C46.0985 35.3356 45.9478 35.9415 45.5625 36.3766Z" fill="#CB9341"/>
<path d="M46.8704 34.3367C46.6318 33.4542 46.6171 32.5108 46.9891 31.6717C47.2024 31.1892 47.8198 30.8625 48.3678 30.8625C48.5118 30.8625 48.6504 30.8842 48.7758 30.9316C49.7198 31.2895 50.4704 32.1611 50.8318 33.1438C49.3344 33.4204 48.0531 33.8284 46.8704 34.3367Z" fill="#D5A251"/>
<path d="M49.0438 36.5109C48.1398 36.5109 47.4411 35.8562 47.0891 34.9819C47.0038 34.7718 46.9304 34.5563 46.8704 34.3367C48.0531 33.8284 49.3344 33.4204 50.8318 33.1438C50.9211 33.3838 50.9851 33.6305 51.0251 33.8785C51.1998 34.9941 50.7598 36.107 49.5984 36.431C49.4064 36.4852 49.2211 36.5109 49.0438 36.5109Z" fill="#CB9341"/>
<path d="M52.3745 32.9147C52.4825 32.3102 52.7531 31.7626 53.3051 31.3695C53.4931 31.2353 53.6998 31.1783 53.9078 31.1783C54.5065 31.1783 55.1238 31.6514 55.4145 32.1313C55.5358 32.3332 55.6371 32.5339 55.7238 32.7399C55.6411 32.7385 55.5598 32.7385 55.4758 32.7385C54.7678 32.7385 54.0305 32.767 53.2558 32.8294C52.9545 32.8524 52.6611 32.8808 52.3745 32.9147Z" fill="#D5A251"/>
<path d="M54.2585 36.3672C53.1318 36.3672 52.5011 35.4861 52.3705 34.4478C52.3065 33.9368 52.2865 33.4068 52.3745 32.9147C52.6611 32.8808 52.9545 32.8524 53.2558 32.8293C54.0305 32.767 54.7678 32.7385 55.4758 32.7385C55.5598 32.7385 55.6411 32.7385 55.7238 32.7399C55.8851 33.1194 55.9945 33.5125 56.0798 33.9381C56.3238 35.1486 55.5465 36.3672 54.2585 36.3672Z" fill="#CB9341"/>
<path d="M61.8091 33.5721C60.6211 33.2562 59.3798 33.0109 58.0398 32.8699C58.2171 32.4104 58.5265 31.9888 58.9838 31.6473C59.1905 31.4927 59.4345 31.4263 59.6838 31.4263C60.1025 31.4263 60.5345 31.6134 60.8198 31.8872C61.3665 32.4104 61.6478 32.9702 61.8091 33.5721Z" fill="#D5A251"/>
<path d="M59.8944 36.5448C59.4051 36.5448 58.9344 36.3645 58.6118 35.947C57.8958 35.0239 57.6598 33.8595 58.0398 32.87C59.3798 33.011 60.6211 33.2563 61.8091 33.5722C61.8904 33.8799 61.9411 34.1984 61.9798 34.5292C62.1144 35.6814 60.9624 36.5448 59.8944 36.5448Z" fill="#CB9341"/>
<path d="M67.2584 35.4739C65.8731 34.9236 64.5224 34.3963 63.1198 33.9544C63.3344 32.9703 64.2997 32.4132 65.2424 32.4132C65.6237 32.4132 66.0011 32.504 66.3238 32.6965C67.2504 33.2495 67.6438 34.4925 67.2584 35.4739Z" fill="#D5A251"/>
<path d="M63.8224 36.6709C63.3864 36.3618 63.1011 35.8467 63.0264 35.1663C62.9824 34.7759 63.0357 34.4153 63.1051 34.0276C63.1091 34.0032 63.1144 33.9788 63.1198 33.9544C64.5224 34.3963 65.8731 34.9236 67.2584 35.474C67.1624 35.7166 67.0197 35.943 66.8264 36.1395C65.8744 36.2005 64.8571 36.3822 63.8224 36.6709Z" fill="#CB9341"/>
<path d="M73.4331 36.4892C71.9917 36.2723 70.5397 36.1462 69.0837 36.1124C69.1197 35.9253 69.1597 35.7396 69.2024 35.5498C69.4237 34.5684 70.3744 33.934 71.3251 33.934C71.5104 33.934 71.6957 33.9584 71.8744 34.0086C72.9744 34.3163 73.5704 35.3939 73.4331 36.4892Z" fill="#D5A251"/>
<path d="M78.3104 37.5858C76.9638 37.1805 75.5931 36.8565 74.2091 36.6152C74.3851 35.8208 74.7985 35.1065 75.5211 34.6375C75.6798 34.5331 75.8731 34.483 76.0678 34.483C76.3584 34.483 76.6544 34.5955 76.8464 34.811C77.2318 35.2434 77.5118 35.5701 77.7211 36.1855C77.7651 36.3156 77.7838 36.3793 77.7891 36.4037C77.8038 36.4335 77.8224 36.4729 77.8478 36.5244C77.8931 36.6179 78.1598 37.2252 78.1545 37.2252C78.1531 37.2252 78.1358 37.1927 78.0984 37.1127C78.1718 37.2699 78.2438 37.4272 78.3104 37.5858Z" fill="#D5A251"/>
<path d="M84.0931 39.6055C83.8691 39.6055 83.6438 39.6015 83.4198 39.5933C83.1651 39.4551 82.9105 39.3277 82.6518 39.2111C82.0918 38.9576 81.5251 38.719 80.9518 38.4967C80.2891 37.5113 80.0451 36.2479 79.9358 35.051C79.8584 34.1889 80.6931 33.4786 81.4998 33.4786C81.6318 33.4786 81.7625 33.4989 81.8891 33.5396C82.6318 33.7782 83.1185 34.178 83.6118 34.7663C83.6958 34.868 84.2504 35.5173 84.2731 35.5525C84.4171 35.7071 84.5678 35.8548 84.7078 36.0148C85.5091 36.9338 85.6011 38.2961 84.7078 39.2043C84.5491 39.3656 84.3638 39.5012 84.1624 39.6055C84.1398 39.6055 84.1171 39.6055 84.0931 39.6055Z" fill="#D5A251"/>
<path d="M83.7411 39.7763C83.6345 39.714 83.5265 39.6529 83.4198 39.5933C83.6438 39.6014 83.8691 39.6055 84.0931 39.6055C84.1171 39.6055 84.1398 39.6055 84.1624 39.6055C84.0291 39.676 83.8865 39.7329 83.7411 39.7763Z" fill="#CB9341"/>
<path d="M87.8291 37.8961C87.2024 37.8961 86.5731 37.6765 86.1918 37.1872C85.4651 36.2587 85.2145 35.4779 85.1118 34.3108C85.0651 33.7903 85.2078 33.3321 85.4385 32.8726C85.4585 32.8306 85.4798 32.7885 85.5025 32.7465C85.5025 32.7479 85.5011 32.7479 85.5011 32.7479C85.8198 32.1176 86.4251 31.8451 87.0491 31.8451C87.3878 31.8451 87.7318 31.9251 88.0385 32.0715C88.6345 32.3561 88.9478 32.8333 89.3278 33.3484C89.2598 33.2562 89.2304 33.2182 89.2291 33.2182C89.2251 33.2182 89.3518 33.3985 89.4838 33.5788C89.6158 33.7591 89.7531 33.9394 89.7705 33.9394C89.7771 33.9394 89.7705 33.9218 89.7505 33.8825C89.8145 34.0031 89.8811 34.1224 89.9505 34.2389C90.6078 35.3857 90.2171 36.8985 89.0918 37.5681C88.7358 37.7809 88.2824 37.8961 87.8291 37.8961ZM89.7505 33.8825C89.7465 33.8757 89.7425 33.8702 89.7398 33.8635C89.7438 33.8702 89.7465 33.877 89.7505 33.8825ZM89.3344 33.3565C89.3318 33.3538 89.3304 33.3511 89.3278 33.3484C89.3304 33.3511 89.3318 33.3538 89.3344 33.3565Z" fill="#D5A251"/>
<path d="M92.7945 36.5121C91.5611 36.5121 90.8211 35.5375 90.6998 34.384C90.6691 34.0858 90.6958 33.8065 90.7105 33.5097C90.7118 33.2684 90.7531 33.038 90.8331 32.8156C90.9585 32.5107 91.0225 32.3589 91.0225 32.3589C91.0238 32.3589 91.0078 32.3968 90.9771 32.4741C91.2185 31.8966 91.7625 31.3544 92.4025 31.3544C92.5425 31.3544 92.6878 31.3802 92.8345 31.4385C94.1638 31.9576 94.7398 32.9743 94.8878 34.384C95.0091 35.5402 93.8425 36.5121 92.7945 36.5121Z" fill="#D5A251"/>
<path d="M97.4171 35.707C96.0465 35.707 95.5198 34.3095 95.9918 33.1831C96.2385 32.5948 96.8424 32.1013 97.4958 32.1013C97.5038 32.1013 97.5105 32.1013 97.5185 32.1013C97.9891 32.1095 98.2745 32.386 98.4771 32.7439C98.6038 32.8767 98.7184 33.0204 98.8411 33.1831C99.6318 34.2309 98.5465 35.707 97.4171 35.707Z" fill="#D5A251"/>
<path d="M100.128 34.3434C98.9091 33.8486 99.0864 31.6473 100.66 31.6473C101.561 31.6473 102.004 32.3684 101.989 33.0787C101.389 33.5057 100.772 33.9313 100.128 34.3434Z" fill="#D5A251"/>
<path d="M100.66 34.4424C100.46 34.4424 100.282 34.4071 100.128 34.3434C100.772 33.9314 101.389 33.5057 101.989 33.0788C101.976 33.766 101.532 34.4424 100.66 34.4424Z" fill="#CB9341"/>
<path d="M10.6211 48.2687C10.2384 48.2687 9.85439 48.1223 9.56239 47.8336C9.20772 47.4865 8.99974 47.0609 8.91841 46.5662C8.77974 45.7325 9.33973 45.0399 10.0691 45.0399C10.2624 45.0399 10.4664 45.0886 10.6731 45.1957C10.8731 45.2987 11.1397 45.3679 11.3611 45.4668C12.2531 45.864 12.277 47.2073 11.6597 47.8336C11.373 48.1264 10.9971 48.2687 10.6211 48.2687Z" fill="#CB9341"/>
<path d="M15.0438 49.6255C14.2758 49.2283 14.0091 48.2998 14.2238 47.4404C14.3505 46.9348 14.7278 46.7084 15.1278 46.7084C15.4664 46.7084 15.8211 46.8711 16.0545 47.1612C15.6438 47.965 15.3025 48.7918 15.0438 49.6255Z" fill="#CB9341"/>
<path d="M53.2411 40.2562C52.5598 39.7126 51.8251 39.207 51.0571 38.7461C51.0558 38.6715 51.0558 38.597 51.0585 38.5197C51.0745 37.9965 51.5251 37.556 52.0118 37.556C52.1638 37.556 52.3211 37.5993 52.4691 37.6969C52.9011 37.9829 53.1998 38.2839 53.4065 38.7692C53.6251 39.2856 53.5825 39.8753 53.2411 40.2562Z" fill="#CB9341"/>
<path d="M56.1957 40.4297C54.9077 40.4297 54.9077 38.3978 56.1957 38.3978C57.4864 38.3978 57.4864 40.4297 56.1957 40.4297Z" fill="#CB9341"/>
<path d="M88.2184 43.8984C87.6931 43.1841 87.1091 42.5104 86.4824 41.8963C86.5464 41.7879 86.6211 41.6822 86.6997 41.5805C86.8304 41.4124 87.0517 41.3325 87.2731 41.3325C87.5037 41.3325 87.7344 41.4179 87.8704 41.5805C88.0144 41.7513 88.2024 41.8692 88.3677 42.0197C88.9291 42.5294 88.7878 43.4728 88.2184 43.8984Z" fill="#CB9341"/>
<path d="M91.5998 43.1692C91.1811 43.1692 90.7491 42.9238 90.5504 42.4237C90.3264 41.857 90.4838 41.1698 90.9171 40.7428C91.0584 40.6045 91.2251 40.5408 91.3984 40.5408C91.5224 40.5408 91.6478 40.5734 91.7691 40.6317C92.3238 40.9014 92.6398 41.5358 92.6064 42.1403C92.5704 42.8222 92.0958 43.1692 91.5998 43.1692Z" fill="#CB9341"/>
<path d="M96.0465 41.5873C95.8985 41.5873 95.7518 41.5276 95.6304 41.3853C95.3264 41.0288 95.2705 40.6926 95.1771 40.2399C95.0451 39.6096 95.4864 39.2531 95.9344 39.2531C96.3038 39.2531 96.6785 39.4957 96.7425 40.0257C96.7878 40.4053 96.8638 40.7279 96.7185 41.0925C96.6091 41.369 96.3278 41.5873 96.0465 41.5873Z" fill="#CB9341"/>
<path d="M99.6251 39.1799C99.4558 39.1799 99.2798 39.1229 99.1118 38.9928C98.2038 38.7813 98.3704 37.3486 99.1957 37.1086C99.3277 37.0707 99.4451 37.053 99.5571 37.053C99.7678 37.053 99.9584 37.1141 100.188 37.2157C101.242 37.6861 100.502 39.1799 99.6251 39.1799Z" fill="#CB9341"/>
<path d="M3.30379 28.2003C2.91179 28.2003 2.52512 28.0159 2.33446 27.6296C2.21046 27.3774 2.12113 27.1402 2.07446 26.9071C2.4958 26.2253 2.94247 25.58 3.4158 24.9687C3.42914 24.9687 3.44248 24.9687 3.45448 24.9687C4.14381 24.9687 4.83046 25.4824 4.83846 26.3229C4.84379 26.9898 4.6078 27.414 4.1478 27.8668C3.92514 28.0864 3.61179 28.2003 3.30379 28.2003Z" fill="#D5A251"/>
<path d="M2.07445 26.9071C1.99178 26.4869 2.05179 26.0816 2.31712 25.6288C2.57712 25.1856 2.99445 24.9809 3.41579 24.9687C2.94245 25.58 2.49578 26.2253 2.07445 26.9071Z" fill="#DFB361"/>
<path d="M7.10373 26.3309C7.1024 26.3309 7.09973 26.3309 7.09706 26.3309C5.18373 26.3241 5.40106 23.4707 5.99439 22.206C6.36239 21.8807 6.7424 21.5676 7.1344 21.2694C7.22773 21.2517 7.32241 21.2436 7.41841 21.2436C8.11308 21.2436 8.81973 21.6909 9.06506 22.45C9.51973 23.8597 8.87973 26.3309 7.10373 26.3309Z" fill="#D5A251"/>
<path d="M5.99438 22.2061C6.01972 22.1519 6.0464 22.1018 6.07306 22.053C6.3264 21.5975 6.71572 21.3454 7.13439 21.2695C6.74239 21.5677 6.36238 21.8808 5.99438 22.2061Z" fill="#DFB361"/>
<path d="M11.8731 24.4454C11.2704 24.4454 10.7277 23.6863 10.6344 23.1604C10.4491 22.1411 10.5891 21.3156 11.2878 20.5253C11.5864 20.1864 12.0051 20.0346 12.4317 20.0346C12.6917 20.0346 12.9531 20.0902 13.1918 20.1946C12.8131 21.4755 12.6904 22.8405 12.8198 24.1581C12.5904 24.2882 12.3411 24.3641 12.0184 24.4305C11.9691 24.4414 11.9211 24.4454 11.8731 24.4454Z" fill="#D5A251"/>
<path d="M45.4411 21.1556C44.3918 20.5416 43.4331 19.8096 42.4758 19.0777C43.4518 19.3027 44.4304 19.4938 45.4091 19.6402C45.5544 20.1011 45.5838 20.5999 45.4571 21.096C45.4518 21.1163 45.4464 21.1367 45.4411 21.1556Z" fill="#D5A251"/>
<path d="M45.4091 19.6401C44.4305 19.4937 43.4518 19.3026 42.4758 19.0775C42.3305 18.9664 42.1851 18.8552 42.0398 18.7441C42.0905 18.6506 42.1465 18.5638 42.2065 18.4811C42.5105 18.069 42.9891 17.7532 43.4851 17.7532C43.7078 17.7532 43.9331 17.8156 44.1478 17.9633C44.7331 18.3646 45.1958 18.9637 45.4091 19.6401Z" fill="#DFB361"/>
<path d="M49.2931 22.0204C48.4757 22.0204 47.9838 21.3738 47.9051 20.6093C47.8798 20.3612 47.8811 20.1267 47.9131 19.9031C48.3718 19.9288 48.8291 19.9424 49.2878 19.9424C49.7064 19.9424 50.1238 19.9315 50.5424 19.9071C50.5758 20.0142 50.6051 20.124 50.6304 20.2352C50.8317 21.123 50.2237 22.0204 49.2931 22.0204Z" fill="#D5A251"/>
<path d="M49.2878 19.9424C48.8291 19.9424 48.3718 19.9288 47.9131 19.9031C47.9704 19.5086 48.1251 19.1481 48.3997 18.8105C48.5664 18.6045 48.8357 18.5083 49.1037 18.5083C49.2931 18.5083 49.4797 18.5557 49.6304 18.6492C50.1051 18.9407 50.3784 19.3907 50.5424 19.9071C50.1237 19.9315 49.7064 19.9424 49.2878 19.9424Z" fill="#DFB361"/>
<path d="M54.6771 22.1396C53.4824 22.1396 52.5318 20.8221 52.6518 19.6699C53.0451 19.6035 53.4384 19.5249 53.8304 19.4313C54.4264 19.289 55.0038 19.144 55.5691 18.9935C55.9024 19.3392 56.1598 19.7499 56.2864 20.1145C56.6438 21.1474 55.7251 22.0814 54.7704 22.1369C54.7384 22.1396 54.7078 22.1396 54.6771 22.1396Z" fill="#D5A251"/>
<path d="M52.6518 19.6699C52.6945 19.2564 52.8758 18.8647 53.2318 18.5624C53.5051 18.3306 53.7958 18.233 54.0878 18.233C54.6211 18.233 55.1531 18.561 55.5691 18.9935C55.0038 19.1439 54.4264 19.289 53.8304 19.4313C53.4384 19.5248 53.0451 19.6034 52.6518 19.6699Z" fill="#DFB361"/>
<path d="M60.1198 19.8637C59.1465 19.8637 58.5118 19.1005 58.2145 18.2276C59.2505 17.9023 60.2331 17.5634 61.1678 17.215C61.3731 17.4387 61.5305 17.7125 61.6225 18.0514C61.8785 18.9989 61.1678 19.7864 60.2691 19.8569C60.2185 19.861 60.1691 19.8637 60.1198 19.8637Z" fill="#D5A251"/>
<path d="M58.2145 18.2277C58.1211 17.9539 58.0611 17.6665 58.0345 17.39C57.9731 16.7407 58.5878 16.288 59.1678 16.288C59.2531 16.288 59.3371 16.2975 59.4198 16.3178C60.0771 16.4818 60.7291 16.7339 61.1678 17.2152C60.2331 17.5635 59.2505 17.9024 58.2145 18.2277Z" fill="#DFB361"/>
<path d="M63.9958 19.5046C62.8158 19.5046 61.9984 18.225 61.7438 16.9955C62.7158 16.62 63.6318 16.2324 64.5038 15.8393C65.0678 16.2242 65.6611 16.6255 65.7744 17.3656C65.9184 18.3104 65.5464 19.0396 64.6504 19.3785C64.4224 19.4653 64.2024 19.5046 63.9958 19.5046Z" fill="#D5A251"/>
<path d="M61.7438 16.9955C61.6571 16.5712 61.6371 16.1551 61.6918 15.7972C61.7718 15.2713 62.3025 14.992 62.7838 14.992C62.8705 14.992 62.9558 15.0015 63.0358 15.0192C63.5851 15.1452 64.0331 15.518 64.4918 15.8325C64.4958 15.8352 64.4998 15.8365 64.5038 15.8392C63.6318 16.2323 62.7158 16.62 61.7438 16.9955Z" fill="#DFB361"/>
<path d="M67.2104 17.3832C66.8291 17.1094 66.5384 16.7122 66.4317 16.2201C66.3491 15.8338 66.2664 15.438 66.1677 15.0544C67.3091 14.4918 68.3691 13.9212 69.3651 13.3532C69.5904 13.5254 69.7931 13.7273 69.9717 13.9564C68.7397 14.7806 67.7651 15.9802 67.2104 17.3832Z" fill="#D5A251"/>
<path d="M66.1678 15.0544C66.1478 14.9785 66.1291 14.904 66.1078 14.8308C65.7864 13.6759 66.7051 12.7487 67.7558 12.7487C67.8758 12.7487 67.9984 12.7609 68.1198 12.7853C68.5851 12.8829 69.0038 13.0781 69.3651 13.3533C68.3691 13.9213 67.3091 14.4919 66.1678 15.0544Z" fill="#DFB361"/>
<path d="M72.1038 12.9885C72.0971 12.8123 72.0851 12.6402 72.0638 12.4788C71.9758 11.8146 72.5571 11.4921 73.1064 11.4921C73.2798 11.4921 73.4491 11.5246 73.5931 11.5869C74.2478 11.8716 74.8798 12.3447 75.3704 12.9275C74.8824 12.8164 74.3784 12.7595 73.8624 12.7595C73.2571 12.7595 72.6678 12.8394 72.1038 12.9885Z" fill="#D5A251"/>
<path d="M80.1024 16.5142C79.3304 15.1235 78.1225 14.0052 76.6771 13.3613C76.7958 12.8245 77.0891 12.3813 77.4385 11.9231C77.7625 11.4975 78.2531 11.3104 78.7598 11.3104C79.6731 11.3104 80.6411 11.915 80.8078 12.8272C80.9278 13.4901 80.9238 14.0201 80.7385 14.6735C80.6491 14.9852 80.5318 15.2888 80.4571 15.6047C80.3878 15.892 80.2691 16.2174 80.1024 16.5142Z" fill="#D5A251"/>
<path d="M101.137 21.9865C101.012 20.8126 100.745 19.6686 100.348 18.5787C100.409 18.5706 100.47 18.5665 100.53 18.5665C101.357 18.5665 101.945 19.3676 102.048 20.1796C102.141 20.9197 101.732 21.6056 101.137 21.9865Z" fill="#D5A251"/>
<path d="M6.7691 20.711C6.49177 20.711 6.2171 20.5958 6.0011 20.3206C5.69843 19.9329 5.56776 19.6483 5.53043 19.1508C5.4771 18.4107 6.0851 17.9891 6.6971 17.9891C7.09443 17.9891 7.49311 18.1653 7.71445 18.5489L7.89179 18.8363C8.44913 19.6971 7.59444 20.711 6.7691 20.711Z" fill="#DFB361"/>
<path d="M10.2331 18.2792C9.83576 18.2792 9.42375 18.1071 9.19308 17.7628C8.80508 17.1881 8.81842 16.5469 8.89842 15.884C8.96242 15.3418 9.36511 15.0097 9.78778 15.0097C10.0531 15.0097 10.3264 15.1412 10.5278 15.434C10.9251 16.0101 11.2158 16.4669 11.2878 17.1867C11.3611 17.9146 10.8118 18.2792 10.2331 18.2792Z" fill="#DFB361"/>
<path d="M13.5744 16.4818C12.6784 16.4818 12.0158 15.7105 11.9251 14.7846C11.8704 14.2207 11.9598 13.7761 12.2024 13.2678C12.4011 12.8557 12.8611 12.6307 13.3091 12.6307C13.5344 12.6307 13.7558 12.6877 13.9411 12.8056C14.2944 13.0293 14.5158 13.2583 14.7691 13.5864C15.5171 14.5529 15.3518 16.0493 14.0331 16.4167C13.8758 16.4614 13.7224 16.4818 13.5744 16.4818Z" fill="#DFB361"/>
<path d="M17.9518 14.8091C17.0118 14.66 16.2651 13.4183 16.3424 12.4058C16.4144 11.4542 17.0717 10.6544 18.0637 10.6544C18.9797 10.6544 19.8158 11.4515 19.7864 12.4058C19.7638 13.1093 19.6197 13.9646 19.0611 14.4458C19.0504 14.4553 19.0397 14.4648 19.0291 14.4729C18.8691 14.5149 18.7118 14.5583 18.5544 14.6044C18.3478 14.6668 18.1464 14.7345 17.9518 14.8091Z" fill="#DFB361"/>
<path d="M21.8718 13.8032C21.1611 13.8032 20.4691 13.2285 20.5078 12.4518C20.5438 11.7022 20.7131 10.9526 21.2624 10.4131C21.5358 10.1474 21.9451 9.99967 22.3464 9.99967C22.8371 9.99967 23.3158 10.2193 23.5264 10.71C24.0558 11.9543 23.5771 13.3939 22.1998 13.7612C22.0918 13.7897 21.9811 13.8032 21.8718 13.8032Z" fill="#DFB361"/>
<path d="M26.3797 13.379C26.1291 13.379 25.8851 13.2407 25.7131 13.0076C25.1624 12.2539 25.4171 11.0543 25.9424 10.3602C26.1877 10.0376 26.5344 9.88987 26.8677 9.88987C27.4717 9.88987 28.0291 10.3751 27.8384 11.1735C27.6771 11.8513 27.4038 12.6741 26.8904 13.1607C26.7331 13.3112 26.5557 13.379 26.3797 13.379Z" fill="#DFB361"/>
<path d="M30.2705 14.1097C29.7518 14.1097 29.2265 13.7098 29.0878 13.2042C28.6811 11.7267 29.0025 10.1299 30.3985 9.23796C30.6838 9.05496 30.9838 8.97364 31.2731 8.97364C32.3585 8.97364 33.3198 10.1041 33.0145 11.2821C32.6905 12.5359 31.6985 13.2869 30.8318 13.9267C30.6598 14.0541 30.4651 14.1097 30.2705 14.1097Z" fill="#DFB361"/>
<path d="M35.9371 14.2546C35.5251 14.2546 35.1264 13.9984 35.0131 13.5524C34.7398 12.4775 34.7011 11.4473 35.5264 10.5933C35.8224 10.2856 36.1918 10.1487 36.5584 10.1487C37.3411 10.1487 38.1078 10.775 38.1118 11.6818C38.1184 12.8706 37.3651 13.6026 36.4131 14.1312C36.2624 14.2153 36.0984 14.2546 35.9371 14.2546Z" fill="#DFB361"/>
<path d="M39.6384 14.9419C39.4704 14.9419 39.2997 14.9175 39.1291 14.8646C38.4731 14.6586 38.1317 13.81 38.3757 13.1634C38.6864 12.3406 39.2171 11.7361 40.1291 11.7361C40.1531 11.7361 40.1784 11.7361 40.2024 11.7374C41.0584 11.7673 41.7824 12.6009 41.5118 13.4847C41.2611 14.3089 40.4864 14.9419 39.6384 14.9419Z" fill="#DFB361"/>
<path d="M44.273 16.3421C43.8957 16.3421 43.5344 16.1767 43.2704 15.7701C43.0384 15.4149 43.2184 14.9134 43.3277 14.5528C43.5064 13.9686 44.0331 13.5891 44.5904 13.5891C44.8037 13.5891 45.0224 13.6446 45.2277 13.768C45.905 14.1706 46.1317 15.274 45.4891 15.8311C45.1357 16.1374 44.6944 16.3421 44.273 16.3421Z" fill="#DFB361"/>
<path d="M48.3611 17.7939C48.1358 17.7939 47.9038 17.7397 47.6838 17.6204L47.5545 17.5513C47.1105 17.3141 46.7971 16.639 46.9905 16.1429L47.0411 16.0155C47.2758 15.4191 47.7145 14.9731 48.3891 14.9731C49.0105 14.9731 49.5731 15.4069 49.7371 16.0155C50.0038 17.0023 49.2264 17.7939 48.3611 17.7939Z" fill="#DFB361"/>
<path d="M51.7504 16.5021C51.5051 16.5021 51.2718 16.376 51.1411 16.0683C50.9451 15.6102 50.8891 15.2591 51.0277 14.7711C51.1304 14.4037 51.4224 14.2262 51.7251 14.2262C51.9758 14.2262 52.2344 14.3481 52.3984 14.5881C52.6224 14.9175 52.7238 15.2414 52.6918 15.6413C52.6531 16.1144 52.1811 16.5021 51.7504 16.5021Z" fill="#DFB361"/>
<path d="M55.2358 15.8461C55.0958 15.8461 54.9438 15.8054 54.7838 15.7132C53.9971 15.2564 53.7998 14.5312 53.9185 13.6623C53.9585 13.3723 54.2131 13.2286 54.4731 13.2286C54.6864 13.2286 54.9024 13.3248 55.0038 13.5187C55.1491 13.7979 55.3944 14.0324 55.6398 14.2249C56.3411 14.7752 55.9558 15.8461 55.2358 15.8461Z" fill="#DFB361"/>
<path d="M58.3305 14.5678C58.1678 14.5678 57.9971 14.5326 57.8238 14.4512C57.2411 14.1788 57.0705 13.6095 57.0091 13.0076C56.9505 12.4505 57.5011 12.033 58.0158 12.033C58.2505 12.033 58.4771 12.1197 58.6358 12.3217C58.7705 12.4939 58.9598 12.5955 59.1051 12.7623C59.7958 13.5579 59.1865 14.5692 58.3305 14.5678Z" fill="#DFB361"/>
<path d="M61.7931 13.4265C60.7478 13.4265 60.1011 12.3637 60.1451 11.2996C60.1718 10.7045 60.7278 10.1041 61.3158 10.1041C61.4998 10.1041 61.6878 10.1637 61.8624 10.2993C62.1171 10.4958 62.2024 10.4484 62.5304 10.672C62.9091 10.9323 63.0864 11.2292 63.2358 11.6629C63.4798 12.3786 62.9638 13.1513 62.2931 13.3505C62.1171 13.4034 61.9504 13.4265 61.7931 13.4265Z" fill="#DFB361"/>
<path d="M65.9438 11.1667C65.3998 11.1667 64.8984 10.7831 64.7051 10.2178C64.5224 9.6824 64.6758 9.24594 64.8518 8.74304C64.9878 8.35536 65.3064 8.15066 65.6331 8.15066C65.8917 8.15066 66.1558 8.2781 66.3371 8.54514C66.4211 8.6712 66.6984 8.7986 66.8251 8.96397C67.3251 9.60513 67.3357 10.5323 66.5691 10.9891C66.3637 11.1111 66.1518 11.1667 65.9438 11.1667Z" fill="#DFB361"/>
<path d="M70.1078 9.56731C69.8638 9.56731 69.6198 9.47921 69.4624 9.30706C68.9144 8.70793 68.5851 7.85665 68.3184 7.09214C67.9891 6.14327 68.8438 5.15649 69.7678 5.15649C70.5824 5.15649 71.2811 5.85319 71.2718 6.68548C71.2638 7.5015 71.1864 8.37581 70.8624 9.12406C70.7318 9.42227 70.4198 9.56867 70.1078 9.56731Z" fill="#DFB361"/>
<path d="M73.6451 8.33917C73.4105 8.33917 73.1678 8.27816 72.9265 8.15752C71.5891 7.4879 71.5225 5.51699 72.1065 4.34447C72.4318 3.69111 73.0065 3.4105 73.5958 3.4105C74.5651 3.4105 75.5745 4.17365 75.5798 5.30144C75.5825 6.17303 75.2731 7.35642 74.6318 7.93387C74.3305 8.20498 73.9945 8.33917 73.6451 8.33917Z" fill="#DFB361"/>
<path d="M77.9985 7.5191C77.5825 7.5191 77.1731 7.36185 76.8611 6.9945C76.0291 6.01446 75.5491 4.52204 76.0318 3.26954C76.2238 2.76529 76.6678 2.40203 77.1625 2.40203C77.3478 2.40203 77.5398 2.45218 77.7291 2.56604C78.7105 3.15704 79.3878 4.19672 79.7705 5.27165C80.1958 6.46315 79.0758 7.5191 77.9985 7.5191Z" fill="#DFB361"/>
<path d="M82.1718 7.17065C81.8144 7.17065 81.5517 6.97818 81.3597 6.70572C81.9597 6.50917 82.5744 6.3465 83.2091 6.22179C83.3304 6.19739 83.4518 6.17571 83.5731 6.15537C83.3011 6.70842 82.9797 7.08525 82.2957 7.16251C82.2531 7.16794 82.2118 7.17065 82.1718 7.17065Z" fill="#D5A251"/>
<path d="M81.3597 6.70575C81.0917 6.32078 80.9624 5.77585 80.9064 5.37191C80.7637 4.35663 80.9424 3.46063 81.5971 2.66223C81.8557 2.34911 82.2624 2.20408 82.6677 2.20408C82.9571 2.20408 83.2437 2.27726 83.4771 2.41552C83.9864 2.71915 84.1891 3.20715 84.2464 3.77782C84.3238 4.54098 83.9744 5.27703 83.6677 5.95343C83.6371 6.02392 83.6051 6.09169 83.5731 6.1554C83.4517 6.17573 83.3304 6.19742 83.2091 6.22182C82.5744 6.34653 81.9597 6.5092 81.3597 6.70575Z" fill="#DFB361"/>
<path d="M86.3984 7.55969C85.6038 7.55969 84.8105 7.04594 84.5838 6.19196C84.5705 6.14181 84.5571 6.093 84.5464 6.04284C84.8304 6.02251 85.1144 6.01167 85.3984 6.01167C86.3331 6.01167 87.2718 6.12011 88.2051 6.31937C88.0518 6.56743 87.8718 6.8006 87.6651 7.01884C87.3131 7.39025 86.8558 7.55969 86.3984 7.55969Z" fill="#D5A251"/>
<path d="M88.2051 6.31946C87.2718 6.1202 86.3331 6.01175 85.3984 6.01175C85.1144 6.01175 84.8304 6.02259 84.5464 6.04293C84.2451 4.68877 84.8011 3.47695 85.8984 2.67313C86.1838 2.46302 86.4998 2.37221 86.8171 2.37221C87.8225 2.37221 88.8238 3.30344 88.7931 4.36074C88.7731 5.07646 88.5651 5.73659 88.2051 6.31946Z" fill="#DFB361"/>
<path d="M90.4624 8.71472C90.0251 8.71472 89.5224 8.42599 89.3291 8.02611C89.1038 7.5571 89.0651 7.04741 89.1624 6.55536C90.2384 6.85493 91.2998 7.26971 92.3304 7.77125C91.7891 8.24026 91.2478 8.67812 90.5091 8.71336C90.4931 8.71472 90.4784 8.71472 90.4624 8.71472Z" fill="#D5A251"/>
<path d="M92.3304 7.77118C91.2997 7.26964 90.2384 6.85485 89.1624 6.55528C89.2664 6.02799 89.5264 5.52239 89.8771 5.11031C90.4731 4.41222 91.0251 3.95134 91.8744 3.95134C92.0238 3.95134 92.1811 3.96491 92.3504 3.99473C92.8398 4.08148 93.3944 4.63045 93.4718 5.1347C93.6344 6.2015 93.2078 7.00669 92.4198 7.69394C92.3891 7.71969 92.3597 7.74542 92.3304 7.77118Z" fill="#DFB361"/>
<path d="M95.0491 11.2183C94.6171 11.2183 94.1825 11.0502 93.8051 10.668C93.1611 10.0119 93.1385 9.13488 93.5238 8.39748C94.6038 9.00747 95.6398 9.70419 96.6065 10.4565C96.1851 10.9269 95.6198 11.2183 95.0491 11.2183Z" fill="#D5A251"/>
<path d="M96.6065 10.4565C95.6398 9.70417 94.6038 9.00744 93.5238 8.39746C93.6011 8.24971 93.6958 8.106 93.8051 7.97181C94.2958 7.3686 94.8451 6.93755 95.5651 6.65154C95.9891 6.48345 96.4478 6.44956 96.8491 6.27877C96.9491 6.23539 97.0505 6.21642 97.1518 6.21642C97.7798 6.21642 98.3531 6.97553 98.1371 7.58822C97.9718 8.05587 97.8691 8.57366 97.6278 9.06165C97.4638 9.39104 97.2665 9.72723 97.0198 9.99833C97.0211 9.99562 97.0225 9.99426 97.0225 9.99426C97.0238 9.99426 96.9518 10.0783 96.8771 10.161C96.8025 10.2437 96.7265 10.3277 96.7198 10.3277C96.7171 10.3277 96.7251 10.3141 96.7505 10.2816C96.7038 10.3413 96.6558 10.4009 96.6065 10.4565Z" fill="#DFB361"/>
<path d="M100.368 12.2444C99.9611 12.2444 99.5571 12.0939 99.1918 11.7428C98.7318 11.3023 98.8011 10.5988 99.1918 10.1488C99.4784 9.8153 99.8344 9.66485 100.212 9.48999C100.441 9.38426 100.684 9.3273 100.92 9.3273C101.364 9.3273 101.782 9.52928 102.041 9.97796C102.326 10.4727 102.285 11.2345 101.832 11.6263C101.389 12.0072 100.877 12.2457 100.368 12.2444Z" fill="#DFB361"/>
<path d="M43.0597 31.2339C42.5771 31.2339 42.0704 31.1593 41.5451 30.998C40.6131 30.712 39.6877 30.487 38.7691 30.3148C38.8917 30.1644 38.9891 29.98 39.0491 29.7577C39.2678 28.9539 39.3077 28.1433 39.2677 27.3124C39.2277 26.4245 39.1531 25.3781 38.6518 24.6407C38.2451 24.0442 37.6038 23.7406 36.9798 23.7406C36.2264 23.7406 35.4998 24.1838 35.2451 25.0934C34.8344 26.556 35.5131 28.6855 36.3291 29.976C35.3451 29.8838 34.3691 29.8431 33.3957 29.8431C33.3144 29.8431 33.2331 29.8445 33.1518 29.8445C33.5478 28.8672 33.5024 27.6946 33.4838 26.659C33.4611 25.3577 32.4371 24.7112 31.4344 24.7112C30.4277 24.7112 29.4438 25.3631 29.5158 26.659C29.5704 27.6499 29.7557 28.6137 30.0277 29.5666C30.0651 29.6954 30.1064 29.835 30.1544 29.9773C29.5251 30.0248 28.8984 30.0858 28.2704 30.1535C28.5557 29.2752 28.5718 28.2206 28.4798 27.4479C28.3624 26.4394 27.8917 25.5719 26.8597 25.2832C26.6824 25.233 26.4984 25.21 26.3104 25.21C25.3451 25.21 24.3238 25.8416 24.1411 26.8515C23.9758 27.7583 24.0384 28.8251 24.3198 29.7076C24.4184 30.0139 24.5077 30.327 24.6397 30.6158C23.9544 30.7106 23.2678 30.8083 22.5798 30.9045C22.6918 30.5602 22.7864 30.2132 22.8717 29.8811C23.1144 28.939 23.4024 28.0023 23.0411 27.0481C22.8104 26.4381 22.4384 25.9569 21.7904 25.7752C21.6451 25.7359 21.4904 25.7156 21.3331 25.7156C20.7064 25.7156 20.0357 26.03 19.7664 26.6129C19.1877 27.8668 19.1131 29.7726 19.6758 31.219C18.7478 31.2163 17.9091 31.0482 17.1624 30.7459C17.1824 30.7201 17.1944 30.7039 17.1944 30.7039C17.3851 30.4613 17.5637 30.2281 17.7051 29.9461C18.1291 29.1084 18.0638 28.1135 17.3851 27.4249C16.9931 27.0263 16.4584 26.8217 15.9251 26.8217C15.3984 26.8217 14.8758 27.0196 14.4904 27.4249C14.3131 27.6119 14.1664 27.8058 14.0451 28.0091C13.3664 26.8813 12.9544 25.5461 12.8198 24.1581C13.0011 24.0551 13.1704 23.9182 13.3544 23.723C13.9024 23.1428 14.1024 22.526 14.1824 21.7439C14.2571 21.0133 13.7944 20.4535 13.1918 20.1946C13.4678 19.2647 13.8797 18.3795 14.4291 17.5893C17.0891 16.7448 20.1011 16.1809 23.5104 15.8528C24.2731 15.7783 25.0504 15.7444 25.8357 15.7444C29.5997 15.7444 33.5517 16.5347 37.0984 17.5811C37.0251 17.7031 36.9731 17.8481 36.9544 18.0122C36.9011 18.4649 36.7504 18.8716 36.7518 19.346C36.7518 20.101 36.9771 20.7246 37.4664 21.2885C37.7624 21.6314 38.1918 21.7656 38.6211 21.7656C38.7718 21.7656 38.9224 21.7493 39.0677 21.7195L39.1491 21.7019C39.6411 21.6002 40.0811 21.1231 40.1957 20.6378C40.4691 19.4938 39.7517 18.8783 39.0984 18.183C40.0411 18.4595 40.9891 18.7198 41.9397 18.9502C41.5877 19.7567 41.5798 20.8317 42.0464 21.5501C42.4358 22.1492 43.0838 22.4542 43.7158 22.4542C44.4651 22.4542 45.1904 22.0272 45.4411 21.1556C45.4904 21.1854 45.5411 21.2139 45.5904 21.2424C47.4718 22.3146 48.2091 24.1242 48.1118 25.9108C47.9918 25.8349 47.8584 25.7739 47.7091 25.7318C47.5838 25.6966 47.4544 25.6803 47.3264 25.6803C46.6651 25.6803 46.0078 26.1222 45.8518 26.8041C45.6464 27.7055 45.8104 28.9919 46.5744 29.6168C45.6917 30.5914 44.4784 31.2339 43.0597 31.2339ZM42.8051 24.7274C42.2744 24.7274 41.7598 24.9714 41.5251 25.5095C41.1571 26.3567 41.1744 27.0467 41.3384 27.9413C41.4064 28.3087 41.5184 28.6354 41.7091 28.9553C41.8798 29.2386 42.2758 29.4229 42.4158 29.6452C42.5678 29.8892 42.8078 30.0004 43.0451 30.0004C43.4144 30.0004 43.7758 29.7293 43.7838 29.2684L43.9851 28.9553C44.1864 28.6706 44.2157 28.2721 44.2717 27.9413C44.3931 27.2216 44.5344 26.6197 44.3904 25.8904C44.2451 25.1571 43.5104 24.7274 42.8051 24.7274ZM18.7464 17.2951C18.2091 17.2951 17.6704 17.4889 17.3291 17.9037C16.6317 18.7523 16.2984 19.8719 16.3637 20.9875C16.4291 22.1302 16.8024 23.3407 18.1051 23.4505C18.1531 23.4546 18.2011 23.4573 18.2491 23.4573C19.9544 23.4573 20.8917 20.8235 20.8344 19.3799C20.8051 18.6357 20.4624 17.9607 19.8171 17.5771C19.5091 17.3927 19.1278 17.2951 18.7464 17.2951ZM21.9198 19.8882C21.8251 20.6093 21.8104 21.1678 21.9571 21.893C22.0944 22.5599 22.7171 22.8975 23.3277 22.8975C23.4344 22.8975 23.5411 22.8866 23.6438 22.8663C25.4811 22.4989 26.1131 20.1471 25.8571 18.5178C25.7571 17.8834 25.1224 17.3439 24.5451 17.184C24.3824 17.1392 24.2118 17.1325 24.0451 17.1162C24.0064 17.1121 23.9677 17.1108 23.9304 17.1108C23.3184 17.1108 22.7264 17.5567 22.4224 18.0623C22.2358 18.3741 22.1304 18.7089 22.0331 19.0573C21.9851 19.2958 21.9491 19.5371 21.9264 19.7811C21.9131 19.9085 21.9064 19.9722 21.9078 19.9722C21.9091 19.9722 21.9131 19.9438 21.9198 19.8882ZM33.5091 16.776C33.3278 16.776 33.1424 16.8207 32.9984 16.9196C31.5971 17.882 31.8464 19.8245 32.5277 21.1895C32.8437 21.8212 33.3971 22.0896 33.9651 22.0896C35.0704 22.0896 36.2344 21.0783 35.8291 19.7743C35.6131 19.0803 35.3171 18.328 34.9438 17.7058C34.7144 17.3222 34.3638 17.0105 33.9411 16.8749C34.0131 16.9074 34.0478 16.9237 34.0464 16.9237C34.0451 16.9237 33.9597 16.8871 33.7931 16.8139C33.7037 16.7895 33.6078 16.776 33.5091 16.776ZM28.7158 16.4587C28.6998 16.4587 28.6824 16.4587 28.6664 16.4587C27.2944 16.5048 26.5224 17.6774 26.6744 18.9976C26.7851 19.9533 27.2451 20.5443 27.9664 21.1095H28.3291C28.8744 20.8452 29.1997 20.4453 29.5624 19.9668C29.9264 19.4843 30.5464 18.6032 30.2238 17.6651C29.9958 17.0009 29.4424 16.4587 28.7158 16.4587Z" fill="#E8C474"/>
<path d="M41.9398 18.9502C40.9891 18.7198 40.0411 18.4595 39.0984 18.183C38.9144 17.9878 38.7358 17.7858 38.5864 17.5635C38.3851 17.268 38.1144 17.1365 37.8491 17.1365C37.5544 17.1365 37.2677 17.2992 37.0984 17.5811C33.5517 16.5347 29.5997 15.7444 25.8357 15.7444C25.0504 15.7444 24.2731 15.7783 23.5104 15.8528C20.1011 16.1809 17.0891 16.7448 14.4291 17.5893C15.2731 16.3788 16.4438 15.3906 17.9518 14.8091C18.0144 14.8199 18.0771 14.8253 18.1411 14.8253C18.4291 14.8253 18.7304 14.7196 19.0291 14.4729C20.6277 14.0595 22.3398 13.909 24.0718 13.909C26.4451 13.909 28.8544 14.191 31.0597 14.4607C33.6891 14.782 36.0118 15.2645 38.4398 16.414C39.7504 17.0335 40.9024 17.8766 42.0398 18.7442C42.0038 18.8106 41.9704 18.8797 41.9398 18.9502Z" fill="#EED083"/>
<path d="M17.1624 30.7458C15.8211 30.2022 14.7784 29.2263 14.0451 28.009C14.1664 27.8057 14.3131 27.6118 14.4904 27.4248C14.8758 27.0195 15.3985 26.8216 15.9251 26.8216C16.4585 26.8216 16.9931 27.0262 17.3851 27.4248C18.0638 28.1134 18.1291 29.1083 17.7051 29.946C17.5638 30.228 17.3851 30.4612 17.1944 30.7038C17.1944 30.7038 17.1824 30.72 17.1624 30.7458Z" fill="#E4BC6B"/>
<path d="M19.6918 31.2189C19.6865 31.2189 19.6811 31.2189 19.6758 31.2189C19.1131 29.7725 19.1878 27.8667 19.7665 26.6128C20.0358 26.03 20.7065 25.7155 21.3331 25.7155C21.4905 25.7155 21.6452 25.7358 21.7905 25.7751C22.4385 25.9568 22.8105 26.438 23.0411 27.048C23.4025 28.0023 23.1145 28.9389 22.8718 29.881C22.7865 30.2131 22.6918 30.5601 22.5798 30.9044C21.9745 30.9885 21.3665 31.0712 20.7572 31.1484C20.3905 31.1959 20.0345 31.2189 19.6918 31.2189Z" fill="#E4BC6B"/>
<path d="M24.6398 30.6157C24.5078 30.327 24.4184 30.0139 24.3198 29.7075C24.0384 28.8251 23.9758 27.7583 24.1411 26.8514C24.3238 25.8416 25.3451 25.2099 26.3104 25.2099C26.4984 25.2099 26.6824 25.233 26.8597 25.2831C27.8917 25.5719 28.3624 26.4394 28.4798 27.4479C28.5718 28.2205 28.5557 29.2751 28.2704 30.1535C27.0597 30.285 25.8504 30.4476 24.6398 30.6157Z" fill="#E4BC6B"/>
<path d="M30.1545 29.9772C30.1065 29.8349 30.0651 29.6953 30.0278 29.5665C29.7558 28.6136 29.5705 27.6498 29.5158 26.6589C29.4438 25.3631 30.4278 24.7111 31.4345 24.7111C32.4371 24.7111 33.4611 25.3576 33.4838 26.6589C33.5025 27.6945 33.5478 28.8671 33.1518 29.8444C32.1491 29.8512 31.1505 29.9 30.1545 29.9772Z" fill="#E4BC6B"/>
<path d="M38.7691 30.3148C37.9505 30.163 37.1371 30.0518 36.3291 29.9759C35.5131 28.6855 34.8345 26.556 35.2451 25.0934C35.4998 24.1838 36.2265 23.7406 36.9798 23.7406C37.6038 23.7406 38.2451 24.0442 38.6518 24.6406C39.1531 25.378 39.2278 26.4245 39.2678 27.3124C39.3078 28.1433 39.2678 28.9539 39.0491 29.7577C38.9891 29.98 38.8918 30.1644 38.7691 30.3148Z" fill="#E4BC6B"/>
<path d="M43.0451 30.0003C42.8078 30.0003 42.5678 29.8892 42.4158 29.6452C42.2758 29.4229 41.8798 29.2385 41.7091 28.9552C41.5185 28.6353 41.4065 28.3086 41.3385 27.9413C41.1745 27.0466 41.1571 26.3567 41.5251 25.5095C41.7598 24.9714 42.2745 24.7274 42.8051 24.7274C43.5105 24.7274 44.2451 25.1571 44.3905 25.8904C44.5345 26.6197 44.3931 27.2215 44.2718 27.9413C44.2158 28.272 44.1865 28.6705 43.9851 28.9552L43.7838 29.2683C43.7758 29.7292 43.4145 30.0003 43.0451 30.0003Z" fill="#E4BC6B"/>
<path d="M46.5744 29.6167C45.8104 28.9918 45.6465 27.7054 45.8518 26.804C46.0078 26.1222 46.6651 25.6803 47.3264 25.6803C47.4544 25.6803 47.5838 25.6965 47.7091 25.7318C47.8584 25.7738 47.9918 25.8348 48.1118 25.9107C48.0371 27.2716 47.4798 28.6177 46.5744 29.6167Z" fill="#E4BC6B"/>
<path d="M12.8198 24.158C12.6905 22.8405 12.8131 21.4755 13.1918 20.1945C13.7945 20.4534 14.2571 21.0132 14.1825 21.7438C14.1025 22.526 13.9025 23.1427 13.3545 23.7229C13.1705 23.9181 13.0011 24.055 12.8198 24.158Z" fill="#E4BC6B"/>
<path d="M18.2491 23.4572C18.2011 23.4572 18.1531 23.4545 18.1051 23.4504C16.8024 23.3406 16.4291 22.1301 16.3638 20.9874C16.2984 19.8718 16.6318 18.7522 17.3291 17.9036C17.6704 17.4888 18.2091 17.295 18.7464 17.295C19.1278 17.295 19.5091 17.3926 19.8171 17.577C20.4624 17.9606 20.8051 18.6356 20.8344 19.3798C20.8918 20.8234 19.9544 23.4572 18.2491 23.4572Z" fill="#E4BC6B"/>
<path d="M23.3277 22.8974C22.7171 22.8974 22.0944 22.5599 21.9571 21.893C21.8104 21.1678 21.8251 20.6093 21.9197 19.8882C21.9131 19.9437 21.9091 19.9722 21.9077 19.9722C21.9064 19.9722 21.9131 19.9085 21.9264 19.7811C21.9491 19.5371 21.9851 19.2958 22.0331 19.0572C22.1304 18.7088 22.2358 18.374 22.4224 18.0623C22.7264 17.5567 23.3184 17.1107 23.9304 17.1107C23.9677 17.1107 24.0064 17.1121 24.0451 17.1161C24.2117 17.1324 24.3824 17.1392 24.5451 17.1839C25.1224 17.3439 25.7571 17.8833 25.8571 18.5177C26.1131 20.147 25.4811 22.4989 23.6437 22.8662C23.5411 22.8866 23.4344 22.8974 23.3277 22.8974Z" fill="#E4BC6B"/>
<path d="M28.3291 21.1094H27.9664C27.2451 20.5442 26.7851 19.9532 26.6745 18.9975C26.5225 17.6773 27.2944 16.5047 28.6664 16.4586C28.6824 16.4586 28.6998 16.4586 28.7158 16.4586C29.4425 16.4586 29.9958 17.0008 30.2238 17.665C30.5465 18.6031 29.9264 19.4842 29.5624 19.9667C29.1998 20.4452 28.8744 20.8451 28.3291 21.1094Z" fill="#E4BC6B"/>
<path d="M33.9651 22.0895C33.3971 22.0895 32.8438 21.8211 32.5278 21.1894C31.8464 19.8244 31.5971 17.8819 32.9984 16.9195C33.1424 16.8206 33.3278 16.7759 33.5091 16.7759C33.6078 16.7759 33.7038 16.7894 33.7931 16.8138C33.9598 16.887 34.0451 16.9236 34.0464 16.9236C34.0478 16.9236 34.0131 16.9073 33.9411 16.8748C34.3638 17.0104 34.7144 17.3221 34.9438 17.7057C35.3171 18.3279 35.6131 19.0802 35.8291 19.7742C36.2344 21.0783 35.0704 22.0895 33.9651 22.0895Z" fill="#E4BC6B"/>
<path d="M38.6211 21.7656C38.1918 21.7656 37.7624 21.6314 37.4664 21.2885C36.9771 20.7246 36.7518 20.101 36.7518 19.346C36.7504 18.8716 36.9011 18.4649 36.9544 18.0121C36.9731 17.8481 37.0251 17.7031 37.0984 17.5811C37.3318 17.6489 37.5638 17.7194 37.7931 17.7899C38.2278 17.9241 38.6624 18.0555 39.0984 18.1829C39.7518 18.8783 40.4691 19.4937 40.1958 20.6378C40.0811 21.1231 39.6411 21.6002 39.1491 21.7019L39.0678 21.7195C38.9224 21.7493 38.7718 21.7656 38.6211 21.7656Z" fill="#E4BC6B"/>
<path d="M39.0984 18.1829C38.6624 18.0555 38.2277 17.924 37.7931 17.7898C37.5637 17.7193 37.3317 17.6489 37.0984 17.5811C37.2677 17.2991 37.5544 17.1365 37.8491 17.1365C38.1144 17.1365 38.3851 17.2679 38.5864 17.5634C38.7357 17.7857 38.9144 17.9877 39.0984 18.1829Z" fill="#EAC878"/>
<path d="M43.7158 22.4542C43.0838 22.4542 42.4358 22.1492 42.0465 21.5501C41.5798 20.8317 41.5878 19.7568 41.9398 18.9502C42.1184 18.9936 42.2971 19.0356 42.4758 19.0776C43.4331 19.8096 44.3918 20.5416 45.4411 21.1556C45.1904 22.0272 44.4651 22.4542 43.7158 22.4542Z" fill="#E4BC6B"/>
<path d="M42.4758 19.0776C42.2971 19.0356 42.1184 18.9935 41.9398 18.9502C41.9704 18.8797 42.0038 18.8105 42.0398 18.7441C42.1851 18.8553 42.3304 18.9664 42.4758 19.0776Z" fill="#EAC878"/>
<path d="M18.1411 14.8253C18.0771 14.8253 18.0144 14.8199 17.9518 14.8091C18.1464 14.7345 18.3478 14.6667 18.5545 14.6044C18.7118 14.5583 18.8691 14.5149 19.0291 14.4729C18.7304 14.7196 18.4291 14.8253 18.1411 14.8253Z" fill="#EAC878"/>
<path d="M73.8624 27.311C73.8384 27.311 73.8144 27.311 73.7904 27.311C73.9451 26.9315 73.9731 26.5072 73.8104 26.0911C73.3904 25.0175 72.6411 23.8016 72.5531 22.6331C72.5011 21.9405 71.9931 21.5663 71.4771 21.5663C71.0544 21.5663 70.6264 21.8157 70.4344 22.3417C69.9931 23.5549 69.9304 24.806 69.9211 26.0816C69.1198 25.5353 68.4291 24.8291 67.8957 24.0117C67.8211 23.887 67.7437 23.7596 67.6651 23.6349C67.0557 22.5681 66.7051 21.3372 66.7051 20.036C66.7051 19.1034 66.8851 18.2074 67.2104 17.3832C67.5918 17.6557 68.0637 17.8061 68.5331 17.8061C68.7131 17.8061 68.8917 17.7844 69.0651 17.7397C69.2384 17.695 69.4078 17.5947 69.5771 17.5201C70.6838 17.0335 70.8318 15.4936 70.3451 14.5434C70.2371 14.3333 70.1117 14.1368 69.9717 13.9565C70.6197 13.5214 71.3384 13.1906 72.1037 12.9886C72.1597 14.3265 71.9264 16.0155 73.0051 16.8817C73.4224 17.2165 73.9651 17.4185 74.4878 17.4185C75.0958 17.4185 75.6784 17.1446 76.0064 16.4872C76.6277 15.2456 76.2091 13.9253 75.3704 12.9276C75.8224 13.0293 76.2598 13.1757 76.6771 13.3614C76.6424 13.5186 76.6224 13.684 76.6211 13.8602C76.6144 14.4526 76.6917 15.0327 76.8397 15.6048C77.0531 16.4289 77.8424 17.4903 78.7504 17.4903C78.9451 17.4903 79.1438 17.4415 79.3438 17.3331C79.6544 17.1636 79.9104 16.8573 80.1024 16.5143C80.6837 17.5621 81.0184 18.7658 81.0184 20.036C81.0184 20.0441 81.0184 20.0536 81.0184 20.0617C80.9144 20.1173 80.8211 20.1918 80.7451 20.2867C80.1371 21.0363 79.9998 21.729 79.8464 22.6657C79.7638 23.1672 79.7024 23.6945 79.6838 24.2245C79.4104 24.6136 79.0998 24.9755 78.7584 25.3035C78.6958 24.8155 78.5784 24.3235 78.4971 23.8775C78.3171 22.8825 78.0931 22.0286 77.5277 21.1787C77.2917 20.8235 76.8384 20.6188 76.4064 20.6188C75.9251 20.6188 75.4718 20.875 75.3864 21.4633C75.2544 22.3769 75.0117 23.2729 74.8744 24.1879C74.8024 24.6773 74.7451 25.1707 74.7051 25.6641C74.6557 26.2903 74.8211 26.7458 75.1104 27.1972C74.7038 27.2717 74.2864 27.311 73.8624 27.311Z" fill="#E8C474"/>
<path d="M67.8958 24.0117C67.8158 23.8884 67.7384 23.7637 67.6651 23.6349C67.7438 23.7596 67.8211 23.887 67.8958 24.0117Z" fill="#E4BC6B"/>
<path d="M73.7905 27.311C72.3705 27.2961 71.0385 26.8434 69.9211 26.0816C69.9305 24.806 69.9931 23.5549 70.4345 22.3417C70.6265 21.8157 71.0545 21.5663 71.4771 21.5663C71.9931 21.5663 72.5011 21.9405 72.5531 22.6331C72.6411 23.8016 73.3905 25.0175 73.8105 26.0911C73.9731 26.5072 73.9451 26.9315 73.7905 27.311Z" fill="#E4BC6B"/>
<path d="M75.1104 27.1971C74.8211 26.7458 74.6557 26.2903 74.7051 25.664C74.7451 25.1706 74.8024 24.6772 74.8744 24.1879C75.0117 23.2729 75.2544 22.3769 75.3864 21.4633C75.4717 20.875 75.9251 20.6188 76.4064 20.6188C76.8384 20.6188 77.2917 20.8235 77.5277 21.1787C78.093 22.0286 78.317 22.8825 78.497 23.8775C78.5784 24.3234 78.6957 24.8155 78.7584 25.3035C77.7611 26.2632 76.4997 26.9396 75.1104 27.1971Z" fill="#E4BC6B"/>
<path d="M79.6838 24.2245C79.7024 23.6945 79.7638 23.1672 79.8464 22.6657C79.9998 21.729 80.1371 21.0364 80.7451 20.2868C80.8211 20.1919 80.9144 20.1173 81.0184 20.0618C81.0118 21.6016 80.5171 23.0398 79.6838 24.2245Z" fill="#E4BC6B"/>
<path d="M68.5331 17.8062C68.0638 17.8062 67.5918 17.6557 67.2104 17.3832C67.7651 15.9803 68.7398 14.7807 69.9718 13.9565C70.1118 14.1368 70.2371 14.3333 70.3451 14.5434C70.8318 15.4937 70.6838 17.0335 69.5771 17.5202C69.4078 17.5947 69.2384 17.695 69.0651 17.7397C68.8918 17.7845 68.7131 17.8062 68.5331 17.8062Z" fill="#E4BC6B"/>
<path d="M74.4878 17.4185C73.9651 17.4185 73.4224 17.2165 73.0051 16.8817C71.9264 16.0155 72.1598 14.3265 72.1038 12.9886C72.6678 12.8395 73.2571 12.7595 73.8624 12.7595C74.3784 12.7595 74.8824 12.8165 75.3704 12.9276C76.2091 13.9253 76.6278 15.2455 76.0064 16.4872C75.6784 17.1446 75.0958 17.4185 74.4878 17.4185Z" fill="#E4BC6B"/>
<path d="M78.7505 17.4903C77.8425 17.4903 77.0531 16.4289 76.8398 15.6048C76.6918 15.0327 76.6145 14.4526 76.6211 13.8602C76.6225 13.684 76.6424 13.5186 76.6771 13.3614C78.1224 14.0052 79.3304 15.1235 80.1024 16.5143C79.9104 16.8572 79.6544 17.1636 79.3438 17.333C79.1438 17.4415 78.9451 17.4903 78.7505 17.4903Z" fill="#E4BC6B"/>
<path d="M92.7891 31.3518C89.8305 31.3518 87.1785 29.6899 85.4758 27.0995C84.6638 25.8674 84.1971 24.4441 83.8185 23.014C83.7945 22.8934 83.7705 22.7781 83.7438 22.6656C83.6798 22.3986 83.6131 22.1384 83.5318 21.8916C83.4251 21.5053 83.1891 20.9414 83.1278 20.7774C81.8144 18.1586 81.2705 15.7512 81.7518 12.7826C82.2358 9.79637 84.8744 8.31069 87.5384 8.31069C88.9264 8.31069 90.3211 8.71466 91.4211 9.51848C91.4545 9.53746 91.4904 9.55779 91.5291 9.58083C91.5118 9.57405 91.4931 9.56593 91.4758 9.5578C91.4785 9.56051 91.4811 9.56319 91.4838 9.56455C92.0718 9.82345 92.5585 10.0702 93.1545 10.4483C94.2345 11.1329 95.2198 11.8459 96.2131 12.6755C98.1105 14.2587 99.5158 16.3015 100.348 18.5787C100.257 18.5909 100.164 18.614 100.069 18.6465C99.1384 18.9651 98.4744 19.6998 98.4638 20.7354C98.4571 21.4484 98.9331 21.9771 99.5638 22.2034C99.7451 22.2685 99.9305 22.2983 100.114 22.2983C100.476 22.2983 100.83 22.1831 101.137 21.9865C101.165 22.2454 101.186 22.507 101.2 22.77C101.26 23.8843 101.046 24.9768 100.629 25.988C100.652 25.7061 100.629 25.4146 100.556 25.1137C100.365 24.3316 99.5771 23.647 98.7638 23.647C98.7318 23.647 98.6984 23.6484 98.6651 23.6511C96.2998 23.8151 95.6225 26.5031 96.4185 28.4239C96.6558 28.9918 97.1531 29.2169 97.6758 29.2169C97.9518 29.2169 98.2331 29.1545 98.4891 29.0474C97.4878 29.9814 96.2838 30.6849 95.0051 31.0427C94.2544 31.2528 93.5118 31.3518 92.7891 31.3518ZM87.9264 20.4358C86.6638 20.4358 85.7385 21.5229 85.6078 22.8256C85.5158 23.7351 85.5678 24.5579 85.7624 25.458C85.8771 25.9839 86.1384 26.4922 86.5384 26.8474C86.7998 27.0765 87.1171 27.2337 87.3478 27.4859C87.5585 27.7163 87.8225 27.8153 88.0865 27.8153C88.7291 27.8153 89.3704 27.2243 89.2304 26.5045L89.3358 26.3431C89.5451 26.0436 89.6158 25.5854 89.7145 25.2357C89.8865 24.6338 90.0865 24.0767 90.2105 23.4586C90.4678 22.1871 89.8651 20.8899 88.5745 20.528C88.3505 20.4656 88.1344 20.4358 87.9264 20.4358ZM93.6384 21.6043C93.4518 21.6043 93.2611 21.6395 93.0678 21.7181C91.9398 22.1763 91.1438 23.0791 90.8745 24.3058C90.6571 25.3007 90.6824 26.6251 91.5331 27.334C91.8918 27.6322 92.3038 27.7976 92.7118 27.7976C93.0958 27.7976 93.4758 27.6512 93.8078 27.334C93.9505 27.208 94.0691 27.0616 94.1664 26.8948C94.0878 26.987 94.0465 27.0331 94.0425 27.0331C94.0358 27.0331 94.1411 26.8962 94.3585 26.6237C94.4945 26.4082 94.6091 26.1805 94.7491 25.965C95.1918 25.2804 95.5625 24.4441 95.5198 23.6172C95.4705 22.6426 94.6384 21.6043 93.6384 21.6043ZM83.5398 21.5785C83.5958 21.6924 83.6571 21.8184 83.7264 21.9594C83.6651 21.832 83.6024 21.7059 83.5398 21.5785ZM97.5238 16.0399C97.2158 16.0399 96.9064 16.1185 96.6278 16.2866C95.5584 16.9264 94.9091 18.1897 95.2944 19.4368C95.4718 20.0129 95.9931 20.4331 96.5731 20.4331C96.6891 20.4331 96.8078 20.4155 96.9264 20.3802C97.6571 20.1606 98.3265 19.777 98.8131 19.1684C99.3331 18.5205 99.5384 17.7112 99.0958 16.944C98.7638 16.3679 98.1491 16.0399 97.5238 16.0399ZM92.9278 13.6162C92.9024 13.6162 92.8771 13.6176 92.8531 13.6189C91.1251 13.7097 90.4091 15.3729 90.3571 16.9223C90.3331 17.657 91.0478 18.3348 91.7585 18.3348C91.9811 18.3348 92.2038 18.2683 92.4024 18.1152C93.3344 17.3994 94.5264 16.6065 94.4598 15.2523C94.4184 14.4241 93.7958 13.6162 92.9278 13.6162ZM88.2971 11.9313C87.7491 11.9313 87.2158 12.1794 86.9451 12.7433C86.4425 13.7829 86.2211 15.2157 86.6731 16.3137C86.8598 16.7637 87.1104 17.1188 87.6011 17.2571C87.7091 17.2869 87.8238 17.3019 87.9398 17.3019C88.4051 17.3019 88.8998 17.0674 89.1011 16.6363C89.5411 15.6915 89.9291 14.6356 90.0131 13.5877C90.0931 12.5738 89.1771 11.9313 88.2971 11.9313ZM83.5198 11.3105C83.2251 11.3105 82.9371 11.385 82.6998 11.5423C81.0491 12.6429 81.7651 14.5691 82.3465 16.0819C82.4985 16.4791 82.8931 16.7434 83.2731 16.7434C83.5438 16.7434 83.8078 16.6105 83.9745 16.2974C84.2185 15.8365 84.4731 15.3811 84.6851 14.9039C84.7998 14.6478 84.9238 14.3983 85.0425 14.1435C85.3785 13.4196 85.3065 12.8558 84.9771 12.1495C84.7278 11.6114 84.1131 11.3105 83.5198 11.3105Z" fill="#EBCA7A"/>
<path d="M83.8184 23.014C83.7238 22.6616 83.6358 22.3092 83.5491 21.9594C83.5438 21.9378 83.5384 21.9147 83.5317 21.8917C83.6131 22.1384 83.6797 22.3986 83.7437 22.6657C83.7704 22.7782 83.7944 22.8934 83.8184 23.014Z" fill="#E7C271"/>
<path d="M88.0864 27.8152C87.8224 27.8152 87.5584 27.7163 87.3477 27.4859C87.1171 27.2337 86.7997 27.0765 86.5384 26.8474C86.1384 26.4922 85.877 25.9839 85.7624 25.458C85.5677 24.5579 85.5157 23.7351 85.6077 22.8256C85.7384 21.5229 86.6637 20.4358 87.9264 20.4358C88.1344 20.4358 88.3504 20.4656 88.5744 20.528C89.8651 20.8899 90.4677 22.1871 90.2104 23.4586C90.0864 24.0767 89.8864 24.6338 89.7144 25.2357C89.6157 25.5854 89.5451 26.0436 89.3357 26.3431L89.2304 26.5045C89.3704 27.2243 88.7291 27.8152 88.0864 27.8152Z" fill="#E7C271"/>
<path d="M92.7117 27.7977C92.3037 27.7977 91.8917 27.6323 91.5331 27.3341C90.6824 26.6252 90.6571 25.3008 90.8744 24.3059C91.1437 23.0791 91.9397 22.1764 93.0677 21.7182C93.2611 21.6396 93.4517 21.6043 93.6384 21.6043C94.6384 21.6043 95.4704 22.6427 95.5198 23.6173C95.5624 24.4441 95.1918 25.2805 94.7491 25.965C94.6091 26.1806 94.4944 26.4083 94.3584 26.6238C94.1411 26.8963 94.0357 27.0332 94.0424 27.0332C94.0464 27.0332 94.0877 26.9871 94.1664 26.8949C94.0691 27.0616 93.9504 27.208 93.8077 27.3341C93.4757 27.6513 93.0957 27.7977 92.7117 27.7977Z" fill="#E7C271"/>
<path d="M97.6758 29.2169C97.1531 29.2169 96.6558 28.9918 96.4185 28.4239C95.6225 26.5031 96.2998 23.8151 98.6651 23.6511C98.6985 23.6484 98.7318 23.647 98.7638 23.647C99.5771 23.647 100.365 24.3316 100.556 25.1137C100.629 25.4146 100.652 25.7061 100.629 25.988C100.15 27.1429 99.4051 28.1921 98.4891 29.0474C98.2331 29.1545 97.9518 29.2169 97.6758 29.2169Z" fill="#E7C271"/>
<path d="M83.2731 16.7433C82.8931 16.7433 82.4984 16.479 82.3464 16.0818C81.7651 14.5691 81.0491 12.6429 82.6998 11.5422C82.9371 11.385 83.2251 11.3104 83.5198 11.3104C84.1131 11.3104 84.7278 11.6113 84.9771 12.1495C85.3064 12.8557 85.3784 13.4196 85.0424 14.1434C84.9238 14.3983 84.7998 14.6477 84.6851 14.9039C84.4731 15.381 84.2184 15.8365 83.9744 16.2974C83.8078 16.6105 83.5438 16.7433 83.2731 16.7433Z" fill="#E7C271"/>
<path d="M87.9398 17.3018C87.8238 17.3018 87.7091 17.2868 87.6011 17.257C87.1104 17.1188 86.8598 16.7636 86.6731 16.3136C86.2211 15.2156 86.4424 13.7829 86.9451 12.7432C87.2158 12.1793 87.7491 11.9312 88.2971 11.9312C89.1771 11.9312 90.0931 12.5737 90.0131 13.5877C89.9291 14.6355 89.5411 15.6914 89.1011 16.6362C88.8998 17.0673 88.4051 17.3018 87.9398 17.3018Z" fill="#E7C271"/>
<path d="M91.7585 18.3348C91.0478 18.3348 90.3332 17.657 90.3572 16.9223C90.4092 15.373 91.1252 13.7097 92.8532 13.6189C92.8772 13.6176 92.9025 13.6162 92.9278 13.6162C93.7958 13.6162 94.4185 14.4241 94.4598 15.2523C94.5265 16.6065 93.3345 17.3995 92.4025 18.1152C92.2038 18.2683 91.9812 18.3348 91.7585 18.3348Z" fill="#E7C271"/>
<path d="M96.5731 20.4331C95.9931 20.4331 95.4717 20.0129 95.2944 19.4368C94.9091 18.1897 95.5584 16.9264 96.6277 16.2866C96.9064 16.1185 97.2158 16.0399 97.5238 16.0399C98.1491 16.0399 98.7637 16.3679 99.0957 16.944C99.5384 17.7112 99.3331 18.5205 98.8131 19.1684C98.3264 19.777 97.6571 20.1606 96.9264 20.3802C96.8077 20.4155 96.6891 20.4331 96.5731 20.4331Z" fill="#E7C271"/>
<path d="M100.114 22.2983C99.9304 22.2983 99.7451 22.2685 99.5638 22.2035C98.9331 21.9771 98.4571 21.4484 98.4638 20.7354C98.4744 19.6998 99.1384 18.9651 100.069 18.6466C100.164 18.614 100.257 18.591 100.348 18.5788C100.745 19.6686 101.012 20.8127 101.137 21.9866C100.83 22.1831 100.476 22.2983 100.114 22.2983Z" fill="#E7C271"/>
<path d="M83.2345 59.4856C74.5625 61.6639 62.4825 58.1043 55.9838 51.8852C48.0158 44.2591 59.8078 36.3768 67.1518 36.1233C72.4598 35.9416 77.8011 37.0206 82.6518 39.2111C89.5651 42.3302 95.3078 53.8101 86.3265 58.3483C85.3611 58.8377 84.3238 59.2118 83.2345 59.4856Z" fill="#B55024"/>
<path d="M90.8878 50.3777C90.2304 49.5468 89.2718 48.766 88.1558 48.053C87.4158 45.5074 85.7224 43.0932 83.6238 42.1579C80.6611 40.8403 78.8624 40.2778 75.7091 39.844C75.3398 39.7925 74.9571 39.7681 74.5691 39.7681C72.0704 39.7681 69.2864 40.8024 67.3878 42.6296C65.1384 42.6391 62.9158 42.9034 60.7678 43.5324C59.4051 43.9309 58.1878 44.3809 57.0091 44.8811C56.5758 43.874 55.9291 42.9156 55.1277 42.0237C57.8624 38.6485 63.1638 36.2614 67.1518 36.1231C67.5371 36.1096 67.9238 36.1041 68.3091 36.1041C73.2331 36.1041 78.1531 37.1791 82.6518 39.211C86.7478 41.0599 90.4331 45.8422 90.8878 50.3777Z" fill="#C6622E"/>
<path d="M77.6758 60.1294C75.6745 60.1294 73.6051 59.9098 71.5451 59.4991C69.2651 54.7534 62.9291 51.4704 57.5158 51.4704C57.1918 51.4704 56.8691 51.4826 56.5531 51.5056C56.5318 51.5083 56.5105 51.5097 56.4891 51.511C56.9851 50.7004 57.3065 49.8939 57.4758 49.0996C60.9465 50.7506 64.3265 52.1847 67.6745 53.0184C69.9678 55.1574 73.3238 56.8599 75.3811 57.154C77.0638 57.394 78.5451 57.5146 79.8491 57.5146C84.2385 57.5146 86.6305 56.1537 87.9905 53.425C88.2198 52.9668 88.3758 52.4599 88.4664 51.9231C88.9411 51.8255 89.3958 51.7699 89.8891 51.7699C90.2105 51.7699 90.5478 51.7943 90.9185 51.8445C90.7558 54.4173 89.4078 56.7921 86.3264 58.3483C85.3611 58.8376 84.3238 59.2117 83.2344 59.4855C81.4944 59.922 79.6171 60.1294 77.6758 60.1294Z" fill="#A43E1A"/>
<path d="M74.9678 53.8087C74.2958 53.8087 73.6425 53.7992 73.0172 53.7829C71.2385 53.7382 69.4611 53.463 67.6745 53.0184C66.4638 51.8906 65.5505 50.6408 65.2798 49.4127C64.6625 46.6149 65.6585 44.2929 67.3878 42.6297C67.4305 42.6297 67.4731 42.6297 67.5158 42.6297C71.1225 42.6297 74.7971 43.2763 78.3478 44.1181C75.7185 44.5844 73.1745 45.5793 72.9545 48.7295C72.7932 51.0326 75.1611 52.6361 76.9172 53.5579C77.0678 53.6365 77.2238 53.7056 77.3825 53.7666C76.5625 53.7951 75.7531 53.8087 74.9678 53.8087ZM85.1478 52.8205C86.1705 51.6561 86.5931 49.7828 86.0705 48.3907C85.7918 47.6492 85.4318 46.9565 84.9745 46.3587C86.0905 46.863 87.1838 47.4323 88.1558 48.0531C88.5398 49.3707 88.6678 50.7222 88.4665 51.9231C87.7265 52.0736 86.9385 52.3257 85.8758 52.628C85.6385 52.6958 85.3945 52.7595 85.1478 52.8205Z" fill="#C5612D"/>
<path d="M88.1558 48.0531C87.1838 47.4323 86.0905 46.863 84.9745 46.3587C84.2478 45.4098 83.2771 44.7009 82.0025 44.423C81.2571 44.2604 80.1998 43.9906 79.3731 43.9906C79.2238 43.9906 79.0825 43.9987 78.9518 44.0191C78.7505 44.0489 78.5491 44.0814 78.3478 44.118C74.7971 43.2763 71.1225 42.6297 67.5158 42.6297C67.4731 42.6297 67.4305 42.6297 67.3878 42.6297C69.2865 40.8024 72.0705 39.7682 74.5691 39.7682C74.9571 39.7682 75.3398 39.7926 75.7091 39.8441C78.8625 40.2778 80.6612 40.8404 83.6238 42.158C85.7225 43.0933 87.4158 45.5074 88.1558 48.0531Z" fill="#D27137"/>
<path d="M79.8491 57.5146C78.5451 57.5146 77.0638 57.3939 75.3811 57.154C73.3238 56.8599 69.9678 55.1573 67.6744 53.0183C69.4611 53.4629 71.2384 53.7381 73.0171 53.7828C73.6424 53.7991 74.2958 53.8086 74.9678 53.8086C75.7531 53.8086 76.5624 53.795 77.3824 53.7666C78.0838 54.035 78.8624 54.161 79.5704 54.3793C80.0291 54.5202 80.4758 54.5839 80.9144 54.5839C82.0638 54.5839 83.1478 54.1502 84.2198 53.5727C84.5665 53.3857 84.8784 53.1281 85.1478 52.8204C85.3944 52.7594 85.6384 52.6957 85.8758 52.6279C86.9384 52.3257 87.7264 52.0735 88.4664 51.9231C88.3758 52.4599 88.2198 52.9668 87.9905 53.425C86.6305 56.1536 84.2384 57.5146 79.8491 57.5146Z" fill="#B85024"/>
<path d="M77.3825 53.7666C77.2238 53.7056 77.0678 53.6365 76.9171 53.5578C75.1611 52.6361 72.7931 51.0325 72.9545 48.7295C73.1745 45.5793 75.7185 44.5843 78.3478 44.118C78.5558 44.1668 78.7625 44.217 78.9705 44.2671C80.6131 44.6684 82.8385 45.3949 84.9745 46.3587C85.4318 46.9565 85.7918 47.6492 86.0705 48.3906C86.5931 49.7827 86.1705 51.6561 85.1478 52.8205C82.7798 53.4033 80.0265 53.6717 77.3825 53.7666Z" fill="#D17036"/>
<path d="M84.9744 46.3588C82.8384 45.395 80.6131 44.6684 78.9704 44.2672C78.7624 44.217 78.5558 44.1669 78.3478 44.1181C78.5491 44.0815 78.7504 44.049 78.9518 44.0191C79.0824 43.9988 79.2238 43.9907 79.3731 43.9907C80.1998 43.9907 81.2571 44.2604 82.0024 44.4231C83.2771 44.701 84.2478 45.4099 84.9744 46.3588Z" fill="#DC7F3F"/>
<path d="M80.9144 54.584C80.4758 54.584 80.0291 54.5203 79.5704 54.3794C78.8624 54.1611 78.0838 54.0351 77.3824 53.7667C80.0264 53.6718 82.7798 53.4034 85.1478 52.8205C84.8784 53.1282 84.5664 53.3858 84.2198 53.5728C83.1478 54.1503 82.0638 54.584 80.9144 54.584Z" fill="#C7612D"/>
<path d="M23.3077 62.5585C33.2571 65.0567 47.1171 60.9739 54.5731 53.8385C63.7144 45.0886 50.1864 36.0446 41.7597 35.7545C35.6704 35.5458 29.5424 36.7833 23.9771 39.2965C16.0464 42.8764 9.4584 56.0466 19.7611 61.2531C20.8691 61.813 22.0584 62.244 23.3077 62.5585Z" fill="#B54124"/>
<path d="M14.5291 52.1088C15.0504 46.905 19.2784 41.4179 23.9771 39.2965C29.1384 36.9663 34.7811 35.7315 40.4304 35.7315C40.8731 35.7315 41.317 35.7396 41.7597 35.7545C48.2024 35.9768 57.6291 41.3162 57.6224 47.7291C57.6224 47.7454 57.6224 47.7617 57.6224 47.778C54.7864 46.3736 52.2824 45.1903 49.0851 44.2536C46.6211 43.5325 44.0704 43.2302 41.4891 43.2193C39.3104 41.1223 36.1184 39.9363 33.2517 39.9363C32.8051 39.9363 32.3677 39.9648 31.9424 40.023C28.3224 40.5205 26.2597 41.1657 22.8624 42.6785C20.4531 43.7507 18.5117 46.52 17.6624 49.4412C16.3824 50.2586 15.2824 51.1559 14.5291 52.1088Z" fill="#C6502E"/>
<path d="M29.6851 63.296C27.4584 63.296 25.3037 63.0588 23.3077 62.5586C22.0584 62.2441 20.869 61.813 19.761 61.2532C16.2264 59.4666 14.6797 56.7434 14.493 53.7911C14.9184 53.7328 15.3051 53.7057 15.6731 53.7057C16.2411 53.7057 16.7624 53.7694 17.3077 53.8819C17.4104 54.4973 17.5904 55.0788 17.8531 55.6048C19.4117 58.7346 22.1557 60.2962 27.1904 60.2962C28.6877 60.2962 30.3877 60.1579 32.3184 59.8828C34.6797 59.5453 38.5304 57.592 41.161 55.1385C46.3917 53.8345 51.6904 51.2549 57.2264 48.5086C57.349 48.4476 57.4691 48.411 57.5877 48.3948C57.4824 49.4168 57.1317 50.4592 56.4891 51.5111C50.4384 51.9801 44.4864 53.8304 39.2357 56.9291C37.0037 58.2467 34.7317 60.5172 33.0011 63.1292C31.885 63.239 30.7757 63.296 29.6851 63.296Z" fill="#A4321A"/>
<path d="M32.7931 56.0439C31.8931 56.0439 30.9638 56.0303 30.0211 55.9964C30.2051 55.9259 30.3838 55.8473 30.5558 55.7565C32.5718 54.6992 35.2877 52.8598 35.1037 50.2165C34.8517 46.6027 31.9318 45.4614 28.9144 44.9259C32.9878 43.9608 37.2037 43.2193 41.3424 43.2193C41.3917 43.2193 41.4398 43.2193 41.4891 43.2193C43.4718 45.1279 44.6144 47.7915 43.9077 51.0014C43.5971 52.4097 42.5491 53.8439 41.1611 55.1384C39.1104 55.6494 37.0717 55.9639 35.0317 56.0154C34.3131 56.033 33.5637 56.0439 32.7931 56.0439ZM21.1144 54.912C20.8304 54.8415 20.5517 54.7683 20.2784 54.6911C19.0597 54.3441 18.1557 54.0553 17.3077 53.8818C17.0757 52.5033 17.2224 50.9526 17.6624 49.4412C18.7784 48.7282 20.0317 48.0761 21.3117 47.4973C20.7877 48.1832 20.3744 48.9776 20.0544 49.8288C19.4558 51.4256 19.9411 53.5755 21.1144 54.912Z" fill="#C54F2D"/>
<path d="M17.6624 49.4412C18.5117 46.52 20.4531 43.7507 22.8624 42.6785C26.2597 41.1657 28.3224 40.5205 31.9424 40.023C32.3678 39.9647 32.8051 39.9363 33.2518 39.9363C36.1184 39.9363 39.3104 41.1223 41.4891 43.2193C41.4398 43.2193 41.3918 43.2193 41.3424 43.2193C37.2038 43.2193 32.9878 43.9608 28.9144 44.9259C28.6838 44.8853 28.4531 44.8473 28.2224 44.8134C28.0718 44.7904 27.9091 44.7809 27.7371 44.7809C26.7891 44.7809 25.5771 45.09 24.7224 45.2757C23.2611 45.5956 22.1464 46.4089 21.3118 47.4973C20.0318 48.0761 18.7784 48.7282 17.6624 49.4412Z" fill="#D25E37"/>
<path d="M27.1904 60.2962C22.1558 60.2962 19.4118 58.7347 17.8531 55.6048C17.5904 55.0788 17.4104 54.4973 17.3077 53.8819C18.1557 54.0554 19.0597 54.3441 20.2784 54.6912C20.5517 54.7684 20.8304 54.8416 21.1144 54.9121C21.4237 55.2632 21.7811 55.56 22.1784 55.7742C23.4077 56.4371 24.6517 56.9332 25.9704 56.9332C26.4731 56.9332 26.9864 56.8614 27.5131 56.6987C28.3251 56.4493 29.2184 56.3042 30.0211 55.9965C30.9638 56.0304 31.8931 56.044 32.7931 56.044C33.5637 56.044 34.3131 56.0331 35.0317 56.0155C37.0717 55.964 39.1104 55.6495 41.1611 55.1385C38.5304 57.592 34.6797 59.5453 32.3184 59.8828C30.3877 60.158 28.6878 60.2962 27.1904 60.2962Z" fill="#B84224"/>
<path d="M30.0211 55.9965C26.9891 55.888 23.8304 55.579 21.1144 54.912C19.9411 53.5755 19.4558 51.4257 20.0544 49.8289C20.3744 48.9776 20.7878 48.1833 21.3118 47.4974C23.7624 46.3913 26.3158 45.5576 28.1998 45.0981C28.4384 45.0398 28.6758 44.9829 28.9144 44.926C31.9318 45.4614 34.8518 46.6027 35.1038 50.2165C35.2878 52.8598 32.5718 54.6992 30.5558 55.7565C30.3838 55.8474 30.2051 55.926 30.0211 55.9965Z" fill="#D15D36"/>
<path d="M21.3118 47.4974C22.1464 46.4089 23.2611 45.5956 24.7224 45.2757C25.5771 45.09 26.7891 44.7809 27.7371 44.7809C27.9091 44.7809 28.0718 44.7904 28.2224 44.8134C28.4531 44.8473 28.6838 44.8853 28.9144 44.926C28.6758 44.9829 28.4384 45.0398 28.1998 45.0981C26.3158 45.5576 23.7624 46.3913 21.3118 47.4974Z" fill="#DC6A3F"/>
<path d="M25.9704 56.9332C24.6518 56.9332 23.4078 56.437 22.1784 55.7742C21.7811 55.56 21.4238 55.2631 21.1144 54.9121C23.8304 55.579 26.9891 55.888 30.0211 55.9965C29.2184 56.3042 28.3251 56.4492 27.5131 56.6987C26.9864 56.8613 26.4731 56.9332 25.9704 56.9332Z" fill="#C7502D"/>
<path d="M67.9571 71.6852C60.3518 78.6675 46.2384 81.7282 36.3504 79.0226C24.2264 75.7043 31.9451 61.2342 39.2358 56.929C44.5051 53.8195 50.4798 51.9665 56.5531 51.5056C65.2064 50.8509 77.1358 59.2917 70.4758 68.8318C69.7598 69.8566 68.9131 70.8082 67.9571 71.6852Z" fill="#CC673B"/>
<path d="M30.8465 75.1472C30.2691 74.0763 30.0118 72.874 30.0131 71.6066C30.0145 66.198 34.7078 59.6035 39.2358 56.929C44.5051 53.8195 50.4798 51.9665 56.5531 51.5056C56.8691 51.4825 57.1918 51.4703 57.5158 51.4703C62.4438 51.4703 68.1358 54.1909 70.8371 58.2588C69.7291 57.7803 68.3424 57.5173 66.8344 57.4129C64.8598 55.3837 62.1038 53.9306 59.6078 53.9306C59.4398 53.9306 59.2745 53.9374 59.1091 53.951C55.4105 54.2519 53.2931 54.6734 49.8718 55.9747C46.8865 57.1093 44.0371 60.0332 42.9451 63.3772C40.6745 64.627 38.5678 66.1194 36.7331 67.9385C34.3491 70.3012 32.6931 72.5459 30.8465 75.1472Z" fill="#D97B49"/>
<path d="M44.1918 80C41.4291 80 38.7651 79.6828 36.3504 79.0227C33.8158 78.3287 32.1491 77.148 31.1638 75.6746C31.2744 75.6312 31.3971 75.6054 31.5331 75.6C37.6904 75.3601 43.5584 75.089 48.7744 73.7239C50.4064 74.1482 52.2264 74.3434 53.9291 74.3434C55.8344 74.3434 57.5904 74.0981 58.7718 73.6562C66.7571 70.6686 69.6371 67.4872 69.5318 62.9368C69.5184 62.3458 69.4064 61.748 69.2118 61.1556C69.9184 60.5619 70.6304 60.1132 71.6491 59.7242C72.1424 60.8208 72.4171 61.9933 72.4171 63.2187C72.4158 64.9998 71.8304 66.8922 70.4758 68.8319C69.7598 69.8567 68.9131 70.8082 67.9571 71.6852C62.2091 76.9623 52.7411 80 44.1918 80Z" fill="#BF532D"/>
<path d="M48.7744 73.7239C46.9491 73.2495 45.3598 72.4904 44.4304 71.3979C42.3158 68.9092 42.0851 66.0124 42.9451 63.3773C46.6251 61.3508 50.7344 59.96 54.8198 58.8404C52.4091 60.7611 50.3678 63.1712 51.8251 66.4773C52.8424 68.7844 55.8478 69.1762 58.0904 69.1762C58.1984 69.1762 58.3038 69.1762 58.4078 69.1748C58.6011 69.1707 58.7958 69.1545 58.9891 69.1287C57.4784 70.0234 55.9731 70.8394 54.5851 71.551C52.7624 72.4863 50.8184 73.1885 48.7744 73.7239ZM66.3358 63.8924C66.7478 62.1505 66.1771 60.0237 64.9064 58.9041C64.2291 58.3077 63.4958 57.8061 62.7144 57.4537C63.5318 57.3913 64.3518 57.3574 65.1558 57.3574C65.7264 57.3574 66.2878 57.3751 66.8344 57.413C67.9238 58.5327 68.7758 59.8299 69.2118 61.1556C68.5451 61.7154 67.8824 62.4054 66.9704 63.296C66.7651 63.4952 66.5531 63.6945 66.3358 63.8924Z" fill="#D87949"/>
<path d="M42.9451 63.3773C44.0371 60.0332 46.8864 57.1093 49.8717 55.9748C53.2931 54.6735 55.4104 54.2519 59.1091 53.951C59.2744 53.9374 59.4397 53.9306 59.6077 53.9306C62.1037 53.9306 64.8597 55.3838 66.8344 57.413C66.2877 57.375 65.7264 57.3574 65.1557 57.3574C64.3517 57.3574 63.5317 57.3913 62.7144 57.4536C61.9411 57.1053 61.1197 56.9033 60.2637 56.9033C59.7464 56.9033 59.2171 56.9765 58.6771 57.1351C57.6851 57.4252 56.1757 57.8047 55.3771 58.4079C55.1904 58.5489 55.0037 58.6939 54.8197 58.8403C50.7344 59.96 46.6251 61.3508 42.9451 63.3773Z" fill="#E28B56"/>
<path d="M53.9291 74.3433C52.2264 74.3433 50.4064 74.1481 48.7744 73.7238C50.8184 73.1884 52.7624 72.4863 54.5851 71.5509C55.9731 70.8393 57.4784 70.0233 58.9891 69.1287C59.8411 69.0134 60.6957 68.7111 61.5277 68.5417C63.4864 68.1432 64.7291 66.785 65.7997 65.1638C66.0504 64.7829 66.2277 64.3518 66.3357 63.8923C66.5531 63.6944 66.7651 63.4951 66.9704 63.2959C67.8824 62.4053 68.5451 61.7153 69.2118 61.1555C69.4064 61.7479 69.5184 62.3457 69.5317 62.9367C69.6371 67.4871 66.7571 70.6685 58.7717 73.6561C57.5904 74.098 55.8344 74.3433 53.9291 74.3433Z" fill="#CE683C"/>
<path d="M58.0904 69.1761C55.8478 69.1761 52.8424 68.7844 51.8251 66.4773C50.3678 63.1712 52.4091 60.7611 54.8198 58.8403C55.0558 58.7753 55.2918 58.7116 55.5291 58.6479C57.4038 58.1477 60.0411 57.657 62.7144 57.4536C63.4958 57.8061 64.2291 58.3076 64.9064 58.9041C66.1771 60.0237 66.7478 62.1505 66.3358 63.8923C64.2518 65.786 61.6104 67.5753 58.9891 69.1287C58.7958 69.1545 58.6011 69.1707 58.4078 69.1748C58.3038 69.1761 58.1984 69.1761 58.0904 69.1761Z" fill="#E18956"/>
<path d="M54.8198 58.8403C55.0038 58.6939 55.1904 58.5489 55.3771 58.4079C56.1758 57.8047 57.6851 57.4252 58.6771 57.1351C59.2171 56.9765 59.7464 56.9033 60.2637 56.9033C61.1197 56.9033 61.9411 57.1053 62.7144 57.4536C60.0411 57.657 57.4037 58.1477 55.5291 58.6479C55.2917 58.7116 55.0558 58.7753 54.8198 58.8403Z" fill="#E99962"/>
<path d="M58.9891 69.1287C61.6105 67.5753 64.2518 65.786 66.3358 63.8923C66.2278 64.3519 66.0504 64.7829 65.7998 65.1638C64.7291 66.785 63.4864 68.1433 61.5278 68.5418C60.6958 68.7112 59.8411 69.0135 58.9891 69.1287Z" fill="#DA7A4A"/>
</svg>
