<svg width="107" height="80" viewBox="0 0 107 80" fill="none" xmlns="http://www.w3.org/2000/svg">
<path d="M58.128 5.9922C62.6361 9.1972 67.5001 15.4411 66.8417 21.2175C65.4444 33.4548 55.2219 42.2317 37.6793 44.0468C20.1354 45.862 5.93669 43.1169 4.47491 28.4198C3.5847 19.4681 10.141 10.8363 17.3792 6.18686C24.5654 1.57091 33.6907 -0.650902 42.1948 0.167397C46.988 0.62986 53.3298 2.58014 58.128 5.9922Z" fill="#EE750B"/>
<path d="M7.66132 37.1223C5.93669 34.8558 4.82951 31.9918 4.47492 28.4198C4.42036 27.8693 4.3931 27.32 4.3931 26.772C4.39434 18.4217 10.5861 10.5499 17.3793 6.18685C23.5834 2.20198 31.2333 -7.62939e-06 38.6798 -7.62939e-06C39.8589 -7.62939e-06 41.0318 0.0557976 42.1948 0.167385C46.988 0.629845 53.3298 2.58012 58.1281 5.99218C60.0697 7.37337 62.0782 9.31746 63.6813 11.5455C63.204 11.357 62.7192 11.2157 62.2171 11.0842C61.5513 10.9119 60.9028 10.6924 60.2283 10.5399C60.154 10.5251 60.087 10.5127 60.0275 10.5015C59.7399 10.4643 59.4522 10.4234 59.1658 10.3787C58.934 10.344 58.7021 10.3118 58.4715 10.2808C58.3463 10.0787 58.2161 9.90265 58.0896 9.76627C57.2056 8.81159 55.6136 7.74531 54.1804 7.74531C53.951 7.74531 53.7266 7.77261 53.5096 7.83088C53.3708 7.86932 53.372 8.05405 53.5009 8.1024C54.8573 8.60454 56.0637 9.01369 57.0544 10.1172C55.9137 10.0043 54.7718 9.93365 53.6224 9.89646C52.6752 9.86546 51.7292 9.82083 50.7844 9.77123C47.7939 5.95498 42.6424 4.69903 37.4759 4.69903C33.9114 4.69903 30.3394 5.29788 27.4691 6.0641C22.7825 7.31759 18.4976 9.44392 14.6677 12.4096C10.9184 15.3121 5.85362 20.7575 7.81382 25.9078C8.10146 26.6654 8.46846 27.3894 8.90737 28.0503C8.87141 28.1582 8.83669 28.266 8.80321 28.3739C8.65691 28.8388 8.52922 29.3087 8.42012 29.7836C8.41516 29.8282 8.41018 29.8766 8.40398 29.9274C8.1213 32.3687 8.06055 34.6946 7.66132 37.1223Z" fill="#F2840E"/>
<path d="M10.6357 40.0421C10.5564 39.9838 10.4795 39.9256 10.4014 39.8661C10.5675 39.7483 10.7535 39.6168 10.9606 39.4718C11.4069 39.2275 11.8533 39.0552 12.3021 38.93C11.7367 39.2846 11.18 39.6553 10.6357 40.0421ZM64.15 21.3589C65.0241 19.9801 65.6093 18.4192 66.4537 17.064C66.7401 18.0807 66.9 19.1098 66.9012 20.1302C66.9012 20.3075 66.8975 20.4848 66.8876 20.6621C65.9676 20.8642 65.0551 21.0972 64.15 21.3589Z" fill="#E75B06"/>
<path d="M19.2799 35.4658C17.6681 34.5954 16.1717 33.2292 15.3323 31.5777C15.7923 31.5479 16.2684 31.4685 16.7556 31.3371C20.0325 30.4544 21.2972 28.4458 23.1818 25.9587C23.2599 25.8558 23.3243 25.769 23.3789 25.6933C23.4719 25.6115 23.5996 25.4925 23.7707 25.3276C24.3088 24.8081 24.8481 24.2899 25.4383 23.8299C25.8425 23.5125 26.0445 23.3538 26.0458 23.3538C26.047 23.3538 25.9268 23.4505 25.6838 23.6427C26.1227 23.3513 26.569 23.0735 27.0216 22.8082C27.7208 22.4127 28.4201 22.0184 29.1466 21.6762C29.8844 21.3303 30.627 20.9956 31.3734 20.6658C31.3697 20.6683 31.3684 20.6683 31.3684 20.6683C31.3759 20.6683 31.7751 20.5157 32.162 20.3632C32.55 20.2107 32.9269 20.0582 32.891 20.0582C32.8761 20.0582 32.7992 20.0806 32.6368 20.1364C37.4685 18.496 42.6164 18.0807 47.4505 16.5879C48.5825 17.6939 49.2929 19.116 48.8205 20.6744C47.5112 24.9928 41.7298 27.4242 38.0673 29.46C36.2584 30.4668 34.3862 31.8355 32.4446 33.1039C29.3054 33.1337 26.1859 33.5081 23.1929 34.2384C21.958 34.5397 20.6376 34.9513 19.2799 35.4658ZM31.6263 29.3013C31.6152 29.3013 31.6053 29.3025 31.5941 29.3038C29.7269 29.6373 28.2267 30.3068 26.5591 31.2119C24.9907 32.0637 23.2673 32.7444 21.8105 33.7772C21.5699 33.9483 21.5861 34.4206 21.9431 34.4206C21.9506 34.4206 21.958 34.4206 21.9655 34.4206C25.4941 34.2409 28.5652 31.0036 31.728 29.6497C31.9214 29.5679 31.8061 29.3013 31.6263 29.3013ZM20.464 31.967C20.4008 31.967 20.335 31.9918 20.2793 32.0525C20.1069 32.236 19.9098 32.3674 19.6903 32.4914C19.5279 32.5844 19.4089 32.6464 19.3494 32.8311L19.4486 33.0977C19.5378 33.1696 19.6321 33.2006 19.7288 33.2006C20.1255 33.2006 20.5533 32.6886 20.7219 32.4133C20.8484 32.2075 20.6624 31.967 20.464 31.967ZM25.2411 29.4203C25.2324 29.4203 25.2238 29.4203 25.2139 29.4216C24.1786 29.5009 22.7887 29.6237 22.1762 30.6044C21.9605 30.9515 22.2295 31.4301 22.6189 31.4301C22.6647 31.4301 22.7106 31.4239 22.7589 31.409C23.2326 31.2727 23.6281 30.9739 24.072 30.7681C24.5233 30.5598 24.9349 30.2808 25.3577 30.0204C25.597 29.8729 25.5573 29.4203 25.2411 29.4203ZM33.7515 25.0127C33.7267 25.0127 33.7018 25.0151 33.677 25.0201C32.5537 25.2222 31.4342 25.883 30.4534 26.4447C29.6079 26.9282 28.7301 27.4986 28.3705 28.4495C28.3172 28.5909 28.4449 28.7087 28.5763 28.7087C28.5887 28.7087 28.6011 28.7087 28.6123 28.7062C29.624 28.5252 30.4993 27.9077 31.3697 27.4018C32.2624 26.8836 33.315 26.3839 33.9796 25.5756C34.1668 25.3449 34.0428 25.0127 33.7515 25.0127ZM38.4108 25.066C38.3959 25.066 38.381 25.0672 38.3662 25.0709C37.5627 25.2321 36.7531 25.5384 36.0675 25.9934C35.486 26.3778 34.752 26.8043 34.5363 27.5048C34.4867 27.6635 34.6181 27.8618 34.7867 27.8618C34.8103 27.8618 34.8363 27.8581 34.8623 27.8482C35.5381 27.6077 36.0737 26.9865 36.6713 26.591C37.2751 26.1893 37.895 25.8161 38.5 25.4156C38.6625 25.309 38.593 25.066 38.4108 25.066Z" fill="#E75B06"/>
<path d="M14.8946 31.5925C14.0912 31.5925 13.3336 31.445 12.6306 31.1772C12.5947 30.5188 12.5141 29.8468 12.6058 29.2207C12.8141 27.7986 13.1588 26.3926 13.7217 25.0672C13.8345 24.7982 13.6175 24.6308 13.3894 24.6308C13.2728 24.6308 13.1538 24.6754 13.0745 24.7721C12.2041 25.8496 11.0188 28.1507 10.8241 30.1506C10.4596 29.8667 10.1174 29.548 9.80003 29.1996C9.81243 29.0831 9.82359 28.9653 9.83227 28.8475C9.84839 28.6355 9.67358 28.5103 9.49752 28.5103C9.42189 28.5103 9.34626 28.5326 9.28551 28.5809C9.15408 28.4098 9.02761 28.2325 8.90735 28.0503C9.02885 27.6858 9.16027 27.3237 9.30285 26.9667C9.33633 26.9009 9.37354 26.8278 9.41322 26.7484C9.91039 25.8359 10.4299 24.9321 11.0349 24.084C11.294 23.7108 11.5619 23.3426 11.8371 22.9806C11.9289 22.8764 12.069 22.7152 12.2574 22.4982C13.7713 20.8592 15.3868 19.3131 17.1424 17.9344C19.88 15.7857 24.4067 13.1498 28.4944 11.4624C28.7437 11.3607 28.9309 11.2838 29.0549 11.233C29.4367 11.0941 29.8198 10.9602 30.2054 10.8313C31.1229 10.5325 32.0429 10.2374 32.979 10.0019C33.7229 9.81463 36.7097 9.38565 36.0439 9.38565C35.9869 9.38565 35.9025 9.38935 35.7885 9.39555C37.0804 9.30752 38.3673 9.27156 39.6531 9.27156C39.9841 9.27156 40.3164 9.27405 40.6474 9.27901C40.5842 9.41663 40.7131 9.57907 40.8632 9.60262C41.741 9.74273 42.6461 9.60632 43.483 9.98572C44.3174 10.3639 44.9856 10.933 45.7568 11.4091C46.7252 12.0079 47.7766 12.8349 48.9581 12.8349C49.0338 12.8349 49.1119 12.8312 49.1888 12.825L49.2507 12.6229C48.3605 12.0724 47.4331 11.6856 46.6347 10.9826C45.9999 10.4259 45.3204 9.86792 44.5839 9.45009C44.5604 9.43645 44.5368 9.42284 44.512 9.4092C46.6024 9.51459 48.6903 9.6584 50.7844 9.77122C51.1303 10.2126 51.4477 10.6887 51.7329 11.202C52.5128 12.6018 52.0416 14.7852 50.4782 15.4708C49.4875 15.906 48.4758 16.2705 47.4505 16.5879C46.4549 15.6146 45.1344 14.8856 44.0087 14.5236C42.2171 13.9483 40.1961 13.6867 38.1826 13.6867C36.4828 13.6867 34.7892 13.8739 33.248 14.2173C30.3307 14.867 27.5063 15.751 24.7848 16.9611C24.7241 16.9574 24.6646 16.9549 24.6038 16.9549C23.2437 16.9549 21.8464 17.9108 20.7913 18.6572C20.2346 19.0502 19.5329 19.4557 18.9662 19.9541C18.4852 20.2765 18.0301 20.6286 17.6148 21.0191C15.538 22.9793 15.0818 25.2433 14.6888 27.9387C14.5003 29.2368 14.7681 30.4705 15.3322 31.5777C15.1847 31.5876 15.0384 31.5925 14.8946 31.5925ZM15.083 21.6043C15.0657 21.6043 15.0471 21.6056 15.0272 21.608C14.6937 21.6403 14.4172 21.7147 14.235 22.0209C14.0949 22.2565 14.0453 22.5169 14.1804 22.7648C14.2598 22.9111 14.4061 22.9843 14.5635 22.9843C14.5945 22.9843 14.6268 22.9818 14.659 22.9756C14.9144 22.9285 15.0558 22.719 15.2628 22.5875C15.6385 22.3482 15.5951 21.6043 15.083 21.6043ZM20.95 16.6784C20.9202 16.6784 20.888 16.6846 20.8545 16.697C20.1652 16.9512 19.601 17.4707 19.0195 17.9084C18.4381 18.3473 17.8119 18.7886 17.5156 19.4792C17.4462 19.6441 17.6086 19.7892 17.7611 19.7892C17.776 19.7892 17.7896 19.7879 17.8045 19.7842C18.541 19.6429 19.1534 19.1098 19.7225 18.6523C20.2569 18.222 20.8756 17.7781 21.1756 17.1409C21.2587 16.9648 21.162 16.6784 20.95 16.6784ZM35.729 11.3037C32.4644 11.3037 28.3134 11.7091 27.9824 14.5322C27.9601 14.7182 28.1399 14.8682 28.3147 14.8682C28.3395 14.8682 28.363 14.8658 28.3866 14.8596C29.2991 14.6227 29.9042 13.9222 30.777 13.5652C31.7168 13.1783 32.7075 12.9676 33.7167 12.8572C35.3954 12.6737 37.3966 12.515 38.8881 11.662C39.0183 11.5864 38.9761 11.3706 38.8174 11.3694C38.0909 11.3632 36.975 11.3037 35.729 11.3037ZM44.3781 12.7171C44.6323 12.7171 44.884 12.7803 45.1208 12.882C45.163 12.8994 45.2026 12.908 45.2386 12.908C45.4866 12.908 45.5696 12.515 45.3638 12.3476C45.0625 12.1009 44.6968 11.9521 44.336 11.9521C44.0471 11.9521 43.7619 12.0476 43.514 12.2621L43.421 12.5758C43.4706 12.7556 43.5884 12.8051 43.726 12.8051C43.8425 12.8051 43.9727 12.7692 44.088 12.7456C44.1847 12.727 44.2814 12.7171 44.3781 12.7171Z" fill="#F2840E"/>
<path d="M8.90735 28.0503C8.46844 27.3895 8.10144 26.6654 7.8138 25.9078C5.8536 20.7575 10.9184 15.3121 14.6677 12.4096C18.4976 9.44392 22.7825 7.31759 27.4691 6.06411C30.3393 5.29788 33.9113 4.69903 37.4759 4.69903C42.6423 4.69903 47.7939 5.95499 50.7844 9.77124C48.6903 9.65841 46.6024 9.5146 44.512 9.40921C43.7991 9.01246 42.9845 8.67151 42.1972 8.67151C41.6777 8.67151 41.1694 8.82029 40.7094 9.19968C40.6797 9.22448 40.6598 9.25051 40.6474 9.27902C40.3164 9.27406 39.9841 9.27157 39.6531 9.27157C38.3674 9.27157 37.0804 9.30753 35.7885 9.39556C35.9025 9.38936 35.9869 9.38566 36.0439 9.38566C36.7097 9.38566 33.7229 9.81464 32.979 10.0019C32.0429 10.2374 31.1229 10.5325 30.2054 10.8313C29.8199 10.9603 29.4367 11.0942 29.0549 11.233C28.9309 11.2839 28.7437 11.3607 28.4945 11.4624C24.4067 13.1498 19.88 15.7857 17.1424 17.9344C15.3868 19.3131 13.7713 20.8592 12.2574 22.4983C12.069 22.7152 11.9289 22.8764 11.8371 22.9806C11.5619 23.3426 11.294 23.7108 11.0349 24.084C10.4299 24.9321 9.9104 25.8359 9.41322 26.7485C9.37354 26.8278 9.33633 26.901 9.30285 26.9667C9.16027 27.3237 9.02886 27.6858 8.90735 28.0503Z" fill="#F59110"/>
<path d="M15.3323 31.5777C14.7681 30.4705 14.5003 29.2369 14.6888 27.9387C15.0818 25.2433 15.5381 22.9793 17.6148 21.0191C18.0301 20.6286 18.4852 20.2765 18.9663 19.9541C18.5484 20.3224 18.2037 20.7414 18.0463 21.2448C17.988 21.432 18.1306 21.6688 18.3376 21.6688C18.3414 21.6688 18.3463 21.6688 18.35 21.6676C19.6593 21.6081 20.7504 20.2988 21.7943 19.6132C22.8643 18.9089 24.2071 18.4415 25.1444 17.5773C25.3837 17.3554 25.2039 17.0045 24.9138 16.9723C24.8704 16.9673 24.8282 16.9636 24.7848 16.9611C27.5063 15.751 30.3307 14.867 33.248 14.2174C34.7892 13.8739 36.4828 13.6867 38.1826 13.6867C40.1962 13.6867 42.2171 13.9483 44.0087 14.5236C45.1345 14.8856 46.4549 15.6146 47.4505 16.5879C42.6163 18.0807 37.4685 18.4961 32.6368 20.1364C32.7992 20.0806 32.8761 20.0583 32.891 20.0583C32.9269 20.0583 32.55 20.2108 32.1619 20.3633C31.7751 20.5158 31.3759 20.6683 31.3684 20.6683C31.3684 20.6683 31.3697 20.6683 31.3734 20.6658C30.627 20.9956 29.8843 21.3303 29.1466 21.6763C28.4201 22.0185 27.7208 22.4127 27.0215 22.8082C26.569 23.0736 26.1226 23.3513 25.6837 23.6427C25.9267 23.4505 26.047 23.3538 26.0458 23.3538C26.0445 23.3538 25.8424 23.5125 25.4382 23.8299C24.8481 24.2899 24.3088 24.8081 23.7707 25.3276C23.5996 25.4925 23.4718 25.6115 23.3788 25.6934C23.3243 25.769 23.2598 25.8558 23.1817 25.9587C21.2972 28.4458 20.0325 30.4544 16.7556 31.3371C16.2683 31.4686 15.7922 31.5479 15.3323 31.5777ZM16.6477 25.8372C16.577 25.8372 16.5064 25.8657 16.4481 25.9339C15.9609 26.5142 15.6335 27.1911 15.5715 27.9536C15.517 28.6293 15.3459 29.4997 15.9559 29.9597L16.2696 29.9696C16.794 29.6138 16.7358 29.0534 16.7494 28.4731C16.7655 27.7329 16.7581 26.9766 16.9726 26.2612C17.0346 26.0517 16.8399 25.8372 16.6477 25.8372ZM17.6037 23.3897C17.5813 23.3897 17.559 23.391 17.5355 23.3947C17.0631 23.4592 16.732 23.8249 16.7221 24.3023C16.7147 24.5998 16.9242 24.7499 17.1461 24.7499C17.3272 24.7499 17.5168 24.6507 17.6049 24.4486C17.6545 24.3345 17.6966 24.1597 17.8033 24.0853C18.1368 23.8534 17.9831 23.3897 17.6037 23.3897ZM28.6681 17.2698C28.642 17.2698 28.616 17.2748 28.5887 17.2885C27.3389 17.9096 26.6235 19.2325 25.3366 19.7582C24.1637 20.238 22.5184 20.2715 21.6902 21.313C21.5724 21.4605 21.7187 21.6936 21.891 21.6936C21.8923 21.6936 21.8935 21.6936 21.8948 21.6936C22.6312 21.6849 23.3094 21.3824 24.0124 21.1741C24.7229 20.9621 25.5287 20.76 26.1611 20.3509C27.3017 19.6132 27.8894 18.5333 28.7796 17.5513C28.8838 17.4372 28.7995 17.2698 28.6681 17.2698ZM31.1514 15.2105C30.498 15.2105 30.4733 16.2346 31.1403 16.2544C31.1465 16.2544 31.1527 16.2544 31.1589 16.2544C31.8123 16.2544 31.8371 15.2303 31.1701 15.2105C31.1639 15.2105 31.1576 15.2105 31.1514 15.2105Z" fill="#EC6C09"/>
<path d="M54.8796 25.278C54.8821 25.2197 54.8995 25.1602 54.9329 25.1044C55.5901 24.027 56.5262 23.1628 57.2986 22.171C58.2545 20.9447 59.0864 19.659 59.7138 18.232C59.7969 18.0423 59.9568 17.958 60.1118 17.958C60.3511 17.958 60.578 18.1551 60.5024 18.475C60.1316 20.0347 59.4014 22.0284 58.2607 23.5397C57.1027 24.0679 55.9732 24.6482 54.8796 25.278Z" fill="#F2840E"/>
<path d="M61.1211 22.3582C61.2847 22.1871 61.4397 22.0122 61.5835 21.8275C61.6368 21.7605 61.7075 21.7308 61.7769 21.7308C61.9096 21.7308 62.0336 21.8436 61.9902 22.0147C61.9877 22.0259 61.9852 22.037 61.9828 22.0482C61.6939 22.1486 61.4062 22.2515 61.1211 22.3582Z" fill="#F2840E"/>
<path d="M54.22 23.3749C54.2126 23.3749 54.2064 23.3749 54.199 23.3749C53.9746 23.3699 53.8654 23.1616 53.9026 22.962C53.9845 22.5281 54.4073 22.1946 54.716 21.9069C55.0458 21.5994 55.321 21.2399 55.6558 20.9386C55.7029 20.8964 55.7587 20.8766 55.8133 20.8766C55.9348 20.8766 56.0501 20.9733 56.0501 21.1159C56.0501 21.6602 55.7996 22.1053 55.4773 22.5305C55.1772 22.926 54.7482 23.3749 54.22 23.3749Z" fill="#F2840E"/>
<path d="M44.9001 31.1016C44.672 31.1016 44.5195 30.8908 44.5703 30.6602C44.8208 29.501 46.0966 28.7075 46.9508 27.9797C47.9948 27.0907 49.1702 26.0988 50.4509 25.5918C50.4856 25.5769 50.5216 25.5707 50.5588 25.5707C50.7621 25.5707 50.963 25.7653 50.813 25.9748C50.0802 26.9952 49.0301 27.8284 48.0915 28.6579C47.1765 29.465 46.2206 30.8437 44.9782 31.0942C44.951 31.0991 44.9249 31.1016 44.9001 31.1016Z" fill="#F2840E"/>
<path d="M45.9081 32.6501C45.7333 32.4443 45.7122 32.1319 45.9453 31.8951C46.2776 31.5554 46.7946 31.2826 47.3278 31.1078C46.8405 31.6062 46.3656 32.1207 45.9081 32.6501Z" fill="#F2840E"/>
<path d="M41.6096 33.9916C40.826 33.8305 40.0375 33.6916 39.2452 33.5738C39.2551 33.5614 39.265 33.549 39.2762 33.5378C39.7411 33.0345 40.4541 32.8187 41.0876 32.5931C41.7547 32.3563 42.4812 32.1343 43.1979 32.1343C43.2338 32.1343 43.2698 32.1344 43.3057 32.1356C43.6243 32.1467 43.7409 32.5236 43.5363 32.7419C43.0181 33.2899 42.3114 33.6631 41.6096 33.9916Z" fill="#F2840E"/>
<path d="M37.5082 32.9787C37.3569 32.9787 37.2441 32.7679 37.3408 32.6452C37.9682 31.8467 38.9042 31.2764 39.7461 30.7209C40.7739 30.0403 41.8352 29.2257 43.0788 29.0323C43.0962 29.0298 43.1135 29.0286 43.1309 29.0286C43.4297 29.0286 43.7062 29.4154 43.4111 29.641C42.5159 30.323 41.5116 30.8486 40.5855 31.4884C39.6593 32.1282 38.6798 32.8969 37.5193 32.9787C37.5156 32.9787 37.5119 32.9787 37.5082 32.9787Z" fill="#F2840E"/>
<path d="M51.2382 22.9744C51.18 22.9744 51.1205 22.9645 51.0634 22.9409L50.7907 22.7723C50.6419 22.6087 50.5749 22.3694 50.6468 22.1549C51.4577 19.7285 55.9993 15.859 53.4452 13.2268C53.3051 13.0829 53.4253 12.8287 53.6088 12.8287C53.6324 12.8287 53.6572 12.8337 53.6832 12.8424C55.388 13.4735 55.3236 15.2985 54.9479 16.8037C54.4817 18.6684 53.2009 21.5635 51.6796 22.7984C51.5569 22.8976 51.3994 22.9744 51.2382 22.9744Z" fill="#F2840E"/>
<path d="M58.3041 13.7412L58.1455 13.6718C58.0289 13.1411 58.1715 12.5906 58.112 12.0501C58.0376 11.362 57.6024 10.7693 57.1746 10.256C57.135 10.2089 57.0941 10.163 57.0544 10.1171C57.5268 10.1643 57.9991 10.2188 58.4715 10.2808C59.1373 11.362 59.6221 13.1882 58.3041 13.7412Z" fill="#F2840E"/>
<path d="M58.4715 10.2808C57.9991 10.2188 57.5268 10.1643 57.0544 10.1172C56.0637 9.01369 54.8573 8.60454 53.5009 8.1024C53.372 8.05405 53.3708 7.86932 53.5096 7.83088C53.7266 7.77261 53.951 7.74531 54.1804 7.74531C55.6136 7.74531 57.2056 8.81159 58.0896 9.76627C58.2161 9.90265 58.3463 10.0787 58.4715 10.2808Z" fill="#F59110"/>
<path d="M21.9432 34.4207C21.5861 34.4207 21.57 33.9483 21.8105 33.7772C23.2673 32.7444 24.9907 32.0637 26.5591 31.2119C28.2267 30.3068 29.7269 29.6373 31.5941 29.3038C31.6053 29.3026 31.6152 29.3013 31.6264 29.3013C31.8061 29.3013 31.9214 29.5679 31.728 29.6497C28.5652 31.0036 25.4941 34.2409 21.9655 34.4207C21.958 34.4207 21.9506 34.4207 21.9432 34.4207Z" fill="#EC6C09"/>
<path d="M22.6188 31.4301C22.2295 31.4301 21.9605 30.9515 22.1762 30.6044C22.7887 29.6237 24.1786 29.5009 25.2138 29.4216C25.2237 29.4203 25.2324 29.4203 25.2411 29.4203C25.5573 29.4203 25.5969 29.8729 25.3576 30.0204C24.9349 30.2808 24.5232 30.5598 24.0719 30.7681C23.6281 30.9739 23.2325 31.2727 22.7589 31.409C22.7106 31.4239 22.6647 31.4301 22.6188 31.4301Z" fill="#EC6C09"/>
<path d="M19.7288 33.2007C19.6321 33.2007 19.5378 33.1697 19.4486 33.0978L19.3494 32.8312C19.4089 32.6465 19.5279 32.5845 19.6903 32.4915C19.9098 32.3675 20.1069 32.2361 20.2793 32.0526C20.335 31.9918 20.4008 31.967 20.464 31.967C20.6624 31.967 20.8483 32.2076 20.7219 32.4134C20.5533 32.6886 20.1255 33.2007 19.7288 33.2007Z" fill="#EC6C09"/>
<path d="M34.7867 27.8619C34.6181 27.8619 34.4866 27.6635 34.5362 27.5048C34.752 26.8043 35.486 26.3778 36.0675 25.9934C36.7531 25.5384 37.5627 25.2322 38.3661 25.071C38.381 25.0673 38.3959 25.066 38.4108 25.066C38.593 25.066 38.6624 25.309 38.5 25.4157C37.895 25.8161 37.275 26.1893 36.6712 26.591C36.0736 26.9865 35.538 27.6077 34.8623 27.8483C34.8363 27.8582 34.8102 27.8619 34.7867 27.8619Z" fill="#EC6C09"/>
<path d="M28.5763 28.7087C28.4449 28.7087 28.3172 28.5909 28.3705 28.4495C28.73 27.4986 29.6078 26.9283 30.4534 26.4447C31.4341 25.8831 32.5537 25.2222 33.677 25.0201C33.7018 25.0152 33.7266 25.0127 33.7514 25.0127C34.0428 25.0127 34.1668 25.345 33.9795 25.5756C33.315 26.384 32.2623 26.8836 31.3697 27.4019C30.4993 27.9077 29.624 28.5252 28.6122 28.7062C28.6011 28.7087 28.5887 28.7087 28.5763 28.7087Z" fill="#EC6C09"/>
<path d="M12.0268 33.1536C11.9475 33.1536 11.8669 33.13 11.7962 33.0754C10.942 32.4183 10.7089 31.3372 10.8242 30.1507C11.3759 30.5809 11.981 30.9305 12.6306 31.1772C12.6629 31.7463 12.6616 32.3055 12.4918 32.8163C12.4285 33.0048 12.2264 33.1536 12.0268 33.1536Z" fill="#E75B06"/>
<path d="M12.6306 31.1772C11.9809 30.9305 11.3759 30.5808 10.8242 30.1506C11.0188 28.1507 12.2041 25.8496 13.0745 24.7721C13.1538 24.6754 13.2728 24.6308 13.3894 24.6308C13.6175 24.6308 13.8345 24.7982 13.7217 25.0672C13.1588 26.3926 12.8141 27.7986 12.6058 29.2207C12.5141 29.8469 12.5947 30.5188 12.6306 31.1772Z" fill="#EB6609"/>
<path d="M14.5636 22.9843C14.4061 22.9843 14.2598 22.9112 14.1805 22.7649C14.0453 22.5169 14.0949 22.2565 14.235 22.021C14.4173 21.7147 14.6938 21.6403 15.0273 21.6081C15.0471 21.6056 15.0657 21.6043 15.0831 21.6043C15.5951 21.6043 15.6385 22.3483 15.2628 22.5876C15.0558 22.719 14.9145 22.9285 14.659 22.9756C14.6268 22.9818 14.5946 22.9843 14.5636 22.9843Z" fill="#EB6609"/>
<path d="M9.5732 34.1641C9.51244 34.1641 9.45043 34.143 9.3996 34.0971C8.14611 32.9676 8.36929 29.9684 9.21362 28.6604C9.23346 28.6282 9.25827 28.6021 9.28554 28.581C9.4492 28.7955 9.62029 29.0026 9.80007 29.1997C9.7232 29.9436 9.59178 30.6714 9.59054 31.4265C9.5893 32.2708 9.84099 33.1003 9.80379 33.9434C9.79635 34.0847 9.6885 34.1641 9.5732 34.1641Z" fill="#E75B06"/>
<path d="M9.80005 29.1996C9.62027 29.0024 9.44918 28.7954 9.28552 28.5809C9.34627 28.5325 9.4219 28.5103 9.49753 28.5103C9.67359 28.5103 9.8484 28.6355 9.83228 28.8475C9.82361 28.9653 9.81245 29.083 9.80005 29.1996Z" fill="#EB6609"/>
<path d="M18.9663 19.9541C19.5329 19.4557 20.2346 19.0502 20.7913 18.6572C21.8464 17.9108 23.2437 16.9549 24.6039 16.9549C24.6646 16.9549 24.7241 16.9574 24.7849 16.9611C24.2951 17.1781 23.8091 17.4062 23.3268 17.6455C21.8973 18.3534 20.3289 19.0391 18.9663 19.9541Z" fill="#EB6609"/>
<path d="M18.3376 21.6688C18.1306 21.6688 17.988 21.432 18.0463 21.2448C18.2037 20.7414 18.5484 20.3224 18.9663 19.9541C20.3289 19.0391 21.8972 18.3535 23.3268 17.6455C23.8091 17.4062 24.2951 17.1781 24.7849 16.9611C24.8282 16.9636 24.8704 16.9673 24.9138 16.9723C25.2039 17.0045 25.3837 17.3554 25.1444 17.5773C24.2071 18.4415 22.8643 18.9089 21.7943 19.6132C20.7504 20.2988 19.6593 21.6081 18.35 21.6676C18.3463 21.6688 18.3414 21.6688 18.3376 21.6688Z" fill="#E55405"/>
<path d="M17.1461 24.7499C16.9242 24.7499 16.7147 24.5998 16.7221 24.3023C16.732 23.8249 17.0631 23.4592 17.5355 23.3947C17.559 23.391 17.5813 23.3898 17.6037 23.3898C17.9831 23.3898 18.1368 23.8535 17.8033 24.0853C17.6966 24.1597 17.6545 24.3345 17.6049 24.4486C17.5168 24.6507 17.3272 24.7499 17.1461 24.7499Z" fill="#E55405"/>
<path d="M16.2696 29.9695L15.9559 29.9596C15.3459 29.4997 15.517 28.6293 15.5716 27.9536C15.6336 27.191 15.9609 26.5141 16.4482 25.9339C16.5064 25.8657 16.5771 25.8372 16.6478 25.8372C16.8399 25.8372 17.0346 26.0516 16.9726 26.2612C16.7581 26.9766 16.7655 27.7329 16.7494 28.4731C16.7358 29.0533 16.7941 29.6137 16.2696 29.9695Z" fill="#E55405"/>
<path d="M17.7611 19.7892C17.6086 19.7892 17.4462 19.6441 17.5156 19.4792C17.8119 18.7886 18.4381 18.3473 19.0196 17.9083C19.601 17.4707 20.1652 16.9512 20.8545 16.697C20.888 16.6846 20.9202 16.6784 20.95 16.6784C21.162 16.6784 21.2587 16.9648 21.1756 17.1409C20.8756 17.7781 20.2569 18.222 19.7225 18.6523C19.1534 19.1098 18.541 19.6429 17.8045 19.7842C17.7896 19.7879 17.776 19.7892 17.7611 19.7892Z" fill="#EB6609"/>
<path d="M31.1589 16.2545C31.1527 16.2545 31.1465 16.2545 31.1403 16.2545C30.4733 16.2346 30.4981 15.2105 31.1515 15.2105C31.1577 15.2105 31.1639 15.2105 31.1701 15.2105C31.8371 15.2304 31.8123 16.2545 31.1589 16.2545Z" fill="#E55405"/>
<path d="M21.891 21.6935C21.7187 21.6935 21.5724 21.4605 21.6902 21.3129C22.5184 20.2715 24.1637 20.238 25.3366 19.7582C26.6235 19.2325 27.3389 17.9096 28.5887 17.2884C28.616 17.2748 28.642 17.2698 28.6681 17.2698C28.7995 17.2698 28.8838 17.4372 28.7796 17.5512C27.8894 18.5332 27.3017 19.6131 26.1611 20.3508C25.5287 20.76 24.7229 20.962 24.0124 21.1741C23.3094 21.3823 22.6312 21.6849 21.8948 21.6935C21.8935 21.6935 21.8923 21.6935 21.891 21.6935Z" fill="#E55405"/>
<path d="M28.3147 14.8682C28.1399 14.8682 27.9601 14.7182 27.9824 14.5322C28.3135 11.7091 32.4645 11.3037 35.729 11.3037C36.9751 11.3037 38.0909 11.3632 38.8175 11.3694C38.9762 11.3706 39.0183 11.5863 38.8881 11.662C37.3966 12.515 35.3955 12.6737 33.7167 12.8572C32.7075 12.9675 31.7169 13.1783 30.7771 13.5651C29.9042 13.9222 29.2992 14.6227 28.3866 14.8595C28.3631 14.8657 28.3395 14.8682 28.3147 14.8682Z" fill="#EB6609"/>
<path d="M45.2386 12.9081C45.2026 12.9081 45.163 12.8994 45.1208 12.882C44.884 12.7804 44.6323 12.7171 44.3781 12.7171C44.2814 12.7171 44.1847 12.7271 44.088 12.7457C43.9727 12.7692 43.8425 12.8052 43.726 12.8052C43.5884 12.8052 43.4706 12.7556 43.421 12.5758L43.514 12.2621C43.7619 12.0476 44.0471 11.9522 44.336 11.9522C44.6968 11.9522 45.0625 12.1009 45.3638 12.3477C45.5696 12.515 45.4866 12.9081 45.2386 12.9081Z" fill="#EB6609"/>
<path d="M48.9581 12.8349C47.7766 12.8349 46.7252 12.0079 45.7569 11.4091C44.9857 10.933 44.3174 10.3639 43.483 9.98573C42.6461 9.60634 41.741 9.74274 40.8632 9.60264C40.7132 9.57908 40.5842 9.41665 40.6474 9.27903C41.9369 9.29639 43.2251 9.34475 44.512 9.40922C44.5368 9.42286 44.5604 9.43647 44.584 9.45011C45.3204 9.86794 45.9999 10.4259 46.6347 10.9826C47.4331 11.6856 48.3606 12.0724 49.2508 12.6229L49.1888 12.825C49.1119 12.8312 49.0338 12.8349 48.9581 12.8349Z" fill="#EB6609"/>
<path d="M44.512 9.40924C43.2251 9.34477 41.9369 9.29641 40.6474 9.27905C40.6598 9.25053 40.6797 9.22451 40.7094 9.19971C41.1694 8.82032 41.6777 8.67154 42.1972 8.67154C42.9845 8.67154 43.7991 9.01249 44.512 9.40924Z" fill="#EE700A"/>
<path d="M96.7939 26.0554C101.609 29.4799 106.807 36.1502 106.103 42.3222C104.61 55.3964 93.6893 64.7734 74.9466 66.7137C56.2026 68.6516 41.0343 65.7194 39.4708 50.0179C38.5211 40.4538 45.525 31.2305 53.2579 26.2637C60.9363 21.3316 70.6852 18.9573 79.7696 19.8338C84.8926 20.3261 91.6684 22.4115 96.7939 26.0554Z" fill="#EE880B"/>
<path d="M47.3364 35.5948C46.347 35.239 45.3403 34.9216 44.3199 34.6414C46.7921 31.2764 49.9587 28.3826 53.2579 26.2637C59.8861 22.0061 68.058 19.6541 76.0128 19.6541C77.2738 19.6541 78.5273 19.7136 79.7696 19.8338C84.8926 20.3261 91.6684 22.4115 96.7939 26.0554C98.8682 27.5308 101.014 29.6088 102.728 31.9893C102.217 31.7872 101.699 31.636 101.163 31.4971C100.451 31.3123 99.7584 31.0768 99.038 30.9144C98.9612 30.8995 98.8917 30.8858 98.8298 30.8734C98.5198 30.835 98.2111 30.7904 97.9023 30.7408C97.6556 30.7048 97.4076 30.6701 97.1597 30.6379C97.027 30.4209 96.8869 30.2337 96.753 30.0874C95.8082 29.067 94.1084 27.9276 92.576 27.9276C92.3317 27.9276 92.0912 27.9573 91.8581 28.0206C91.7118 28.0602 91.7118 28.2574 91.8494 28.3094C93.2988 28.8475 94.587 29.284 95.6458 30.4631C94.4283 30.3428 93.2083 30.2672 91.9796 30.2262C90.9666 30.194 89.9574 30.1469 88.9482 30.0923C85.7531 26.0145 80.2494 24.6742 74.7308 24.6742C70.922 24.6742 67.1045 25.314 64.0384 26.1335C59.0319 27.4713 54.4532 29.7427 50.3629 32.9118C49.3933 33.6619 48.3432 34.5707 47.3364 35.5948Z" fill="#F2970E"/>
<path d="M65.7631 67.2406C66.6297 65.4354 67.1728 63.3958 67.3488 61.0972C73.522 60.1524 79.6047 58.4178 85.4667 56.3275C89.3908 54.9289 94.3105 52.2756 97.4052 49.4004C99.534 47.4216 101.161 45.3747 102.854 43.0264C104.006 41.4307 104.672 39.5164 105.689 37.8847C105.995 38.9708 106.165 40.0694 106.167 41.1592C106.167 41.5485 106.146 41.9366 106.103 42.3222C104.61 55.3963 93.6894 64.7733 74.9466 66.7137C71.7664 67.0422 68.6891 67.2307 65.7631 67.2406Z" fill="#E76E06"/>
<path d="M67.1851 56.3635C66.983 55.0852 66.6458 53.8391 66.192 52.6303C66.9905 52.1306 67.7864 51.6744 68.5886 51.3309C68.7957 51.2417 68.6717 50.959 68.4807 50.959C68.4683 50.959 68.4572 50.9602 68.4448 50.9614C67.5013 51.1301 66.6445 51.3793 65.8163 51.6967C65.6155 51.2317 65.3985 50.7718 65.1654 50.3192C65.1828 50.3242 65.2026 50.3266 65.2212 50.3266C65.2336 50.3266 65.2472 50.3254 65.2596 50.3229C66.3408 50.1295 67.2756 49.4687 68.2067 48.9293C69.1602 48.3764 70.2835 47.842 70.9927 46.9791C71.1948 46.7323 71.0621 46.3765 70.7509 46.3765C70.7249 46.3765 70.6988 46.379 70.6703 46.3839C69.4714 46.6009 68.2737 47.3064 67.2273 47.9065C66.3309 48.4185 65.3997 49.0223 65.0104 50.0254C64.1066 48.3317 62.9808 46.7311 61.6988 45.2482C61.7546 45.2024 61.8116 45.1577 61.8699 45.1131C62.3001 44.7746 62.5171 44.6048 62.5183 44.6048C62.5196 44.6048 62.3906 44.7077 62.1315 44.9135C62.6002 44.6023 63.0763 44.3047 63.561 44.022C64.3074 43.5992 65.0551 43.1764 65.8312 42.8119C66.6185 42.4437 67.412 42.0854 68.208 41.7345C68.2043 41.7358 68.2043 41.7358 68.2043 41.7358C68.2105 41.7358 68.637 41.5721 69.0511 41.4097C69.4652 41.246 69.8682 41.0836 69.8297 41.0836C69.8148 41.0836 69.733 41.1071 69.5606 41.1667C74.7221 39.4147 80.2209 38.9697 85.3848 37.3752C86.5949 38.5568 87.3549 40.0768 86.8503 41.7407C85.4505 46.3567 79.2736 48.9529 75.3619 51.1288C72.7632 52.5745 70.0405 54.7207 67.1851 56.3635ZM75.7276 46.4335C75.7128 46.4335 75.6967 46.4348 75.6793 46.4385C74.8226 46.6108 73.9572 46.9369 73.2244 47.4242C72.6045 47.8358 71.8197 48.2908 71.5891 49.0384C71.5357 49.2095 71.6758 49.4216 71.8556 49.4216C71.8816 49.4216 71.9089 49.4166 71.9362 49.4079C72.6603 49.1488 73.2318 48.4855 73.8679 48.0627C74.5138 47.6337 75.1772 47.2357 75.8244 46.808C75.9967 46.6926 75.9223 46.4335 75.7276 46.4335Z" fill="#E76E06"/>
<path d="M56.0711 40.1451C55.8926 40.0174 55.7128 39.8909 55.5331 39.7657C55.6099 39.7037 55.6855 39.643 55.7612 39.5822C56.334 39.1222 56.9948 38.6474 57.3147 37.9667C57.404 37.7782 57.2998 37.472 57.0754 37.472C57.0432 37.472 57.0085 37.4782 56.9713 37.4918C56.2348 37.7646 55.631 38.3188 55.0111 38.7862C54.8648 38.8978 54.7148 39.0094 54.5672 39.1234C54.2064 38.8928 53.8431 38.6684 53.4774 38.4527C56.4319 36.2297 60.9933 33.6086 65.1344 31.8989C65.3998 31.791 65.5994 31.7104 65.7308 31.6559C66.14 31.5071 66.5503 31.3633 66.9607 31.2256C67.9414 30.9057 68.9247 30.5908 69.9252 30.3391C70.7187 30.1395 73.9113 29.682 73.1996 29.682C73.1376 29.682 73.0434 29.6857 72.9157 29.6932C74.3006 29.5977 75.6793 29.5593 77.058 29.5593C77.4114 29.5593 77.7635 29.5617 78.1169 29.5667C78.0512 29.7142 78.1888 29.8878 78.3487 29.9126C79.2861 30.0626 80.2531 29.9176 81.147 30.323C82.0385 30.7272 82.7527 31.3347 83.5759 31.8431C84.6112 32.4828 85.7333 33.3668 86.9954 33.3668C87.0773 33.3668 87.1603 33.3631 87.2446 33.3544L87.3091 33.1399C86.3594 32.5523 85.3675 32.1382 84.5132 31.3881C83.8363 30.7929 83.111 30.1966 82.3237 29.7502C82.2976 29.7353 82.2716 29.7217 82.2468 29.7068C84.4785 29.8184 86.7103 29.9734 88.9482 30.0924C89.3177 30.5648 89.6574 31.0731 89.9611 31.6211C90.7943 33.1176 90.2909 35.4498 88.6221 36.1825C87.562 36.6475 86.4809 37.0368 85.3849 37.3753C84.3223 36.3363 82.9113 35.5577 81.7075 35.1708C79.7944 34.5559 77.6346 34.2757 75.4847 34.2757C73.6683 34.2757 71.8594 34.4765 70.2116 34.8423C67.0946 35.5378 64.0781 36.4813 61.1706 37.7745C61.1062 37.7695 61.0405 37.7683 60.976 37.7683C59.5229 37.7683 58.0314 38.7887 56.9043 39.5871C56.6477 39.7682 56.3613 39.9517 56.0711 40.1451ZM72.8649 31.7303C69.3772 31.7303 64.941 32.1642 64.5864 35.1782C64.5629 35.3779 64.755 35.5391 64.9422 35.5391C64.9683 35.5391 64.9943 35.5353 65.0191 35.5291C65.9949 35.2762 66.6396 34.5286 67.5707 34.1455C68.5775 33.7338 69.6338 33.5082 70.7137 33.3904C72.5078 33.1933 74.6453 33.0246 76.2373 32.1133C76.3774 32.0328 76.3315 31.8021 76.1616 31.7997C75.3855 31.7935 74.1952 31.7303 72.8649 31.7303ZM82.1017 33.2404C82.3745 33.2404 82.6435 33.3073 82.8965 33.4164C82.9411 33.435 82.9845 33.4437 83.0229 33.4437C83.2883 33.4437 83.3751 33.0247 83.1569 32.8461C82.8345 32.582 82.4439 32.4233 82.0571 32.4233C81.7496 32.4233 81.4446 32.525 81.1805 32.7544C81.09 32.8325 81.0491 32.9751 81.0814 33.0879C81.1347 33.2801 81.2599 33.3334 81.4062 33.3334C81.5314 33.3334 81.6703 33.2949 81.793 33.2701C81.8959 33.2503 81.9988 33.2404 82.1017 33.2404Z" fill="#F2970E"/>
<path d="M53.4774 38.4526C52.4471 37.8439 51.4007 37.2983 50.3517 36.8198C49.3685 36.3722 48.3618 35.963 47.3364 35.5948C48.3432 34.5707 49.3934 33.6619 50.3629 32.9118C54.4532 29.7427 59.0319 27.4713 64.0384 26.1335C67.1045 25.314 70.922 24.6742 74.7308 24.6742C80.2494 24.6742 85.7531 26.0145 88.9482 30.0923C86.7103 29.9733 84.4785 29.8183 82.2468 29.7068C81.4843 29.2827 80.6152 28.9182 79.7733 28.9182C79.2179 28.9182 78.6748 29.0769 78.1838 29.4823C78.1516 29.5084 78.1305 29.5369 78.1169 29.5666C77.7635 29.5617 77.4114 29.5592 77.058 29.5592C75.6793 29.5592 74.3006 29.5976 72.9157 29.6931C73.0434 29.6857 73.1377 29.682 73.1996 29.682C73.9113 29.682 70.7187 30.1395 69.9252 30.3391C68.9247 30.5908 67.9414 30.9057 66.9607 31.2256C66.5503 31.3632 66.14 31.507 65.7308 31.6558C65.5994 31.7103 65.3998 31.7909 65.1344 31.8988C60.9933 33.6085 56.4319 36.2296 53.4774 38.4526Z" fill="#F5A410"/>
<path d="M61.6988 45.2482C60.909 44.3369 60.0585 43.469 59.1646 42.6507C59.5589 42.5379 59.9482 42.3928 60.3437 42.275C61.105 42.0494 61.9666 41.8324 62.6411 41.396C63.8587 40.6074 64.4872 39.4544 65.4394 38.4055C65.5498 38.2827 65.4593 38.1042 65.3192 38.1042C65.2919 38.1042 65.2634 38.1104 65.2349 38.1253C63.8983 38.7873 63.1346 40.2007 61.7596 40.7636C60.7156 41.1889 59.3208 41.2869 58.3723 41.9502C58.0289 41.6563 57.6792 41.3687 57.3246 41.0897C57.5441 40.9137 57.7598 40.7475 57.9743 40.6074C59.1187 39.8548 60.552 39.3564 61.555 38.4327C61.8104 38.1972 61.6195 37.8215 61.3083 37.7855C61.2624 37.7806 61.2165 37.7768 61.1707 37.7744C64.0781 36.4812 67.0946 35.5377 70.2116 34.8421C71.8594 34.4764 73.6683 34.2755 75.4847 34.2755C77.6346 34.2755 79.7944 34.5557 81.7075 35.1707C82.9114 35.5575 84.3223 36.3361 85.3849 37.3751C80.2209 38.9696 74.7222 39.4147 69.5607 41.1666C69.733 41.1071 69.8149 41.0835 69.8298 41.0835C69.8682 41.0835 69.4652 41.2459 69.0511 41.4096C68.637 41.572 68.2105 41.7357 68.2043 41.7357C68.2043 41.7357 68.2043 41.7357 68.208 41.7344C67.412 42.0853 66.6186 42.4436 65.8313 42.8119C65.0551 43.1764 64.3075 43.5992 63.5611 44.022C63.0763 44.3046 62.6002 44.6022 62.1315 44.9134C62.3907 44.7076 62.5196 44.6047 62.5184 44.6047C62.5171 44.6047 62.3001 44.7746 61.8699 45.113C61.8116 45.1577 61.7546 45.2023 61.6988 45.2482ZM67.9725 35.9047C67.2732 35.9047 67.2484 36.9982 67.9601 37.0193C67.9663 37.0193 67.9724 37.0193 67.9799 37.0193C68.6792 37.0193 68.704 35.9258 67.9923 35.9047C67.9861 35.9047 67.9799 35.9047 67.9725 35.9047Z" fill="#EC8009"/>
<path d="M93.7179 47.0857C93.4228 47.0857 93.2157 46.7435 93.3806 46.4745C94.0824 45.3239 95.0829 44.4002 95.9074 43.3414C96.9291 42.0308 97.8168 40.6571 98.4876 39.1321C98.5768 38.93 98.7479 38.8395 98.9141 38.8395C99.1682 38.8395 99.4113 39.0503 99.3307 39.3912C98.6649 42.192 96.913 46.3046 93.8134 47.0745C93.7811 47.082 93.7489 47.0857 93.7179 47.0857Z" fill="#F2970E"/>
<path d="M89.9959 51.4673C89.4491 51.4673 88.9755 50.8734 89.3338 50.3514C89.676 49.853 90.1186 49.4761 90.6666 49.2046C91.1179 48.9814 91.6052 48.726 92.1185 48.726C92.1582 48.726 92.1978 48.7272 92.2388 48.7309C92.633 48.7632 92.8624 49.1698 92.6615 49.5195C92.4198 49.9385 92.0143 50.2547 91.6709 50.5882C91.2295 51.0147 90.7361 51.3433 90.1323 51.4549C90.0864 51.4636 90.0405 51.4673 89.9959 51.4673Z" fill="#F2970E"/>
<path d="M97.0245 47.6461C96.8162 47.6461 96.5993 47.4701 96.6265 47.2444C96.7307 46.3852 97.5292 45.7219 98.1503 45.1875C98.955 44.4969 99.8278 43.8125 100.485 42.9744C100.542 42.9025 100.619 42.8702 100.692 42.8702C100.835 42.8702 100.966 42.9905 100.921 43.1728C100.667 44.1993 100.135 45.0102 99.4323 45.7901C98.836 46.4497 98.0015 47.4118 97.1101 47.6362C97.0815 47.6436 97.053 47.6461 97.0245 47.6461Z" fill="#F2970E"/>
<path d="M92.6169 44.6271C92.6094 44.6271 92.6032 44.6271 92.5958 44.6271C92.3553 44.6209 92.24 44.399 92.2796 44.1857C92.3664 43.7232 92.819 43.3661 93.1475 43.0574C93.4996 42.7301 93.796 42.3458 94.1531 42.0234C94.2027 41.9788 94.2621 41.9577 94.3204 41.9577C94.4494 41.9577 94.5734 42.0606 94.5734 42.2131C94.5734 42.7946 94.3056 43.2694 93.9621 43.7257C93.641 44.1473 93.1822 44.6271 92.6169 44.6271Z" fill="#F2970E"/>
<path d="M82.6622 52.882C82.4179 52.882 82.2543 52.6576 82.3076 52.4096C82.5754 51.171 83.9405 50.3242 84.853 49.5468C85.9676 48.5971 87.2223 47.537 88.5911 46.9939C88.6283 46.979 88.668 46.9729 88.7077 46.9729C88.9234 46.9729 89.1391 47.1799 88.978 47.4043C88.1944 48.4954 87.0736 49.3856 86.0705 50.2708C85.0935 51.1325 84.0719 52.6067 82.7452 52.8733C82.7167 52.8795 82.6895 52.882 82.6622 52.882Z" fill="#F2970E"/>
<path d="M84.3508 54.7715C84.2901 54.7715 84.2306 54.7678 84.1698 54.7616C83.6553 54.702 83.3949 54.1193 83.7781 53.7288C84.3893 53.1064 85.5783 52.6947 86.4412 52.6613C86.4462 52.66 86.4499 52.66 86.4536 52.66C86.7599 52.66 87.0091 53.0816 86.8033 53.3345C86.2553 54.0102 85.2758 54.7715 84.3508 54.7715Z" fill="#F2970E"/>
<path d="M77.1721 56.692C76.8584 56.692 76.5857 56.5606 76.4505 56.1675C76.3674 55.9208 76.4914 55.6592 76.6538 55.4844C77.1498 54.9476 77.9123 54.7169 78.588 54.4752C79.3009 54.2222 80.0746 53.9854 80.8383 53.9854C80.878 53.9854 80.9177 53.9867 80.9574 53.9879C81.2983 53.9991 81.4223 54.402 81.2029 54.6339C80.4527 55.4298 79.3245 55.8812 78.35 56.3337C78.0177 56.4887 77.5627 56.692 77.1721 56.692Z" fill="#F2970E"/>
<path d="M74.7631 54.8881C74.6019 54.8881 74.4829 54.6612 74.5858 54.531C75.2566 53.678 76.2546 53.0692 77.1548 52.4741C78.2533 51.7488 79.3877 50.8772 80.7168 50.6713C80.7354 50.6689 80.7541 50.6676 80.7727 50.6676C81.0901 50.6676 81.3864 51.0805 81.0702 51.321C80.1155 52.0488 79.0393 52.6117 78.0512 53.2949C77.063 53.9793 76.0153 54.8 74.7755 54.8868C74.7718 54.8881 74.7668 54.8881 74.7631 54.8881Z" fill="#F2970E"/>
<path d="M71.6548 58.2976C71.5556 58.2976 71.454 58.2852 71.3486 58.2579C71.1204 58.1984 70.953 57.9071 71.0436 57.6814C71.2332 57.2078 71.5854 56.9908 72.0007 56.7156C72.3839 56.4614 72.7161 56.1303 73.1067 55.8886C73.1773 55.8452 73.248 55.8266 73.315 55.8266C73.5803 55.8266 73.7935 56.1217 73.7278 56.3957C73.6051 56.9127 73.2443 57.3429 72.8637 57.6963C72.5116 58.0248 72.116 58.2976 71.6548 58.2976Z" fill="#F2970E"/>
<path d="M89.4317 44.1981C89.3697 44.1981 89.3065 44.187 89.2457 44.1634C89.1304 44.1188 89.0387 44.0754 88.9544 43.9824C88.7944 43.8076 88.7238 43.5522 88.8006 43.3228C89.6673 40.7315 94.52 36.5978 91.7899 33.7846C91.6411 33.6309 91.7676 33.3594 91.9647 33.3594C91.9907 33.3594 92.0168 33.3643 92.0453 33.3743C93.8666 34.0487 93.7984 35.9978 93.3942 37.6071C92.8971 39.597 91.5308 42.6917 89.9053 44.0097C89.7739 44.1163 89.604 44.1981 89.4317 44.1981Z" fill="#F2970E"/>
<path d="M96.9811 34.3339L96.8113 34.2595C96.6885 33.6941 96.8398 33.1064 96.7766 32.5274C96.6984 31.7922 96.2335 31.1599 95.7735 30.6118C95.7314 30.561 95.6892 30.5114 95.6458 30.4631C96.1504 30.5127 96.6551 30.5709 97.1597 30.6379C97.8713 31.7922 98.3896 33.7437 96.9811 34.3339Z" fill="#F2970E"/>
<path d="M97.1597 30.6379C96.655 30.571 96.1504 30.5127 95.6458 30.4631C94.587 29.284 93.2988 28.8476 91.8494 28.3095C91.7118 28.2574 91.7118 28.0603 91.8581 28.0206C92.0912 27.9574 92.3317 27.9276 92.5759 27.9276C94.1084 27.9276 95.8082 29.0671 96.753 30.0875C96.8869 30.2338 97.027 30.421 97.1597 30.6379Z" fill="#F5A410"/>
<path d="M66.192 52.6303C66.0742 52.3166 65.949 52.0054 65.8163 51.6967C66.6446 51.3793 67.5013 51.1301 68.4448 50.9615C68.4572 50.9602 68.4684 50.959 68.4808 50.959C68.6717 50.959 68.7957 51.2417 68.5887 51.331C67.7865 51.6744 66.9905 52.1307 66.192 52.6303Z" fill="#EC8009"/>
<path d="M71.8556 49.4216C71.6758 49.4216 71.5358 49.2095 71.5891 49.0384C71.8197 48.2908 72.6045 47.8358 73.2244 47.4242C73.9572 46.9369 74.8226 46.6108 75.6793 46.4385C75.6967 46.4348 75.7128 46.4335 75.7277 46.4335C75.9223 46.4335 75.9967 46.6927 75.8244 46.808C75.1772 47.2357 74.5139 47.6337 73.8679 48.0627C73.2319 48.4855 72.6603 49.1488 71.9362 49.4079C71.909 49.4166 71.8817 49.4216 71.8556 49.4216Z" fill="#EC8009"/>
<path d="M65.2212 50.3267C65.2026 50.3267 65.1828 50.3242 65.1654 50.3192C65.1146 50.2213 65.0625 50.1233 65.0105 50.0254C65.3998 49.0223 66.3309 48.4185 67.2273 47.9065C68.2738 47.3064 69.4714 46.6009 70.6704 46.384C70.6989 46.379 70.7249 46.3765 70.751 46.3765C71.0622 46.3765 71.1948 46.7323 70.9927 46.9791C70.2835 47.842 69.1602 48.3764 68.2068 48.9294C67.2757 49.4687 66.3408 50.1295 65.2597 50.323C65.2473 50.3254 65.2336 50.3267 65.2212 50.3267Z" fill="#EC8009"/>
<path d="M56.1815 40.2244C56.1443 40.1984 56.1083 40.1711 56.0711 40.1451C56.3613 39.9517 56.6477 39.7682 56.9043 39.5871C58.0314 38.7887 59.5229 37.7683 60.976 37.7683C61.0405 37.7683 61.1062 37.7695 61.1706 37.7745C60.6474 38.0063 60.1279 38.2506 59.6121 38.506C58.4988 39.0565 57.3085 39.5958 56.1815 40.2244Z" fill="#EB7A09"/>
<path d="M57.3246 41.0898C56.9489 40.7923 56.5683 40.5046 56.1815 40.2244C57.3085 39.5958 58.4988 39.0565 59.6121 38.506C60.1279 38.2506 60.6474 38.0063 61.1706 37.7745C61.2165 37.777 61.2624 37.7807 61.3083 37.7857C61.6195 37.8216 61.8104 38.1973 61.555 38.4329C60.552 39.3565 59.1187 39.855 57.9743 40.6075C57.7598 40.7476 57.5441 40.9138 57.3246 41.0898Z" fill="#E56705"/>
<path d="M55.5331 39.7656C55.2132 39.5461 54.8908 39.3316 54.5672 39.1233C54.7148 39.0093 54.8648 38.8977 55.0111 38.7861C55.631 38.3187 56.2348 37.7645 56.9713 37.4917C57.0085 37.4781 57.0432 37.4718 57.0754 37.4718C57.2999 37.4718 57.404 37.7781 57.3147 37.9665C56.9948 38.6472 56.334 39.1221 55.7612 39.5821C55.6856 39.6428 55.6099 39.7036 55.5331 39.7656Z" fill="#EB7A09"/>
<path d="M67.9798 37.0194C67.9724 37.0194 67.9662 37.0194 67.96 37.0194C67.2483 36.9983 67.2731 35.9048 67.9724 35.9048C67.9799 35.9048 67.986 35.9048 67.9922 35.9048C68.7039 35.9259 68.6791 37.0194 67.9798 37.0194Z" fill="#E56705"/>
<path d="M59.1646 42.6507C58.9042 42.4126 58.6401 42.1796 58.3723 41.9502C59.3208 41.2869 60.7156 41.1889 61.7596 40.7636C63.1346 40.2007 63.8983 38.7873 65.2349 38.1253C65.2634 38.1104 65.2919 38.1042 65.3192 38.1042C65.4593 38.1042 65.5498 38.2827 65.4394 38.4055C64.4872 39.4544 63.8587 40.6074 62.6411 41.396C61.9667 41.8324 61.105 42.0494 60.3437 42.275C59.9482 42.3928 59.5589 42.5379 59.1646 42.6507Z" fill="#E56705"/>
<path d="M64.9423 35.539C64.755 35.539 64.5629 35.3778 64.5864 35.1782C64.941 32.1641 69.3772 31.7302 72.8649 31.7302C74.1953 31.7302 75.3855 31.7934 76.1616 31.7996C76.3315 31.8021 76.3774 32.0327 76.2373 32.1133C74.6453 33.0246 72.5078 33.1932 70.7138 33.3903C69.6338 33.5081 68.5775 33.7338 67.5707 34.1454C66.6396 34.5285 65.9949 35.2761 65.0191 35.5291C64.9943 35.5353 64.9683 35.539 64.9423 35.539Z" fill="#EB7A09"/>
<path d="M83.0229 33.4436C82.9845 33.4436 82.9411 33.4349 82.8965 33.4163C82.6436 33.3072 82.3745 33.2403 82.1018 33.2403C81.9988 33.2403 81.8959 33.2502 81.793 33.27C81.6703 33.2948 81.5314 33.3333 81.4062 33.3333C81.2599 33.3333 81.1347 33.28 81.0814 33.0878C81.0491 32.975 81.09 32.8324 81.1805 32.7543C81.4446 32.5249 81.7496 32.4232 82.0571 32.4232C82.4439 32.4232 82.8345 32.5819 83.1569 32.846C83.3751 33.0246 83.2883 33.4436 83.0229 33.4436Z" fill="#EB7A09"/>
<path d="M86.9954 33.3668C85.7332 33.3668 84.6112 32.4827 83.5759 31.843C82.7526 31.3346 82.0385 30.7271 81.147 30.3229C80.2531 29.9175 79.286 30.0626 78.3487 29.9125C78.1888 29.8877 78.0511 29.7142 78.1169 29.5666C79.4943 29.5852 80.8706 29.6373 82.2468 29.7067C82.2716 29.7216 82.2976 29.7353 82.3237 29.7501C83.111 30.1965 83.8363 30.7928 84.5132 31.388C85.3675 32.1381 86.3594 32.5522 87.3091 33.1399L87.2446 33.3543C87.1603 33.363 87.0772 33.3668 86.9954 33.3668Z" fill="#EB7A09"/>
<path d="M82.2468 29.7068C80.8706 29.6374 79.4943 29.5853 78.1169 29.5667C78.1305 29.5369 78.1516 29.5084 78.1838 29.4824C78.6748 29.0769 79.2178 28.9182 79.7733 28.9182C80.6152 28.9182 81.4843 29.2828 82.2468 29.7068Z" fill="#EE840A"/>
<path d="M7.23235 42.8268C2.95364 46.9035 -1.2383 54.2471 0.34003 60.2554C3.68142 72.9824 15.8307 80.7054 34.6578 79.9491C53.4861 79.1953 68.0816 74.128 67.3872 58.3634C66.9632 48.762 58.7145 40.6323 50.3518 36.8198C42.0485 33.0345 32.0615 32.0761 23.1929 34.2384C18.1938 35.4584 11.7851 38.4874 7.23235 42.8268Z" fill="#EE9E0B"/>
<path d="M65.344 68.0502C64.5517 65.5445 64.1326 63.0933 63.4619 60.5553C63.4482 60.5045 63.4358 60.4574 63.4234 60.4115C63.2362 59.9243 63.0292 59.4457 62.8035 58.9733C62.7514 58.8642 62.6969 58.7551 62.6436 58.6472C63.0056 57.881 63.2834 57.0615 63.473 56.2171C64.76 50.4704 58.5756 45.485 54.1668 42.9867C49.6649 40.4339 44.8096 38.8394 39.6643 38.2294C38.0822 38.0422 36.3204 37.9269 34.4817 37.9269C27.3439 37.9269 19.0406 39.6664 15.5728 45.702C14.5822 45.9004 13.589 46.0901 12.5922 46.2674C11.3821 46.4818 10.1857 46.7311 8.99788 47.0249C9.87569 45.7069 11.0907 45.0907 12.4459 44.3506C12.5761 44.2811 12.5488 44.0865 12.3963 44.0679C12.2922 44.0542 12.188 44.048 12.0826 44.048C10.4374 44.048 8.70775 45.5644 7.84854 46.8116C7.73571 46.9753 7.62538 47.1811 7.52371 47.413C7.28318 47.4812 7.04265 47.5506 6.80336 47.6225C6.50579 47.7155 6.20823 47.8023 5.90819 47.8841C5.84744 47.9052 5.77923 47.9287 5.7036 47.956C5.01424 48.2189 4.36335 48.5512 3.68391 48.8363C3.17433 49.0496 2.68209 49.274 2.20599 49.5455C3.56239 46.9456 5.38993 44.5824 7.23234 42.8268C11.7851 38.4873 18.1938 35.4584 23.1929 34.2384C26.3173 33.4771 29.5806 33.1014 32.86 33.1014C38.8893 33.1014 44.9733 34.3685 50.3517 36.8197C58.7145 40.6323 66.9632 48.7619 67.3872 58.3633C67.4021 58.7179 67.4108 59.0663 67.4108 59.4097C67.4133 62.7796 66.6855 65.6375 65.344 68.0502Z" fill="#F2AC0E"/>
<path d="M32.1582 79.9999C14.7557 79.9999 3.53135 72.4096 0.339988 60.2554C0.108137 59.3751 0.00151134 58.4663 0.000271495 57.5426C-0.000968352 56.9673 0.0399696 56.387 0.11684 55.8043C1.35545 57.2735 2.28658 59.0726 3.65537 60.4885C5.66764 62.5714 7.56831 64.3655 9.95873 66.0194C13.4315 68.4235 18.6798 70.3477 22.7639 71.1722C29.0697 72.4468 35.5554 73.311 42.0113 73.311C42.6981 73.311 43.3863 73.301 44.0719 73.28C46.3904 73.213 49.8223 72.7828 52.5438 72.0612C52.5413 72.0612 52.54 72.0612 52.5388 72.0612C52.5202 72.0612 52.9554 71.9285 53.3968 71.7959C53.827 71.6669 54.2634 71.5367 54.2833 71.5318C55.2479 71.1177 56.2484 70.8437 57.2824 70.7085C58.0586 70.6651 58.7988 70.6019 59.5315 70.6019C60.4193 70.6019 61.2971 70.6961 62.2121 71.0383C62.4526 71.1611 62.6708 71.2714 62.8642 71.3706C57.213 77.1756 46.8181 79.4618 34.6577 79.9491C33.8109 79.9838 32.979 79.9999 32.1582 79.9999Z" fill="#E78506"/>
<path d="M47.0166 69.9955C41.9022 69.9955 36.6527 66.3504 32.0231 64.5849C27.8398 62.9904 21.3554 61.2993 19.3134 56.9325C18.5757 55.3579 19.1113 53.7449 20.1392 52.4034C25.4717 53.2427 30.9705 52.9005 36.3229 53.8924C36.1691 53.8651 36.091 53.8527 36.0687 53.8527C36.0042 53.8527 36.422 53.9556 36.8597 54.0598C37.2986 54.1627 37.7549 54.2668 37.7673 54.2668C37.7673 54.2668 37.766 54.2668 37.7611 54.2656C38.5992 54.4987 39.4361 54.7392 40.2693 54.9934C41.0901 55.2438 41.8898 55.5551 42.6882 55.8675C43.209 56.077 43.7235 56.3039 44.2306 56.5444C43.9442 56.3783 43.8029 56.2952 43.8041 56.2952C43.8066 56.2952 44.0446 56.4316 44.5195 56.7044C45.2126 57.1024 45.8635 57.5686 46.5107 58.036C46.7177 58.1848 46.8715 58.2914 46.9831 58.3645C47.0513 58.434 47.1331 58.517 47.2311 58.6125C49.6016 60.9546 51.2457 62.8863 54.8462 63.3202C55.176 63.3599 55.4983 63.3797 55.812 63.3797C56.0067 63.3797 56.1988 63.3723 56.3873 63.3574C55.5963 65.6871 53.6659 67.7068 51.6313 68.8264C50.1187 69.6583 48.575 69.9955 47.0166 69.9955ZM38.8373 63.433C38.6277 63.433 38.5286 63.7579 38.7554 63.8186C42.1105 64.715 45.6379 67.403 49.1875 67.403C49.3946 67.403 49.6004 67.3943 49.8062 67.3757C50.2092 67.3373 50.1583 66.8178 49.8719 66.6703C48.1746 65.7999 46.2478 65.3436 44.4587 64.6828C42.5593 63.9798 40.8694 63.5 38.8435 63.433C38.8422 63.433 38.8397 63.433 38.8373 63.433ZM51.056 64.5489C50.8303 64.5489 50.6406 64.8527 50.8154 65.0634C51.0225 65.3126 51.5036 65.7478 51.909 65.7478C52.0404 65.7478 52.1631 65.7032 52.2661 65.5916L52.3305 65.2953C52.2388 65.1093 52.1024 65.0622 51.9164 64.989C51.6672 64.8911 51.4391 64.782 51.2283 64.6121C51.1713 64.5675 51.113 64.5489 51.056 64.5489ZM46.5875 62.5428C46.2478 62.5428 45.9131 62.5639 45.6093 62.5837C45.246 62.6085 45.2646 63.1169 45.5486 63.2396C46.0346 63.4504 46.5132 63.681 47.0215 63.8335C47.5212 63.9835 47.9861 64.2389 48.5069 64.3121C48.5329 64.3158 48.5589 64.3171 48.5837 64.3171C49.0437 64.3171 49.2991 63.7256 49.0016 63.3711C48.4238 62.6879 47.484 62.5428 46.5875 62.5428ZM31.0238 59.9875C30.8018 59.9875 30.751 60.2813 30.9494 60.3743C31.6499 60.7054 32.3628 61.0042 33.0633 61.3377C33.7539 61.665 34.4135 62.2391 35.1686 62.3916C35.1847 62.3953 35.2008 62.3965 35.2157 62.3965C35.4141 62.3965 35.5405 62.1486 35.4587 61.9775C35.1239 61.2708 34.2821 60.931 33.6088 60.6136C32.8141 60.2367 31.9127 60.0359 31.0386 59.9887C31.0337 59.9875 31.0287 59.9875 31.0238 59.9875ZM35.972 59.2188C35.6124 59.2188 35.5046 59.6255 35.7538 59.8524C36.5795 60.6074 37.7685 60.9757 38.7914 61.3873C39.7895 61.789 40.8086 62.3085 41.9059 62.3457C41.9084 62.3457 41.9109 62.3457 41.9133 62.3457C42.0634 62.3457 42.2059 62.1895 42.1229 62.0382C41.5972 61.0873 40.5817 60.6186 39.6134 60.2342C38.4926 59.7904 37.2069 59.2634 35.9893 59.22C35.9831 59.2188 35.977 59.2188 35.972 59.2188Z" fill="#E78506"/>
<path d="M56.3873 63.3575C56.8138 62.1015 56.9093 60.755 56.5113 59.4123C55.6855 56.6214 54.8586 54.2967 52.3628 52.541C51.8643 52.1902 51.3287 51.8877 50.7708 51.6198C50.0963 51.1785 49.2917 50.8586 48.6445 50.5275C47.5497 49.9684 46.1449 49.2741 44.8356 49.2741C44.6088 49.2741 44.3831 49.2951 44.1637 49.3422C41.1012 48.4781 37.9805 47.9735 34.7954 47.7304C34.2288 47.6871 33.6473 47.666 33.0559 47.666C29.8112 47.666 26.2826 48.3206 23.4644 49.6956C22.3274 50.2498 21.043 51.2218 20.1391 52.4034C19.0059 52.2249 17.8801 51.993 16.7655 51.6831C15.0087 51.1958 14.1779 48.9604 14.7879 47.3597C15.0111 46.7745 15.274 46.2228 15.5728 45.7021C17.7723 45.2644 19.9581 44.7932 22.1526 44.3643C22.1291 44.3829 22.1055 44.4002 22.082 44.4188C21.3666 44.9718 20.733 45.6661 20.1466 46.353C19.4101 47.2159 18.4864 47.7664 17.6309 48.4843L17.7252 48.6876C19.094 48.6194 20.1466 47.4998 21.1409 46.6691C21.8836 46.048 22.5023 45.3437 23.328 44.8168C24.155 44.2886 25.1332 44.2948 26.0396 44.0121C26.1945 43.965 26.3061 43.7729 26.2181 43.6365C27.9192 43.3674 29.6314 43.1517 31.3622 43.0215C29.8447 43.1505 33.5543 43.1405 34.4383 43.2323C35.4636 43.3389 36.4816 43.5112 37.497 43.6861C37.9235 43.7654 38.3488 43.8485 38.774 43.9365C38.9129 43.9712 39.1224 44.0233 39.4026 44.0927C43.9826 45.2545 49.1701 47.3523 52.3925 49.2059C54.4593 50.3961 56.4047 51.7847 58.2545 53.2874C58.4888 53.4908 58.6624 53.6408 58.7752 53.7375C59.1212 54.076 59.4584 54.4231 59.7895 54.779C60.5582 55.5824 61.2438 56.459 61.9108 57.3492C61.9654 57.4273 62.015 57.498 62.0596 57.5624C62.0583 57.5599 62.0559 57.5562 62.0534 57.5538C62.2604 57.9121 62.4576 58.2766 62.6436 58.6473C62.5431 58.8581 62.4365 59.0651 62.3249 59.2672C62.2691 59.235 62.2072 59.2201 62.1452 59.2201C61.9381 59.2201 61.7323 59.3875 61.7856 59.6317C61.8129 59.7545 61.8426 59.8772 61.8736 60C61.5909 60.4166 61.2785 60.8059 60.9363 61.1617C60.4255 59.0763 58.8211 56.8235 57.7375 55.8167C57.6581 55.7436 57.554 55.7113 57.4523 55.7113C57.1845 55.7113 56.9217 55.9345 57.099 56.2271C57.8949 57.5438 58.4727 58.9771 58.9104 60.45C59.1026 61.0985 59.1199 61.8213 59.1819 62.5231C58.3525 62.983 57.4188 63.2781 56.3873 63.3575ZM55.3198 52.7655C55.2776 52.7655 55.2342 52.7667 55.1896 52.7679C54.5846 52.7965 54.6416 53.6383 55.0904 53.8404C55.3285 53.9483 55.5107 54.1479 55.7872 54.1591C55.7959 54.1591 55.8033 54.1591 55.8108 54.1591C56.0079 54.1591 56.1902 54.0549 56.2608 53.8627C56.365 53.58 56.2757 53.3122 56.091 53.0829C55.8802 52.8237 55.6223 52.7655 55.3198 52.7655ZM48.2117 48.4558C47.9588 48.4558 47.8869 48.7992 48.0072 48.9827C48.4213 49.6113 49.1429 49.9857 49.7752 50.3589C50.446 50.7557 51.175 51.2256 51.9747 51.2653C51.9784 51.2653 51.9821 51.2653 51.9858 51.2653C52.1594 51.2653 52.3392 51.0731 52.2326 50.897C51.816 50.2114 51.0857 49.8407 50.4038 49.465C49.7231 49.0918 49.0474 48.6281 48.2787 48.4632C48.2551 48.4582 48.2328 48.4558 48.2117 48.4558ZM22.9201 47.0126C22.4688 47.0126 22.0262 47.2432 21.6976 47.6015C21.5153 47.7999 21.6406 48.1768 21.8823 48.1768C21.9295 48.1768 21.9815 48.1631 22.0373 48.1284C22.3386 47.9449 22.6746 47.8247 23.0255 47.8247C23.054 47.8247 23.0813 47.8259 23.1086 47.8272C23.1954 47.8321 23.2908 47.842 23.3826 47.842C23.5785 47.842 23.7558 47.7949 23.788 47.5457C23.8029 47.4279 23.7421 47.2928 23.6417 47.2295C23.4099 47.0795 23.1631 47.0126 22.9201 47.0126ZM34.6032 46.3542C35.5145 46.3542 36.4208 46.441 37.3098 46.6654C38.2868 46.9097 39.0319 47.5581 40.0337 47.6685C40.0449 47.6697 40.056 47.6709 40.066 47.6709C40.2668 47.6709 40.4677 47.4701 40.4119 47.2605C39.8874 45.2879 37.7028 44.7337 35.2789 44.7337C32.7211 44.7337 29.898 45.3499 28.4721 45.5694C28.3048 45.5942 28.2924 45.8285 28.4436 45.8893C29.5297 46.3183 30.7919 46.4187 32.0317 46.4187C32.7385 46.4187 33.4377 46.3864 34.0924 46.3629C34.2635 46.3579 34.4333 46.3542 34.6032 46.3542Z" fill="#F2AC0E"/>
<path d="M62.6436 58.6472C62.4576 58.2765 62.2605 57.912 62.0534 57.5537C62.0559 57.5562 62.0584 57.5599 62.0596 57.5624C62.015 57.4979 61.9654 57.4272 61.9108 57.3491C61.2438 56.4589 60.5582 55.5823 59.7895 54.7789C59.4584 54.4231 59.1212 54.0759 58.7752 53.7374C58.6624 53.6407 58.4888 53.4907 58.2545 53.2874C56.4047 51.7847 54.4593 50.396 52.3925 49.2058C49.1702 47.3522 43.9826 45.2544 39.4026 44.0927C39.1224 44.0232 38.9129 43.9712 38.7741 43.9364C38.3488 43.8484 37.9235 43.7653 37.497 43.686C36.4816 43.5112 35.4636 43.3388 34.4383 43.2322C33.5543 43.1405 29.8447 43.1504 31.3622 43.0214C29.6314 43.1516 27.9192 43.3673 26.2181 43.6364C26.2008 43.6091 26.1747 43.5843 26.14 43.5632C25.7234 43.3091 25.2969 43.2024 24.8729 43.2024C23.9058 43.2024 22.9524 43.7542 22.1527 44.3642C19.9581 44.7932 17.7723 45.2643 15.5728 45.702C19.0406 39.6664 27.3439 37.9269 34.4817 37.9269C36.3204 37.9269 38.0822 38.0422 39.6643 38.2294C44.8096 38.8394 49.6649 40.4339 54.1667 42.9867C58.5756 45.485 64.76 50.4704 63.473 56.2171C63.2833 57.0615 63.0056 57.881 62.6436 58.6472Z" fill="#F5B810"/>
<path d="M55.812 63.3798C55.4983 63.3798 55.176 63.3599 54.8462 63.3203C51.2456 62.8863 49.6016 60.9546 47.231 58.6126C47.1331 58.5171 47.0512 58.434 46.9831 58.3646C46.8715 58.2914 46.7177 58.1848 46.5107 58.036C45.8635 57.5686 45.2125 57.1024 44.5195 56.7044C44.0446 56.4317 43.8066 56.2953 43.8041 56.2953C43.8028 56.2953 43.9442 56.3783 44.2306 56.5445C43.7235 56.304 43.2089 56.0771 42.6882 55.8675C41.8897 55.5551 41.09 55.2439 40.2693 54.9934C39.4361 54.7393 38.5992 54.4987 37.7611 54.2656C37.766 54.2669 37.7673 54.2669 37.7673 54.2669C37.7549 54.2669 37.2986 54.1627 36.8597 54.0598C36.422 53.9557 36.0042 53.8528 36.0687 53.8528C36.091 53.8528 36.1691 53.8652 36.3229 53.8924C30.9704 52.9006 25.4717 53.2428 20.1391 52.4034C21.043 51.2218 22.3274 50.2498 23.4644 49.6956C26.2825 48.3206 29.8112 47.6659 33.0558 47.6659C33.6473 47.6659 34.2287 47.687 34.7954 47.7304C37.9805 47.9734 41.1012 48.478 44.1636 49.3422C44.1178 49.3509 44.0731 49.3621 44.0285 49.3732C43.726 49.4526 43.5908 49.8518 43.8772 50.0489C45.0005 50.8201 46.4908 51.109 47.7307 51.6892C48.8751 52.2273 50.1509 53.3494 51.4688 53.3494C51.5407 53.3494 51.6126 53.3457 51.6858 53.3382C51.9127 53.3172 52.033 53.0382 51.9412 52.8448C51.6982 52.3364 51.2692 51.9459 50.7708 51.6198C51.3287 51.8876 51.8643 52.1901 52.3627 52.541C54.8586 54.2966 55.6855 56.6214 56.5113 59.4123C56.9093 60.755 56.8138 62.1015 56.3873 63.3575C56.1988 63.3723 56.0067 63.3798 55.812 63.3798ZM54.1605 57.4843C53.9398 57.4843 53.739 57.7608 53.8419 57.9852C54.1779 58.708 54.2858 59.5102 54.4159 60.2913C54.5164 60.9013 54.5424 61.5026 55.1512 61.8002L55.481 61.7432C56.055 61.1629 55.7413 60.2677 55.5814 59.5623C55.4004 58.7638 54.9491 58.098 54.3465 57.5599C54.2882 57.5066 54.2238 57.4843 54.1605 57.4843ZM52.8178 55.0393C52.814 55.0393 52.8116 55.0393 52.8091 55.0393C52.3466 55.0418 52.2201 55.6072 52.6318 55.8117C52.7558 55.8725 52.8277 56.0523 52.8971 56.1651C53.0037 56.3387 53.181 56.4193 53.3521 56.4193C53.6175 56.4193 53.8667 56.2234 53.8096 55.8762C53.7253 55.3753 53.3236 55.0393 52.8178 55.0393ZM40.1279 50.2585C39.9717 50.2585 39.8936 50.4655 40.0287 50.5759C41.1198 51.4772 41.9059 52.5299 43.2251 53.1361C43.9541 53.4734 44.8381 53.5639 45.6229 53.6792C46.2553 53.7722 46.8814 53.9334 47.5137 53.9334C47.6551 53.9334 47.7976 53.9259 47.9402 53.9061C48.1262 53.8825 48.2452 53.611 48.0977 53.4721C47.0636 52.4976 45.3192 52.7134 44.0074 52.3848C42.5655 52.024 41.6071 50.7346 40.1899 50.2696C40.1689 50.2622 40.1478 50.2585 40.1279 50.2585ZM37.2527 48.4557C37.218 48.4557 37.1821 48.4582 37.1436 48.4656C36.4729 48.5822 36.6092 49.5728 37.2267 49.5728C37.2614 49.5728 37.2974 49.5704 37.3358 49.5629C38.0066 49.4464 37.8702 48.4557 37.2527 48.4557Z" fill="#EC9709"/>
<path d="M13.222 63.2062C13.2084 63.2062 13.1947 63.2062 13.1799 63.2037C10.0034 62.8851 7.68364 59.0663 6.62481 56.387C6.4847 56.0337 6.74507 55.7783 7.02403 55.7783C7.17034 55.7783 7.32159 55.8477 7.42326 56.0114C8.30355 57.4248 9.37849 58.6572 10.5762 59.809C11.5433 60.7389 12.6641 61.5101 13.5245 62.5491C13.7366 62.807 13.5493 63.2062 13.222 63.2062Z" fill="#F2AC0E"/>
<path d="M17.4797 67.0162C17.471 67.0162 17.461 67.0162 17.4511 67.0162C16.8362 66.9902 16.3006 66.7373 15.8021 66.3765C15.4166 66.0963 14.969 65.8409 14.6702 65.4615C14.4222 65.1441 14.5896 64.7076 14.9751 64.6196C15.0942 64.5923 15.2132 64.5812 15.3322 64.5812C15.7625 64.5812 16.1964 64.7324 16.5994 64.8639C17.1821 65.056 17.6718 65.3648 18.0822 65.8099C18.5385 66.3046 18.0723 67.0162 17.4797 67.0162Z" fill="#F2AC0E"/>
<path d="M10.0319 64.2327C10.0208 64.2327 10.0096 64.2327 9.99844 64.2315C9.08343 64.136 8.12008 63.3028 7.43693 62.7362C6.62979 62.0642 5.98877 61.3377 5.58954 60.3582C5.51267 60.1685 5.65277 60.0222 5.81023 60.0222C5.87223 60.0222 5.93794 60.0458 5.99249 60.0991C6.76367 60.8343 7.72455 61.3885 8.61972 61.9564C9.31031 62.3965 10.1956 62.9396 10.4225 63.774C10.4857 64.0108 10.2576 64.2327 10.0319 64.2327Z" fill="#F2AC0E"/>
<path d="M13.8717 60.6223C13.3671 60.6223 12.9021 60.2504 12.5562 59.9106C12.1508 59.5102 11.8185 59.0762 11.7355 58.5022C11.7119 58.3385 11.8409 58.2108 11.9847 58.2108C12.0318 58.2108 12.0789 58.2245 12.1248 58.2542C12.5252 58.522 12.8711 58.8605 13.2679 59.1345C13.6361 59.3924 14.1346 59.6813 14.2871 60.1264C14.3565 60.3322 14.2747 60.569 14.0379 60.6087C13.9821 60.6174 13.9263 60.6223 13.8717 60.6223Z" fill="#F2AC0E"/>
<path d="M24.9894 67.3659C24.9807 67.3659 24.972 67.3647 24.9634 67.3647C23.6132 67.2903 22.3907 65.9773 21.3009 65.2644C20.1825 64.5304 18.9451 63.81 18.0153 62.8417C17.8094 62.6285 18.0351 62.373 18.267 62.373C18.2905 62.373 18.3153 62.3755 18.3376 62.3805C19.7721 62.7227 21.1645 63.593 22.4031 64.3729C23.4173 65.0114 24.889 65.6562 25.3304 66.8439C25.4258 67.1006 25.2671 67.3659 24.9894 67.3659Z" fill="#F2AC0E"/>
<path d="M23.3863 69.491C22.5333 69.491 21.5923 68.9355 21.0145 68.4011C20.7702 68.1767 20.9649 67.7143 21.2749 67.682C21.3914 67.6696 21.5166 67.6634 21.6456 67.6634C22.4614 67.6634 23.4644 67.9027 24.0645 68.3602C24.4985 68.6913 24.3249 69.305 23.8228 69.4376C23.6814 69.4748 23.5351 69.491 23.3863 69.491Z" fill="#F2AC0E"/>
<path d="M30.8316 70.3626C30.4869 70.3626 30.1026 70.2523 29.8075 70.1642C28.7784 69.8543 27.5981 69.5691 26.7413 68.8872C26.4909 68.6888 26.5566 68.2722 26.8926 68.2127C27.1294 68.1705 27.3724 68.1532 27.6154 68.1532C28.1845 68.1532 28.7623 68.2487 29.3066 68.359C30.0096 68.5004 30.7981 68.6206 31.366 69.0806C31.552 69.2306 31.7106 69.4724 31.6623 69.7266C31.5705 70.2175 31.2284 70.3626 30.8316 70.3626Z" fill="#F2AC0E"/>
<path d="M32.9083 68.23C31.7565 68.23 30.679 67.6151 29.6698 67.1129C28.5936 66.5773 27.4505 66.1744 26.4004 65.5892C26.0346 65.3858 26.3136 64.8961 26.6533 64.8961C26.6545 64.8961 26.6557 64.8961 26.657 64.8961C28.0022 64.9097 29.2495 65.6115 30.441 66.1731C31.4155 66.6331 32.4905 67.0931 33.2765 67.842C33.4005 67.9585 33.3075 68.209 33.1389 68.2214C33.0608 68.2276 32.9839 68.23 32.9083 68.23Z" fill="#F2AC0E"/>
<path d="M36.546 71.1635C36.1518 71.1635 35.7786 70.9701 35.4314 70.7296C35.0061 70.4332 34.5871 70.06 34.3912 69.5641C34.2796 69.2864 34.4792 68.9392 34.7693 68.9392C34.8214 68.9392 34.8772 68.9504 34.933 68.9752C35.3558 69.1587 35.7315 69.4389 36.1468 69.6348C36.5981 69.848 36.9763 70.0129 37.2329 70.4543C37.3544 70.6651 37.2304 70.9775 37.0122 71.068C36.8535 71.135 36.6985 71.1635 36.546 71.1635Z" fill="#F2AC0E"/>
<path d="M17.0259 59.7396C16.8808 59.7396 16.7345 59.6875 16.613 59.6143C14.8165 58.5406 13.0212 55.6741 12.2438 53.7747C11.6164 52.241 11.2693 50.3205 12.9766 49.393C13.0125 49.3732 13.0497 49.3645 13.0844 49.3645C13.2642 49.3645 13.408 49.5976 13.2878 49.7638C10.9878 52.9353 16.3799 56.3337 17.6074 58.7774C17.7152 58.9932 17.6818 59.256 17.5503 59.4507L17.2875 59.6726C17.2044 59.7197 17.1151 59.7396 17.0259 59.7396Z" fill="#F2AC0E"/>
<path d="M8.22793 51.0471C6.75003 50.6627 6.98437 48.6579 7.5237 47.4131C8.01344 47.2754 8.50565 47.1465 8.99787 47.025C8.96191 47.0783 8.92597 47.1341 8.89126 47.1899C8.51682 47.7987 8.1461 48.4905 8.17214 49.2307C8.19322 49.8109 8.4263 50.3713 8.38539 50.9503L8.22793 51.0471Z" fill="#F2AC0E"/>
<path d="M7.52371 47.413C7.62538 47.1811 7.73571 46.9753 7.84854 46.8116C8.70775 45.5644 10.4374 44.048 12.0826 44.048C12.188 44.048 12.2922 44.0542 12.3963 44.0679C12.5488 44.0865 12.5761 44.2811 12.4459 44.3505C11.0907 45.0907 9.87569 45.7069 8.99788 47.0249C8.50566 47.1464 8.01345 47.2753 7.52371 47.413Z" fill="#F5B810"/>
<path d="M49.1875 67.4031C45.6379 67.4031 42.1105 64.7151 38.7554 63.8187C38.5286 63.7579 38.6277 63.4331 38.8373 63.4331C38.8397 63.4331 38.8422 63.4331 38.8435 63.4331C40.8694 63.5 42.5593 63.9799 44.4587 64.6828C46.2478 65.3437 48.1746 65.7999 49.8719 66.6703C50.1583 66.8179 50.2092 67.3374 49.8062 67.3758C49.6004 67.3944 49.3946 67.4031 49.1875 67.4031Z" fill="#EC9709"/>
<path d="M48.5837 64.3171C48.5589 64.3171 48.5329 64.3158 48.5069 64.3121C47.9861 64.239 47.5212 63.9836 47.0215 63.8335C46.5132 63.681 46.0346 63.4504 45.5486 63.2396C45.2647 63.1169 45.2461 62.6086 45.6093 62.5838C45.9131 62.5639 46.2478 62.5428 46.5876 62.5428C47.484 62.5428 48.4238 62.6879 49.0016 63.3711C49.2991 63.7257 49.0437 64.3171 48.5837 64.3171Z" fill="#EC9709"/>
<path d="M51.909 65.7478C51.5036 65.7478 51.0225 65.3126 50.8154 65.0634C50.6406 64.8526 50.8303 64.5489 51.056 64.5489C51.113 64.5489 51.1713 64.5675 51.2283 64.6121C51.4391 64.782 51.6672 64.8911 51.9164 64.989C52.1024 65.0622 52.2388 65.1093 52.3305 65.2953L52.266 65.5916C52.1631 65.7032 52.0404 65.7478 51.909 65.7478Z" fill="#EC9709"/>
<path d="M35.2157 62.3966C35.2008 62.3966 35.1847 62.3954 35.1686 62.3916C34.4135 62.2391 33.7539 61.6651 33.0633 61.3378C32.3628 61.0043 31.6499 60.7054 30.9494 60.3744C30.751 60.2814 30.8019 59.9876 31.0238 59.9876C31.0287 59.9876 31.0337 59.9876 31.0386 59.9888C31.9127 60.0359 32.8141 60.2368 33.6088 60.6137C34.2821 60.9311 35.1239 61.2708 35.4587 61.9775C35.5405 62.1486 35.4141 62.3966 35.2157 62.3966Z" fill="#EC9709"/>
<path d="M41.9133 62.3457C41.9109 62.3457 41.9084 62.3457 41.9059 62.3457C40.8086 62.3085 39.7895 61.789 38.7914 61.3873C37.7685 60.9757 36.5795 60.6074 35.7538 59.8524C35.5046 59.6255 35.6124 59.2188 35.972 59.2188C35.977 59.2188 35.9831 59.2188 35.9893 59.2201C37.2069 59.2634 38.4926 59.7904 39.6134 60.2342C40.5817 60.6186 41.5972 61.0873 42.1229 62.0382C42.2059 62.1895 42.0634 62.3457 41.9133 62.3457Z" fill="#EC9709"/>
<path d="M60.0585 64.5241C59.8651 64.5241 59.6655 64.4051 59.5799 64.234C59.322 63.7207 59.2365 63.1293 59.1819 62.523C59.8328 62.1622 60.4181 61.701 60.9363 61.1617C61.2388 62.399 61.157 63.5769 60.3536 64.4026C60.2705 64.4882 60.1651 64.5254 60.0585 64.5241Z" fill="#E78506"/>
<path d="M59.1819 62.523C59.1199 61.8213 59.1026 61.0984 58.9104 60.45C58.4728 58.9771 57.895 57.5438 57.099 56.2271C56.9217 55.9345 57.1845 55.7113 57.4524 55.7113C57.554 55.7113 57.6582 55.7435 57.7375 55.8167C58.8212 56.8234 60.4255 59.0762 60.9363 61.1617C60.4181 61.701 59.8329 62.1622 59.1819 62.523Z" fill="#EB9109"/>
<path d="M55.8108 54.159C55.8033 54.159 55.7959 54.159 55.7872 54.159C55.5107 54.1478 55.3284 53.9482 55.0904 53.8404C54.6416 53.6383 54.5845 52.7964 55.1896 52.7679C55.2342 52.7667 55.2776 52.7654 55.3198 52.7654C55.6223 52.7654 55.8802 52.8237 56.091 53.0828C56.2757 53.3122 56.3649 53.58 56.2608 53.8627C56.1901 54.0548 56.0079 54.159 55.8108 54.159Z" fill="#EB9109"/>
<path d="M62.8332 65.2172C62.7241 65.2172 62.6188 65.149 62.594 65.0151C62.4266 64.1299 62.5654 63.2149 62.4365 62.3234C62.3187 61.5237 62.0683 60.7736 61.8736 59.9999C62.0335 59.7644 62.1836 59.5189 62.3249 59.2672C62.3559 59.2858 62.3857 59.3093 62.4117 59.3391C63.504 60.5938 64.1983 63.7306 63.044 65.1168C62.9882 65.185 62.9101 65.2172 62.8332 65.2172Z" fill="#E78506"/>
<path d="M61.8736 59.9999C61.8426 59.8771 61.8128 59.7544 61.7856 59.6316C61.7323 59.3874 61.9381 59.22 62.1451 59.22C62.2071 59.22 62.2691 59.2349 62.3249 59.2671C62.1836 59.5188 62.0335 59.7643 61.8736 59.9999Z" fill="#EB9109"/>
<path d="M50.7708 51.6198C49.1912 50.861 47.4294 50.375 45.8102 49.8431C45.2634 49.6646 44.7142 49.4972 44.1637 49.3422C44.3831 49.2951 44.6088 49.274 44.8357 49.274C46.1449 49.274 47.5497 49.9683 48.6445 50.5275C49.2917 50.8585 50.0963 51.1784 50.7708 51.6198Z" fill="#EB9109"/>
<path d="M51.4688 53.3494C50.1509 53.3494 48.8751 52.2273 47.7307 51.6892C46.4908 51.109 45.0005 50.8201 43.8772 50.0489C43.5908 49.8518 43.726 49.4525 44.0285 49.3732C44.0731 49.362 44.1178 49.3509 44.1637 49.3422C44.7141 49.4972 45.2634 49.6646 45.8102 49.8431C47.4294 50.375 49.1912 50.861 50.7708 51.6198C51.2692 51.9459 51.6982 52.3364 51.9412 52.8448C52.033 53.0382 51.9127 53.3171 51.6858 53.3382C51.6126 53.3456 51.5407 53.3494 51.4688 53.3494Z" fill="#E57F05"/>
<path d="M53.3522 56.4193C53.1811 56.4193 53.0038 56.3387 52.8971 56.1651C52.8277 56.0523 52.7558 55.8725 52.6318 55.8117C52.2202 55.6071 52.3467 55.0418 52.8091 55.0393C52.8116 55.0393 52.8141 55.0393 52.8178 55.0393C53.3236 55.0393 53.7253 55.3753 53.8097 55.8762C53.8667 56.2234 53.6175 56.4193 53.3522 56.4193Z" fill="#E57F05"/>
<path d="M55.1512 61.8002C54.5424 61.5026 54.5164 60.9013 54.4159 60.2913C54.2858 59.5102 54.1779 58.708 53.8419 57.9852C53.739 57.7607 53.9398 57.4843 54.1605 57.4843C54.2238 57.4843 54.2882 57.5066 54.3465 57.5599C54.9491 58.098 55.4004 58.7638 55.5814 59.5622C55.7413 60.2677 56.055 61.1629 55.481 61.7431L55.1512 61.8002Z" fill="#E57F05"/>
<path d="M51.9859 51.2652C51.9821 51.2652 51.9784 51.2652 51.9747 51.2652C51.175 51.2255 50.446 50.7556 49.7752 50.3589C49.1429 49.9857 48.4213 49.6112 48.0072 48.9826C47.8869 48.7991 47.9588 48.4557 48.2118 48.4557C48.2328 48.4557 48.2552 48.4582 48.2787 48.4631C49.0474 48.628 49.7231 49.0917 50.4038 49.4649C51.0857 49.8406 51.816 50.2113 52.2326 50.897C52.3392 51.073 52.1594 51.2652 51.9859 51.2652Z" fill="#EB9109"/>
<path d="M37.2267 49.5729C36.6092 49.5729 36.4729 48.5822 37.1436 48.4657C37.1821 48.4582 37.218 48.4558 37.2528 48.4558C37.8702 48.4558 38.0066 49.4464 37.3358 49.563C37.2974 49.5704 37.2614 49.5729 37.2267 49.5729Z" fill="#E57F05"/>
<path d="M47.5137 53.9333C46.8814 53.9333 46.2553 53.7722 45.623 53.6792C44.8381 53.5639 43.9541 53.4734 43.2251 53.1361C41.9059 52.5298 41.1198 51.4772 40.0288 50.5758C39.8936 50.4655 39.9717 50.2584 40.128 50.2584C40.1478 50.2584 40.1689 50.2622 40.1899 50.2696C41.6071 50.7345 42.5655 52.024 44.0074 52.3848C45.3192 52.7133 47.0637 52.4976 48.0977 53.4721C48.2452 53.611 48.1262 53.8825 47.9402 53.9061C47.7976 53.9259 47.6551 53.9333 47.5137 53.9333Z" fill="#E57F05"/>
<path d="M40.066 47.6708C40.0561 47.6708 40.0449 47.6696 40.0337 47.6684C39.0319 47.558 38.2868 46.9096 37.3098 46.6653C36.4208 46.4409 35.5145 46.3541 34.6032 46.3541C34.4333 46.3541 34.2635 46.3578 34.0924 46.3628C33.4378 46.3863 32.7385 46.4186 32.0318 46.4186C30.7919 46.4186 29.5298 46.3182 28.4436 45.8892C28.2924 45.8284 28.3048 45.5941 28.4722 45.5693C29.898 45.3498 32.7211 44.7336 35.2789 44.7336C37.7028 44.7336 39.8874 45.2878 40.4119 47.2604C40.4677 47.47 40.2668 47.6708 40.066 47.6708Z" fill="#EB9109"/>
<path d="M21.8824 48.1768C21.6406 48.1768 21.5154 47.7998 21.6976 47.6015C22.0262 47.2432 22.4688 47.0125 22.9201 47.0125C23.1631 47.0125 23.4099 47.0795 23.6417 47.2295C23.7422 47.2927 23.8029 47.4279 23.788 47.5457C23.7558 47.7949 23.5785 47.842 23.3826 47.842C23.2908 47.842 23.1954 47.8321 23.1086 47.8271C23.0813 47.8259 23.054 47.8246 23.0255 47.8246C22.6746 47.8246 22.3386 47.9449 22.0373 48.1284C21.9815 48.1631 21.9295 48.1768 21.8824 48.1768Z" fill="#EB9109"/>
<path d="M17.7251 48.6876L17.6309 48.4842C18.4864 47.7664 19.4101 47.2159 20.1465 46.3529C20.733 45.6661 21.3666 44.9717 22.082 44.4188C22.1055 44.4002 22.1291 44.3828 22.1526 44.3642C23.5041 44.1001 24.858 43.8522 26.2181 43.6364C26.3061 43.7728 26.1945 43.965 26.0395 44.0121C25.1332 44.2948 24.155 44.2886 23.328 44.8168C22.5023 45.3437 21.8836 46.0479 21.1409 46.6691C20.1465 47.4998 19.0939 48.6194 17.7251 48.6876Z" fill="#EB9109"/>
<path d="M22.1526 44.3642C22.9524 43.7542 23.9058 43.2025 24.8729 43.2025C25.2969 43.2025 25.7234 43.3091 26.14 43.5633C26.1747 43.5843 26.2008 43.6091 26.2181 43.6364C24.858 43.8521 23.5041 44.1001 22.1526 44.3642Z" fill="#EE9B0A"/>
</svg>
