<svg width="468" height="286" viewBox="0 0 468 286" fill="none" xmlns="http://www.w3.org/2000/svg">
<path d="M121.6 226.6V283H91.2V226.6H0.800001V198.2L87.6 2.99998H121.6V198.2H144V226.6H121.6ZM29.6 198.2H91.2V61.4L29.6 198.2ZM169.756 70.6C169.756 49 174.956 31.9333 185.356 19.4C196.023 6.59999 212.156 0.199993 233.756 0.199993C255.356 0.199993 271.49 6.59999 282.156 19.4C292.823 31.9333 298.156 49 298.156 70.6V215C298.156 236.6 292.823 253.8 282.156 266.6C271.49 279.4 255.356 285.8 233.756 285.8C212.156 285.8 196.023 279.4 185.356 266.6C174.956 253.8 169.756 236.6 169.756 215V70.6ZM200.556 217C200.556 229.8 203.223 239.8 208.556 247C214.156 253.933 222.556 257.4 233.756 257.4C245.223 257.4 253.623 253.933 258.956 247C264.29 239.8 266.956 229.8 266.956 217V69C266.956 56.2 264.29 46.2 258.956 39C253.623 31.8 245.223 28.2 233.756 28.2C222.556 28.2 214.156 31.8 208.556 39C203.223 46.2 200.556 56.2 200.556 69V217ZM445.225 226.6V283H414.825V226.6H324.425V198.2L411.225 2.99998H445.225V198.2H467.625V226.6H445.225ZM353.225 198.2H414.825V61.4L353.225 198.2Z" fill="#3A3A3A"/>
</svg>
