<svg width="120" height="24" viewBox="0 0 120 24" fill="none" xmlns="http://www.w3.org/2000/svg">
<path d="M22 9.24L14.81 8.62L12 2L9.19 8.63L2 9.24L7.46 13.97L5.82 21L12 17.27L18.18 21L16.55 13.97L22 9.24ZM12 15.4L8.24 17.67L9.24 13.39L5.92 10.51L10.3 10.13L12 6.1L13.71 10.14L18.09 10.52L14.77 13.4L15.77 17.68L12 15.4Z" fill="#6F4027"/>
<path d="M46 9.24L38.81 8.62L36 2L33.19 8.63L26 9.24L31.46 13.97L29.82 21L36 17.27L42.18 21L40.55 13.97L46 9.24ZM36 15.4L32.24 17.67L33.24 13.39L29.92 10.51L34.3 10.13L36 6.1L37.71 10.14L42.09 10.52L38.77 13.4L39.77 17.68L36 15.4Z" fill="#6F4027"/>
<path d="M70 9.24L62.81 8.62L60 2L57.19 8.63L50 9.24L55.46 13.97L53.82 21L60 17.27L66.18 21L64.55 13.97L70 9.24ZM60 15.4L56.24 17.67L57.24 13.39L53.92 10.51L58.3 10.13L60 6.1L61.71 10.14L66.09 10.52L62.77 13.4L63.77 17.68L60 15.4Z" fill="#6F4027"/>
<path d="M94 9.24L86.81 8.62L84 2L81.19 8.63L74 9.24L79.46 13.97L77.82 21L84 17.27L90.18 21L88.55 13.97L94 9.24ZM84 15.4L80.24 17.67L81.24 13.39L77.92 10.51L82.3 10.13L84 6.1L85.71 10.14L90.09 10.52L86.77 13.4L87.77 17.68L84 15.4Z" fill="#6F4027"/>
<path d="M118 9.24L110.81 8.62L108 2L105.19 8.63L98 9.24L103.46 13.97L101.82 21L108 17.27L114.18 21L112.55 13.97L118 9.24ZM108 15.4L104.24 17.67L105.24 13.39L101.92 10.51L106.3 10.13L108 6.1L109.71 10.14L114.09 10.52L110.77 13.4L111.77 17.68L108 15.4Z" fill="#6F4027"/>
</svg>
